G04 EAGLE Gerber RS-274X export*
G75*
%MOMM*%
%FSLAX34Y34*%
%LPD*%
%INBottom Copper*%
%IPPOS*%
%AMOC8*
5,1,8,0,0,1.08239X$1,22.5*%
G01*
%ADD10R,1.308000X1.308000*%
%ADD11C,1.308000*%
%ADD12C,5.334000*%
%ADD13R,5.842000X5.842000*%
%ADD14C,1.524000*%
%ADD15C,1.879600*%
%ADD16C,0.508000*%
%ADD17C,0.254000*%

G36*
X281620Y10172D02*
X281620Y10172D01*
X281692Y10174D01*
X281741Y10192D01*
X281792Y10200D01*
X281855Y10234D01*
X281923Y10259D01*
X281963Y10291D01*
X282009Y10316D01*
X282059Y10367D01*
X282115Y10412D01*
X282143Y10456D01*
X282179Y10494D01*
X282209Y10559D01*
X282248Y10619D01*
X282260Y10670D01*
X282282Y10717D01*
X282290Y10788D01*
X282308Y10858D01*
X282304Y10910D01*
X282309Y10961D01*
X282294Y11032D01*
X282289Y11103D01*
X282268Y11151D01*
X282257Y11202D01*
X282220Y11263D01*
X282192Y11329D01*
X282147Y11385D01*
X282131Y11413D01*
X282113Y11428D01*
X282087Y11460D01*
X281548Y12000D01*
X280611Y14261D01*
X280549Y14361D01*
X280490Y14461D01*
X280485Y14465D01*
X280482Y14470D01*
X280391Y14545D01*
X280303Y14621D01*
X280297Y14623D01*
X280292Y14627D01*
X280184Y14669D01*
X280075Y14713D01*
X280067Y14714D01*
X280063Y14715D01*
X280044Y14716D01*
X279908Y14731D01*
X258561Y14731D01*
X249681Y23611D01*
X249681Y41701D01*
X249662Y41816D01*
X249645Y41932D01*
X249643Y41938D01*
X249642Y41944D01*
X249587Y42047D01*
X249534Y42152D01*
X249529Y42156D01*
X249526Y42162D01*
X249442Y42241D01*
X249358Y42324D01*
X249352Y42328D01*
X249348Y42331D01*
X249331Y42339D01*
X249211Y42405D01*
X248568Y42671D01*
X245871Y45368D01*
X244411Y48893D01*
X244411Y52707D01*
X245871Y56232D01*
X248568Y58929D01*
X252093Y60389D01*
X255907Y60389D01*
X259432Y58929D01*
X262129Y56232D01*
X263589Y52707D01*
X263589Y48893D01*
X262129Y45368D01*
X259432Y42671D01*
X258789Y42405D01*
X258689Y42343D01*
X258589Y42283D01*
X258585Y42278D01*
X258580Y42275D01*
X258505Y42186D01*
X258429Y42096D01*
X258427Y42090D01*
X258423Y42086D01*
X258381Y41978D01*
X258337Y41868D01*
X258336Y41861D01*
X258335Y41856D01*
X258334Y41838D01*
X258319Y41701D01*
X258319Y27504D01*
X258333Y27414D01*
X258341Y27323D01*
X258353Y27293D01*
X258358Y27261D01*
X258401Y27181D01*
X258437Y27097D01*
X258463Y27065D01*
X258474Y27044D01*
X258497Y27022D01*
X258542Y26966D01*
X261916Y23592D01*
X261990Y23539D01*
X262059Y23479D01*
X262089Y23467D01*
X262116Y23448D01*
X262203Y23421D01*
X262287Y23387D01*
X262328Y23383D01*
X262351Y23376D01*
X262383Y23377D01*
X262454Y23369D01*
X279908Y23369D01*
X280023Y23388D01*
X280139Y23405D01*
X280145Y23407D01*
X280151Y23408D01*
X280253Y23463D01*
X280358Y23516D01*
X280363Y23521D01*
X280368Y23524D01*
X280448Y23608D01*
X280530Y23692D01*
X280534Y23698D01*
X280537Y23702D01*
X280545Y23719D01*
X280611Y23839D01*
X281548Y26101D01*
X285049Y29602D01*
X289624Y31497D01*
X294576Y31497D01*
X298500Y29871D01*
X298595Y29849D01*
X298688Y29820D01*
X298714Y29821D01*
X298739Y29815D01*
X298836Y29824D01*
X298934Y29827D01*
X298958Y29836D01*
X298984Y29838D01*
X299073Y29878D01*
X299165Y29911D01*
X299185Y29928D01*
X299209Y29938D01*
X299281Y30004D01*
X299357Y30065D01*
X299371Y30087D01*
X299390Y30105D01*
X299437Y30190D01*
X299490Y30272D01*
X299496Y30297D01*
X299509Y30320D01*
X299526Y30416D01*
X299550Y30510D01*
X299548Y30536D01*
X299552Y30562D01*
X299538Y30659D01*
X299531Y30756D01*
X299520Y30780D01*
X299517Y30806D01*
X299472Y30893D01*
X299434Y30982D01*
X299414Y31007D01*
X299405Y31025D01*
X299381Y31048D01*
X299329Y31113D01*
X286840Y43603D01*
X286824Y43614D01*
X286811Y43630D01*
X286724Y43686D01*
X286640Y43746D01*
X286621Y43752D01*
X286604Y43763D01*
X286504Y43788D01*
X286405Y43819D01*
X286385Y43818D01*
X286366Y43823D01*
X286263Y43815D01*
X286159Y43812D01*
X286140Y43805D01*
X286120Y43804D01*
X286026Y43763D01*
X285928Y43728D01*
X285912Y43715D01*
X285894Y43707D01*
X285763Y43603D01*
X284832Y42671D01*
X281307Y41211D01*
X277493Y41211D01*
X273968Y42671D01*
X271271Y45368D01*
X269811Y48893D01*
X269811Y52707D01*
X271271Y56232D01*
X273968Y58929D01*
X277493Y60389D01*
X281307Y60389D01*
X284832Y58929D01*
X287529Y56232D01*
X288251Y54489D01*
X288285Y54433D01*
X288311Y54373D01*
X288363Y54308D01*
X288380Y54280D01*
X288395Y54267D01*
X288416Y54242D01*
X293912Y48746D01*
X293970Y48704D01*
X294022Y48655D01*
X294069Y48633D01*
X294111Y48602D01*
X294180Y48581D01*
X294245Y48551D01*
X294297Y48545D01*
X294347Y48530D01*
X294418Y48532D01*
X294489Y48524D01*
X294540Y48535D01*
X294592Y48536D01*
X294660Y48561D01*
X294730Y48576D01*
X294775Y48603D01*
X294823Y48621D01*
X294879Y48666D01*
X294941Y48702D01*
X294975Y48742D01*
X295015Y48774D01*
X295054Y48835D01*
X295101Y48889D01*
X295120Y48938D01*
X295148Y48981D01*
X295166Y49051D01*
X295193Y49117D01*
X295201Y49189D01*
X295209Y49220D01*
X295207Y49243D01*
X295211Y49284D01*
X295211Y52707D01*
X296671Y56232D01*
X299368Y58929D01*
X302893Y60389D01*
X306707Y60389D01*
X310232Y58929D01*
X312929Y56232D01*
X314389Y52707D01*
X314389Y48893D01*
X312929Y45368D01*
X310232Y42671D01*
X306707Y41211D01*
X303284Y41211D01*
X303213Y41200D01*
X303142Y41198D01*
X303093Y41180D01*
X303041Y41172D01*
X302978Y41138D01*
X302911Y41113D01*
X302870Y41081D01*
X302824Y41056D01*
X302775Y41005D01*
X302719Y40960D01*
X302690Y40916D01*
X302655Y40878D01*
X302624Y40813D01*
X302586Y40753D01*
X302573Y40702D01*
X302551Y40655D01*
X302543Y40584D01*
X302526Y40514D01*
X302530Y40462D01*
X302524Y40411D01*
X302539Y40340D01*
X302545Y40269D01*
X302565Y40221D01*
X302576Y40170D01*
X302613Y40109D01*
X302641Y40043D01*
X302686Y39987D01*
X302702Y39959D01*
X302720Y39944D01*
X302746Y39912D01*
X311933Y30725D01*
X312027Y30657D01*
X312121Y30587D01*
X312127Y30585D01*
X312132Y30581D01*
X312244Y30547D01*
X312355Y30511D01*
X312362Y30511D01*
X312368Y30509D01*
X312484Y30512D01*
X312601Y30513D01*
X312608Y30515D01*
X312613Y30515D01*
X312631Y30522D01*
X312762Y30560D01*
X315024Y31497D01*
X319976Y31497D01*
X324551Y29602D01*
X328052Y26101D01*
X329497Y22612D01*
X329535Y22551D01*
X329564Y22486D01*
X329599Y22448D01*
X329626Y22403D01*
X329682Y22358D01*
X329730Y22305D01*
X329776Y22280D01*
X329816Y22246D01*
X329883Y22221D01*
X329946Y22186D01*
X329997Y22177D01*
X330045Y22158D01*
X330117Y22155D01*
X330188Y22142D01*
X330239Y22150D01*
X330291Y22148D01*
X330360Y22168D01*
X330431Y22178D01*
X330477Y22202D01*
X330527Y22216D01*
X330586Y22257D01*
X330650Y22290D01*
X330687Y22327D01*
X330729Y22357D01*
X330772Y22414D01*
X330822Y22465D01*
X330857Y22528D01*
X330876Y22554D01*
X330883Y22576D01*
X330903Y22612D01*
X332348Y26101D01*
X335849Y29602D01*
X340424Y31497D01*
X345376Y31497D01*
X347638Y30560D01*
X347751Y30533D01*
X347865Y30505D01*
X347871Y30505D01*
X347877Y30504D01*
X347994Y30515D01*
X348110Y30524D01*
X348116Y30526D01*
X348122Y30527D01*
X348229Y30574D01*
X348336Y30620D01*
X348342Y30625D01*
X348347Y30627D01*
X348360Y30639D01*
X348467Y30725D01*
X351058Y33316D01*
X351111Y33390D01*
X351171Y33459D01*
X351183Y33489D01*
X351202Y33516D01*
X351229Y33603D01*
X351263Y33687D01*
X351267Y33728D01*
X351274Y33751D01*
X351273Y33783D01*
X351281Y33854D01*
X351281Y41701D01*
X351262Y41816D01*
X351245Y41932D01*
X351243Y41938D01*
X351242Y41944D01*
X351187Y42047D01*
X351134Y42152D01*
X351129Y42156D01*
X351126Y42162D01*
X351042Y42241D01*
X350958Y42324D01*
X350952Y42328D01*
X350948Y42331D01*
X350931Y42339D01*
X350811Y42405D01*
X350168Y42671D01*
X347471Y45368D01*
X346011Y48893D01*
X346011Y52707D01*
X347471Y56232D01*
X350168Y58929D01*
X350811Y59195D01*
X350911Y59257D01*
X351011Y59317D01*
X351015Y59322D01*
X351020Y59325D01*
X351095Y59414D01*
X351171Y59504D01*
X351173Y59510D01*
X351177Y59514D01*
X351219Y59622D01*
X351263Y59732D01*
X351264Y59739D01*
X351265Y59744D01*
X351266Y59762D01*
X351281Y59899D01*
X351281Y61396D01*
X351267Y61486D01*
X351259Y61577D01*
X351247Y61607D01*
X351242Y61639D01*
X351199Y61719D01*
X351163Y61803D01*
X351137Y61835D01*
X351126Y61856D01*
X351103Y61878D01*
X351058Y61934D01*
X341334Y71658D01*
X341260Y71711D01*
X341191Y71771D01*
X341161Y71783D01*
X341134Y71802D01*
X341047Y71829D01*
X340963Y71863D01*
X340922Y71867D01*
X340899Y71874D01*
X340867Y71873D01*
X340796Y71881D01*
X137911Y71881D01*
X21081Y188711D01*
X21081Y281189D01*
X23834Y283942D01*
X33558Y293666D01*
X36311Y296419D01*
X86796Y296419D01*
X86886Y296433D01*
X86977Y296441D01*
X87007Y296453D01*
X87039Y296458D01*
X87119Y296501D01*
X87203Y296537D01*
X87235Y296563D01*
X87256Y296574D01*
X87278Y296597D01*
X87334Y296642D01*
X103986Y313294D01*
X104053Y313388D01*
X104124Y313482D01*
X104126Y313488D01*
X104129Y313493D01*
X104164Y313604D01*
X104200Y313716D01*
X104200Y313722D01*
X104202Y313728D01*
X104199Y313845D01*
X104198Y313962D01*
X104196Y313969D01*
X104195Y313974D01*
X104189Y313992D01*
X104151Y314123D01*
X103631Y315378D01*
X103631Y319622D01*
X105255Y323543D01*
X108257Y326545D01*
X109511Y327064D01*
X109611Y327126D01*
X109711Y327186D01*
X109715Y327191D01*
X109720Y327194D01*
X109795Y327283D01*
X109871Y327373D01*
X109873Y327379D01*
X109877Y327383D01*
X109919Y327491D01*
X109963Y327601D01*
X109964Y327608D01*
X109965Y327613D01*
X109966Y327631D01*
X109981Y327768D01*
X109981Y332632D01*
X109962Y332747D01*
X109945Y332863D01*
X109943Y332869D01*
X109942Y332875D01*
X109887Y332978D01*
X109834Y333083D01*
X109829Y333087D01*
X109826Y333093D01*
X109742Y333172D01*
X109658Y333255D01*
X109652Y333259D01*
X109648Y333262D01*
X109631Y333270D01*
X109511Y333336D01*
X108257Y333855D01*
X105255Y336857D01*
X103631Y340778D01*
X103631Y345022D01*
X105255Y348943D01*
X108257Y351945D01*
X112178Y353569D01*
X116422Y353569D01*
X117677Y353049D01*
X117790Y353022D01*
X117904Y352994D01*
X117910Y352994D01*
X117916Y352993D01*
X118033Y353004D01*
X118149Y353013D01*
X118155Y353015D01*
X118161Y353016D01*
X118269Y353064D01*
X118375Y353109D01*
X118381Y353114D01*
X118386Y353116D01*
X118400Y353129D01*
X118506Y353214D01*
X125211Y359919D01*
X232756Y359919D01*
X232826Y359930D01*
X232898Y359932D01*
X232947Y359950D01*
X232998Y359958D01*
X233062Y359992D01*
X233129Y360017D01*
X233170Y360049D01*
X233216Y360074D01*
X233265Y360126D01*
X233321Y360170D01*
X233349Y360214D01*
X233385Y360252D01*
X233415Y360317D01*
X233454Y360377D01*
X233467Y360428D01*
X233489Y360475D01*
X233497Y360546D01*
X233514Y360616D01*
X233510Y360668D01*
X233516Y360719D01*
X233501Y360790D01*
X233495Y360861D01*
X233475Y360909D01*
X233464Y360960D01*
X233427Y361021D01*
X233399Y361087D01*
X233354Y361143D01*
X233337Y361171D01*
X233320Y361186D01*
X233294Y361218D01*
X232255Y362257D01*
X230631Y366178D01*
X230631Y370422D01*
X232255Y374343D01*
X235257Y377345D01*
X239178Y378969D01*
X243422Y378969D01*
X247343Y377345D01*
X250353Y374335D01*
X250400Y374259D01*
X250460Y374159D01*
X250464Y374155D01*
X250468Y374150D01*
X250558Y374075D01*
X250647Y373999D01*
X250652Y373997D01*
X250657Y373993D01*
X250766Y373951D01*
X250875Y373907D01*
X250882Y373906D01*
X250887Y373905D01*
X250905Y373904D01*
X251041Y373889D01*
X255034Y373889D01*
X255149Y373908D01*
X255265Y373925D01*
X255271Y373927D01*
X255277Y373928D01*
X255379Y373983D01*
X255484Y374036D01*
X255489Y374041D01*
X255494Y374044D01*
X255574Y374128D01*
X255656Y374212D01*
X255660Y374218D01*
X255664Y374222D01*
X255671Y374239D01*
X255737Y374359D01*
X256148Y375351D01*
X259649Y378852D01*
X263138Y380297D01*
X263199Y380335D01*
X263264Y380364D01*
X263302Y380399D01*
X263347Y380426D01*
X263392Y380482D01*
X263445Y380530D01*
X263470Y380576D01*
X263504Y380616D01*
X263529Y380683D01*
X263564Y380746D01*
X263573Y380797D01*
X263592Y380845D01*
X263595Y380917D01*
X263608Y380988D01*
X263600Y381039D01*
X263602Y381091D01*
X263582Y381160D01*
X263572Y381231D01*
X263548Y381277D01*
X263534Y381327D01*
X263493Y381386D01*
X263460Y381450D01*
X263423Y381487D01*
X263393Y381529D01*
X263336Y381572D01*
X263285Y381622D01*
X263222Y381657D01*
X263196Y381676D01*
X263174Y381683D01*
X263138Y381703D01*
X259649Y383148D01*
X256148Y386649D01*
X255737Y387641D01*
X255676Y387741D01*
X255616Y387841D01*
X255611Y387845D01*
X255608Y387850D01*
X255518Y387925D01*
X255429Y388001D01*
X255423Y388003D01*
X255418Y388007D01*
X255310Y388049D01*
X255201Y388093D01*
X255193Y388094D01*
X255189Y388095D01*
X255170Y388096D01*
X255034Y388111D01*
X251041Y388111D01*
X250926Y388092D01*
X250810Y388075D01*
X250805Y388073D01*
X250799Y388072D01*
X250696Y388017D01*
X250591Y387964D01*
X250587Y387959D01*
X250581Y387956D01*
X250501Y387872D01*
X250419Y387788D01*
X250415Y387782D01*
X250412Y387778D01*
X250404Y387761D01*
X250349Y387661D01*
X247343Y384655D01*
X243422Y383031D01*
X239178Y383031D01*
X235257Y384655D01*
X232255Y387657D01*
X230631Y391578D01*
X230631Y395822D01*
X232255Y399743D01*
X235257Y402745D01*
X239178Y404369D01*
X243422Y404369D01*
X247343Y402745D01*
X250353Y399735D01*
X250400Y399659D01*
X250460Y399559D01*
X250464Y399555D01*
X250468Y399550D01*
X250558Y399475D01*
X250647Y399399D01*
X250652Y399397D01*
X250657Y399393D01*
X250766Y399351D01*
X250875Y399307D01*
X250882Y399306D01*
X250887Y399305D01*
X250905Y399304D01*
X251041Y399289D01*
X255034Y399289D01*
X255149Y399308D01*
X255265Y399325D01*
X255271Y399327D01*
X255277Y399328D01*
X255379Y399383D01*
X255484Y399436D01*
X255489Y399441D01*
X255494Y399444D01*
X255574Y399528D01*
X255656Y399612D01*
X255660Y399618D01*
X255664Y399622D01*
X255671Y399639D01*
X255737Y399759D01*
X256148Y400751D01*
X259649Y404252D01*
X264224Y406147D01*
X269176Y406147D01*
X273751Y404252D01*
X277252Y400751D01*
X279147Y396176D01*
X279147Y391224D01*
X277252Y386649D01*
X273751Y383148D01*
X270262Y381703D01*
X270201Y381665D01*
X270136Y381636D01*
X270098Y381601D01*
X270053Y381574D01*
X270007Y381518D01*
X269955Y381470D01*
X269930Y381424D01*
X269896Y381384D01*
X269871Y381317D01*
X269836Y381254D01*
X269827Y381203D01*
X269808Y381155D01*
X269805Y381083D01*
X269792Y381012D01*
X269800Y380961D01*
X269798Y380909D01*
X269818Y380840D01*
X269828Y380769D01*
X269852Y380723D01*
X269866Y380673D01*
X269907Y380614D01*
X269940Y380550D01*
X269977Y380513D01*
X270007Y380471D01*
X270064Y380428D01*
X270115Y380378D01*
X270178Y380343D01*
X270204Y380324D01*
X270226Y380317D01*
X270262Y380297D01*
X273751Y378852D01*
X277252Y375351D01*
X279147Y370776D01*
X279147Y365824D01*
X277252Y361249D01*
X277221Y361218D01*
X277179Y361160D01*
X277129Y361108D01*
X277107Y361061D01*
X277077Y361019D01*
X277056Y360950D01*
X277026Y360885D01*
X277020Y360833D01*
X277005Y360784D01*
X277007Y360712D01*
X276999Y360641D01*
X277010Y360590D01*
X277011Y360538D01*
X277036Y360470D01*
X277051Y360400D01*
X277078Y360355D01*
X277095Y360307D01*
X277140Y360251D01*
X277177Y360189D01*
X277217Y360155D01*
X277249Y360115D01*
X277309Y360076D01*
X277364Y360029D01*
X277412Y360010D01*
X277456Y359982D01*
X277526Y359964D01*
X277592Y359937D01*
X277663Y359929D01*
X277695Y359921D01*
X277718Y359923D01*
X277759Y359919D01*
X306589Y359919D01*
X313294Y353214D01*
X313388Y353147D01*
X313482Y353076D01*
X313488Y353074D01*
X313493Y353071D01*
X313604Y353036D01*
X313716Y353000D01*
X313722Y353000D01*
X313728Y352998D01*
X313845Y353001D01*
X313962Y353002D01*
X313969Y353004D01*
X313974Y353005D01*
X313992Y353011D01*
X314123Y353049D01*
X315378Y353569D01*
X319622Y353569D01*
X320877Y353049D01*
X320990Y353022D01*
X321104Y352994D01*
X321110Y352994D01*
X321116Y352993D01*
X321233Y353004D01*
X321349Y353013D01*
X321355Y353015D01*
X321361Y353016D01*
X321469Y353064D01*
X321575Y353109D01*
X321581Y353114D01*
X321586Y353116D01*
X321600Y353129D01*
X321706Y353214D01*
X325658Y357166D01*
X328411Y359919D01*
X435956Y359919D01*
X436026Y359930D01*
X436098Y359932D01*
X436147Y359950D01*
X436198Y359958D01*
X436262Y359992D01*
X436329Y360017D01*
X436370Y360049D01*
X436416Y360074D01*
X436465Y360126D01*
X436521Y360170D01*
X436549Y360214D01*
X436585Y360252D01*
X436615Y360317D01*
X436654Y360377D01*
X436667Y360428D01*
X436689Y360475D01*
X436697Y360546D01*
X436714Y360616D01*
X436710Y360668D01*
X436716Y360719D01*
X436701Y360790D01*
X436695Y360861D01*
X436675Y360909D01*
X436664Y360960D01*
X436627Y361021D01*
X436599Y361087D01*
X436554Y361143D01*
X436537Y361171D01*
X436520Y361186D01*
X436494Y361218D01*
X435455Y362257D01*
X433831Y366178D01*
X433831Y370422D01*
X435455Y374343D01*
X438457Y377345D01*
X442378Y378969D01*
X446622Y378969D01*
X450543Y377345D01*
X453553Y374335D01*
X453600Y374259D01*
X453660Y374159D01*
X453664Y374155D01*
X453668Y374150D01*
X453758Y374075D01*
X453847Y373999D01*
X453852Y373997D01*
X453857Y373993D01*
X453966Y373951D01*
X454075Y373907D01*
X454082Y373906D01*
X454087Y373905D01*
X454105Y373904D01*
X454241Y373889D01*
X458234Y373889D01*
X458349Y373908D01*
X458465Y373925D01*
X458471Y373927D01*
X458477Y373928D01*
X458579Y373983D01*
X458684Y374036D01*
X458689Y374041D01*
X458694Y374044D01*
X458774Y374128D01*
X458856Y374212D01*
X458860Y374218D01*
X458864Y374222D01*
X458871Y374239D01*
X458937Y374359D01*
X459348Y375351D01*
X462849Y378852D01*
X466338Y380297D01*
X466399Y380335D01*
X466464Y380364D01*
X466502Y380399D01*
X466547Y380426D01*
X466592Y380482D01*
X466645Y380530D01*
X466670Y380576D01*
X466704Y380616D01*
X466729Y380683D01*
X466764Y380746D01*
X466773Y380797D01*
X466792Y380845D01*
X466795Y380917D01*
X466808Y380988D01*
X466800Y381039D01*
X466802Y381091D01*
X466782Y381160D01*
X466772Y381231D01*
X466748Y381277D01*
X466734Y381327D01*
X466693Y381386D01*
X466660Y381450D01*
X466623Y381487D01*
X466593Y381529D01*
X466536Y381572D01*
X466485Y381622D01*
X466422Y381657D01*
X466396Y381676D01*
X466374Y381683D01*
X466338Y381703D01*
X462849Y383148D01*
X459348Y386649D01*
X458937Y387641D01*
X458876Y387741D01*
X458816Y387841D01*
X458811Y387845D01*
X458808Y387850D01*
X458718Y387925D01*
X458629Y388001D01*
X458623Y388003D01*
X458618Y388007D01*
X458510Y388049D01*
X458401Y388093D01*
X458393Y388094D01*
X458389Y388095D01*
X458370Y388096D01*
X458234Y388111D01*
X454241Y388111D01*
X454126Y388092D01*
X454010Y388075D01*
X454005Y388073D01*
X453999Y388072D01*
X453896Y388017D01*
X453791Y387964D01*
X453787Y387959D01*
X453781Y387956D01*
X453701Y387872D01*
X453619Y387788D01*
X453615Y387782D01*
X453612Y387778D01*
X453604Y387761D01*
X453549Y387661D01*
X450543Y384655D01*
X446622Y383031D01*
X442378Y383031D01*
X438457Y384655D01*
X435455Y387657D01*
X433831Y391578D01*
X433831Y395822D01*
X435455Y399743D01*
X438457Y402745D01*
X442378Y404369D01*
X446622Y404369D01*
X450543Y402745D01*
X453553Y399735D01*
X453600Y399659D01*
X453660Y399559D01*
X453664Y399555D01*
X453668Y399550D01*
X453758Y399475D01*
X453847Y399399D01*
X453852Y399397D01*
X453857Y399393D01*
X453966Y399351D01*
X454075Y399307D01*
X454082Y399306D01*
X454087Y399305D01*
X454105Y399304D01*
X454241Y399289D01*
X458234Y399289D01*
X458349Y399308D01*
X458465Y399325D01*
X458471Y399327D01*
X458477Y399328D01*
X458579Y399383D01*
X458684Y399436D01*
X458689Y399441D01*
X458694Y399444D01*
X458774Y399528D01*
X458856Y399612D01*
X458860Y399618D01*
X458864Y399622D01*
X458871Y399639D01*
X458937Y399759D01*
X459348Y400751D01*
X462849Y404252D01*
X467424Y406147D01*
X472376Y406147D01*
X476951Y404252D01*
X480452Y400751D01*
X482347Y396176D01*
X482347Y391224D01*
X480452Y386649D01*
X476951Y383148D01*
X473462Y381703D01*
X473401Y381665D01*
X473336Y381636D01*
X473298Y381601D01*
X473253Y381574D01*
X473207Y381518D01*
X473155Y381470D01*
X473130Y381424D01*
X473096Y381384D01*
X473071Y381317D01*
X473036Y381254D01*
X473027Y381203D01*
X473008Y381155D01*
X473005Y381083D01*
X472992Y381012D01*
X473000Y380961D01*
X472998Y380909D01*
X473018Y380840D01*
X473028Y380769D01*
X473052Y380723D01*
X473066Y380673D01*
X473107Y380614D01*
X473140Y380550D01*
X473177Y380513D01*
X473207Y380471D01*
X473264Y380428D01*
X473315Y380378D01*
X473378Y380343D01*
X473404Y380324D01*
X473426Y380317D01*
X473462Y380297D01*
X476951Y378852D01*
X480452Y375351D01*
X482347Y370776D01*
X482347Y365824D01*
X480452Y361249D01*
X480421Y361218D01*
X480379Y361160D01*
X480329Y361108D01*
X480307Y361061D01*
X480277Y361019D01*
X480256Y360950D01*
X480226Y360885D01*
X480220Y360833D01*
X480205Y360784D01*
X480207Y360712D01*
X480199Y360641D01*
X480210Y360590D01*
X480211Y360538D01*
X480236Y360470D01*
X480251Y360400D01*
X480278Y360355D01*
X480295Y360307D01*
X480340Y360251D01*
X480377Y360189D01*
X480417Y360155D01*
X480449Y360115D01*
X480509Y360076D01*
X480564Y360029D01*
X480612Y360010D01*
X480656Y359982D01*
X480726Y359964D01*
X480792Y359937D01*
X480863Y359929D01*
X480895Y359921D01*
X480918Y359923D01*
X480959Y359919D01*
X509789Y359919D01*
X516494Y353214D01*
X516588Y353147D01*
X516682Y353076D01*
X516688Y353074D01*
X516693Y353071D01*
X516804Y353036D01*
X516916Y353000D01*
X516922Y353000D01*
X516928Y352998D01*
X517045Y353001D01*
X517162Y353002D01*
X517169Y353004D01*
X517174Y353005D01*
X517192Y353011D01*
X517323Y353049D01*
X518578Y353569D01*
X522822Y353569D01*
X524077Y353049D01*
X524190Y353022D01*
X524304Y352994D01*
X524310Y352994D01*
X524316Y352993D01*
X524433Y353004D01*
X524549Y353013D01*
X524555Y353015D01*
X524561Y353016D01*
X524669Y353064D01*
X524775Y353109D01*
X524781Y353114D01*
X524786Y353116D01*
X524800Y353129D01*
X524906Y353214D01*
X531611Y359919D01*
X547889Y359919D01*
X560366Y347442D01*
X563119Y344689D01*
X563119Y125211D01*
X547889Y109981D01*
X535504Y109981D01*
X535414Y109967D01*
X535323Y109959D01*
X535293Y109947D01*
X535261Y109942D01*
X535181Y109899D01*
X535097Y109863D01*
X535065Y109837D01*
X535044Y109826D01*
X535022Y109803D01*
X534966Y109758D01*
X531014Y105806D01*
X530946Y105712D01*
X530876Y105618D01*
X530874Y105612D01*
X530871Y105607D01*
X530836Y105496D01*
X530800Y105384D01*
X530800Y105378D01*
X530798Y105372D01*
X530801Y105255D01*
X530802Y105138D01*
X530804Y105131D01*
X530805Y105126D01*
X530811Y105108D01*
X530849Y104977D01*
X531369Y103722D01*
X531369Y99478D01*
X529745Y95557D01*
X526743Y92555D01*
X525489Y92036D01*
X525389Y91974D01*
X525289Y91914D01*
X525285Y91910D01*
X525280Y91906D01*
X525205Y91816D01*
X525129Y91727D01*
X525127Y91722D01*
X525123Y91717D01*
X525081Y91607D01*
X525037Y91499D01*
X525036Y91492D01*
X525035Y91487D01*
X525034Y91469D01*
X525019Y91332D01*
X525019Y86468D01*
X525038Y86353D01*
X525055Y86237D01*
X525057Y86231D01*
X525058Y86225D01*
X525113Y86122D01*
X525166Y86017D01*
X525171Y86013D01*
X525174Y86007D01*
X525258Y85927D01*
X525342Y85845D01*
X525348Y85841D01*
X525352Y85838D01*
X525369Y85830D01*
X525489Y85764D01*
X526743Y85245D01*
X529745Y82243D01*
X531369Y78322D01*
X531369Y74078D01*
X529745Y70157D01*
X526743Y67155D01*
X522822Y65531D01*
X518578Y65531D01*
X514657Y67155D01*
X511655Y70157D01*
X510031Y74078D01*
X510031Y78322D01*
X511655Y82243D01*
X514657Y85245D01*
X515911Y85764D01*
X516011Y85826D01*
X516111Y85886D01*
X516115Y85890D01*
X516120Y85894D01*
X516195Y85984D01*
X516271Y86073D01*
X516273Y86078D01*
X516277Y86083D01*
X516319Y86192D01*
X516363Y86301D01*
X516364Y86308D01*
X516365Y86313D01*
X516366Y86331D01*
X516381Y86468D01*
X516381Y91332D01*
X516362Y91447D01*
X516345Y91563D01*
X516343Y91569D01*
X516342Y91575D01*
X516287Y91678D01*
X516234Y91783D01*
X516229Y91787D01*
X516226Y91793D01*
X516142Y91873D01*
X516058Y91955D01*
X516052Y91959D01*
X516048Y91962D01*
X516031Y91970D01*
X515911Y92036D01*
X514657Y92555D01*
X511655Y95557D01*
X510031Y99478D01*
X510031Y103722D01*
X511655Y107643D01*
X514657Y110645D01*
X518578Y112269D01*
X522822Y112269D01*
X524077Y111749D01*
X524190Y111722D01*
X524304Y111694D01*
X524310Y111694D01*
X524316Y111693D01*
X524433Y111704D01*
X524549Y111713D01*
X524555Y111715D01*
X524561Y111716D01*
X524669Y111764D01*
X524775Y111809D01*
X524781Y111814D01*
X524786Y111816D01*
X524800Y111829D01*
X524906Y111914D01*
X531611Y118619D01*
X543996Y118619D01*
X544086Y118633D01*
X544177Y118641D01*
X544207Y118653D01*
X544239Y118658D01*
X544319Y118701D01*
X544403Y118737D01*
X544435Y118763D01*
X544456Y118774D01*
X544478Y118797D01*
X544534Y118842D01*
X554258Y128566D01*
X554311Y128640D01*
X554371Y128709D01*
X554383Y128739D01*
X554402Y128766D01*
X554429Y128853D01*
X554463Y128937D01*
X554467Y128978D01*
X554474Y129001D01*
X554473Y129033D01*
X554481Y129104D01*
X554481Y340796D01*
X554467Y340886D01*
X554459Y340977D01*
X554447Y341007D01*
X554442Y341039D01*
X554399Y341119D01*
X554363Y341203D01*
X554337Y341235D01*
X554326Y341256D01*
X554303Y341278D01*
X554258Y341334D01*
X544534Y351058D01*
X544460Y351111D01*
X544391Y351171D01*
X544361Y351183D01*
X544334Y351202D01*
X544247Y351229D01*
X544163Y351263D01*
X544122Y351267D01*
X544099Y351274D01*
X544067Y351273D01*
X543996Y351281D01*
X535504Y351281D01*
X535414Y351267D01*
X535323Y351259D01*
X535293Y351247D01*
X535261Y351242D01*
X535181Y351199D01*
X535097Y351163D01*
X535065Y351137D01*
X535044Y351126D01*
X535022Y351103D01*
X534966Y351058D01*
X531014Y347106D01*
X530947Y347012D01*
X530876Y346918D01*
X530874Y346912D01*
X530871Y346907D01*
X530836Y346796D01*
X530800Y346684D01*
X530800Y346678D01*
X530798Y346672D01*
X530801Y346555D01*
X530802Y346438D01*
X530804Y346431D01*
X530805Y346426D01*
X530811Y346408D01*
X530849Y346277D01*
X531369Y345022D01*
X531369Y340778D01*
X529745Y336857D01*
X526743Y333855D01*
X525489Y333336D01*
X525389Y333274D01*
X525289Y333214D01*
X525285Y333209D01*
X525280Y333206D01*
X525205Y333117D01*
X525129Y333027D01*
X525127Y333021D01*
X525123Y333017D01*
X525081Y332909D01*
X525037Y332799D01*
X525036Y332792D01*
X525035Y332787D01*
X525034Y332769D01*
X525019Y332632D01*
X525019Y327768D01*
X525038Y327653D01*
X525055Y327537D01*
X525057Y327531D01*
X525058Y327525D01*
X525113Y327422D01*
X525166Y327317D01*
X525171Y327313D01*
X525174Y327307D01*
X525258Y327228D01*
X525342Y327145D01*
X525348Y327141D01*
X525352Y327138D01*
X525369Y327130D01*
X525489Y327064D01*
X526743Y326545D01*
X529745Y323543D01*
X531369Y319622D01*
X531369Y315378D01*
X529745Y311457D01*
X526743Y308455D01*
X522822Y306831D01*
X518578Y306831D01*
X514657Y308455D01*
X511655Y311457D01*
X510031Y315378D01*
X510031Y319622D01*
X511655Y323543D01*
X514657Y326545D01*
X515911Y327064D01*
X516011Y327126D01*
X516111Y327186D01*
X516115Y327191D01*
X516120Y327194D01*
X516195Y327283D01*
X516271Y327373D01*
X516273Y327379D01*
X516277Y327383D01*
X516319Y327491D01*
X516363Y327601D01*
X516364Y327608D01*
X516365Y327613D01*
X516366Y327631D01*
X516381Y327768D01*
X516381Y332632D01*
X516362Y332747D01*
X516345Y332863D01*
X516343Y332869D01*
X516342Y332875D01*
X516287Y332978D01*
X516234Y333083D01*
X516229Y333087D01*
X516226Y333093D01*
X516142Y333172D01*
X516058Y333255D01*
X516052Y333259D01*
X516048Y333262D01*
X516031Y333270D01*
X515911Y333336D01*
X514657Y333855D01*
X511655Y336857D01*
X510031Y340778D01*
X510031Y345022D01*
X510551Y346277D01*
X510578Y346390D01*
X510606Y346504D01*
X510606Y346510D01*
X510607Y346516D01*
X510596Y346633D01*
X510587Y346749D01*
X510585Y346755D01*
X510584Y346761D01*
X510536Y346869D01*
X510491Y346975D01*
X510486Y346981D01*
X510484Y346986D01*
X510471Y347000D01*
X510386Y347106D01*
X506434Y351058D01*
X506360Y351111D01*
X506291Y351171D01*
X506261Y351183D01*
X506234Y351202D01*
X506147Y351229D01*
X506063Y351263D01*
X506022Y351267D01*
X505999Y351274D01*
X505967Y351273D01*
X505896Y351281D01*
X480959Y351281D01*
X480888Y351270D01*
X480816Y351268D01*
X480768Y351250D01*
X480716Y351242D01*
X480653Y351208D01*
X480585Y351183D01*
X480545Y351151D01*
X480499Y351126D01*
X480449Y351074D01*
X480393Y351030D01*
X480365Y350986D01*
X480329Y350948D01*
X480299Y350883D01*
X480260Y350823D01*
X480248Y350772D01*
X480226Y350725D01*
X480218Y350654D01*
X480200Y350584D01*
X480204Y350532D01*
X480199Y350481D01*
X480214Y350410D01*
X480219Y350339D01*
X480240Y350291D01*
X480251Y350240D01*
X480288Y350179D01*
X480316Y350113D01*
X480361Y350057D01*
X480377Y350029D01*
X480395Y350014D01*
X480421Y349982D01*
X480452Y349951D01*
X482347Y345376D01*
X482347Y340424D01*
X480452Y335849D01*
X476951Y332348D01*
X473462Y330903D01*
X473401Y330865D01*
X473336Y330836D01*
X473298Y330801D01*
X473253Y330774D01*
X473207Y330718D01*
X473155Y330670D01*
X473130Y330624D01*
X473096Y330584D01*
X473071Y330517D01*
X473036Y330454D01*
X473027Y330403D01*
X473008Y330355D01*
X473005Y330283D01*
X472992Y330212D01*
X473000Y330161D01*
X472998Y330109D01*
X473018Y330040D01*
X473028Y329969D01*
X473052Y329923D01*
X473066Y329873D01*
X473107Y329814D01*
X473140Y329750D01*
X473177Y329713D01*
X473207Y329671D01*
X473264Y329628D01*
X473315Y329578D01*
X473378Y329543D01*
X473404Y329524D01*
X473426Y329517D01*
X473462Y329497D01*
X476951Y328052D01*
X480452Y324551D01*
X482347Y319976D01*
X482347Y315024D01*
X480452Y310449D01*
X476951Y306948D01*
X472376Y305053D01*
X467424Y305053D01*
X462849Y306948D01*
X459348Y310449D01*
X458937Y311441D01*
X458876Y311541D01*
X458816Y311641D01*
X458811Y311645D01*
X458808Y311650D01*
X458718Y311725D01*
X458629Y311801D01*
X458623Y311803D01*
X458618Y311807D01*
X458510Y311849D01*
X458401Y311893D01*
X458393Y311894D01*
X458389Y311895D01*
X458370Y311896D01*
X458234Y311911D01*
X454241Y311911D01*
X454126Y311892D01*
X454010Y311875D01*
X454005Y311873D01*
X453999Y311872D01*
X453896Y311817D01*
X453791Y311764D01*
X453787Y311759D01*
X453781Y311756D01*
X453701Y311672D01*
X453619Y311588D01*
X453615Y311582D01*
X453612Y311578D01*
X453604Y311561D01*
X453549Y311461D01*
X450543Y308455D01*
X446622Y306831D01*
X442378Y306831D01*
X438457Y308455D01*
X435455Y311457D01*
X433831Y315378D01*
X433831Y319622D01*
X435455Y323543D01*
X438457Y326545D01*
X442378Y328169D01*
X446622Y328169D01*
X450543Y326545D01*
X453553Y323535D01*
X453600Y323459D01*
X453660Y323359D01*
X453664Y323355D01*
X453668Y323350D01*
X453758Y323275D01*
X453847Y323199D01*
X453852Y323197D01*
X453857Y323193D01*
X453966Y323151D01*
X454075Y323107D01*
X454082Y323106D01*
X454087Y323105D01*
X454105Y323104D01*
X454241Y323089D01*
X458234Y323089D01*
X458349Y323108D01*
X458465Y323125D01*
X458471Y323127D01*
X458477Y323128D01*
X458579Y323183D01*
X458684Y323236D01*
X458689Y323241D01*
X458694Y323244D01*
X458774Y323328D01*
X458856Y323412D01*
X458860Y323418D01*
X458864Y323422D01*
X458871Y323439D01*
X458937Y323559D01*
X459348Y324551D01*
X462849Y328052D01*
X466338Y329497D01*
X466399Y329535D01*
X466464Y329564D01*
X466502Y329599D01*
X466547Y329626D01*
X466592Y329682D01*
X466645Y329730D01*
X466670Y329776D01*
X466704Y329816D01*
X466729Y329883D01*
X466764Y329946D01*
X466773Y329997D01*
X466792Y330045D01*
X466795Y330117D01*
X466808Y330188D01*
X466800Y330239D01*
X466802Y330291D01*
X466782Y330360D01*
X466772Y330431D01*
X466748Y330477D01*
X466734Y330527D01*
X466693Y330586D01*
X466660Y330650D01*
X466623Y330687D01*
X466593Y330729D01*
X466536Y330772D01*
X466485Y330822D01*
X466422Y330857D01*
X466396Y330876D01*
X466374Y330883D01*
X466338Y330903D01*
X462849Y332348D01*
X459348Y335849D01*
X458937Y336841D01*
X458876Y336941D01*
X458816Y337041D01*
X458811Y337045D01*
X458808Y337050D01*
X458718Y337125D01*
X458629Y337201D01*
X458623Y337203D01*
X458618Y337207D01*
X458510Y337249D01*
X458401Y337293D01*
X458393Y337294D01*
X458389Y337295D01*
X458370Y337296D01*
X458234Y337311D01*
X454241Y337311D01*
X454126Y337292D01*
X454010Y337275D01*
X454005Y337273D01*
X453999Y337272D01*
X453896Y337217D01*
X453791Y337164D01*
X453787Y337159D01*
X453781Y337156D01*
X453701Y337072D01*
X453619Y336988D01*
X453615Y336982D01*
X453612Y336978D01*
X453604Y336961D01*
X453549Y336861D01*
X450543Y333855D01*
X446622Y332231D01*
X442378Y332231D01*
X438457Y333855D01*
X435455Y336857D01*
X433831Y340778D01*
X433831Y345022D01*
X435455Y348943D01*
X436494Y349982D01*
X436536Y350040D01*
X436585Y350092D01*
X436607Y350139D01*
X436637Y350181D01*
X436658Y350250D01*
X436689Y350315D01*
X436694Y350367D01*
X436710Y350417D01*
X436708Y350488D01*
X436716Y350559D01*
X436705Y350610D01*
X436703Y350662D01*
X436679Y350730D01*
X436664Y350800D01*
X436637Y350845D01*
X436619Y350893D01*
X436574Y350949D01*
X436537Y351011D01*
X436498Y351045D01*
X436465Y351085D01*
X436405Y351124D01*
X436350Y351171D01*
X436302Y351190D01*
X436258Y351218D01*
X436189Y351236D01*
X436122Y351263D01*
X436051Y351271D01*
X436020Y351279D01*
X435997Y351277D01*
X435956Y351281D01*
X332304Y351281D01*
X332214Y351267D01*
X332123Y351259D01*
X332093Y351247D01*
X332061Y351242D01*
X331981Y351199D01*
X331897Y351163D01*
X331865Y351137D01*
X331844Y351126D01*
X331822Y351103D01*
X331766Y351058D01*
X327814Y347106D01*
X327746Y347012D01*
X327676Y346918D01*
X327674Y346912D01*
X327671Y346907D01*
X327636Y346796D01*
X327600Y346684D01*
X327600Y346678D01*
X327598Y346672D01*
X327601Y346555D01*
X327602Y346438D01*
X327604Y346431D01*
X327605Y346426D01*
X327611Y346408D01*
X327649Y346277D01*
X328169Y345022D01*
X328169Y340778D01*
X326545Y336857D01*
X323543Y333855D01*
X322289Y333336D01*
X322189Y333274D01*
X322089Y333214D01*
X322085Y333209D01*
X322080Y333206D01*
X322005Y333117D01*
X321929Y333027D01*
X321927Y333021D01*
X321923Y333017D01*
X321881Y332909D01*
X321837Y332799D01*
X321836Y332792D01*
X321835Y332787D01*
X321834Y332769D01*
X321819Y332632D01*
X321819Y327768D01*
X321838Y327653D01*
X321855Y327537D01*
X321857Y327531D01*
X321858Y327525D01*
X321913Y327422D01*
X321966Y327317D01*
X321971Y327313D01*
X321974Y327307D01*
X322058Y327227D01*
X322142Y327145D01*
X322148Y327141D01*
X322152Y327138D01*
X322169Y327130D01*
X322289Y327064D01*
X323543Y326545D01*
X326545Y323543D01*
X328169Y319622D01*
X328169Y315378D01*
X326545Y311457D01*
X323543Y308455D01*
X319622Y306831D01*
X315378Y306831D01*
X311457Y308455D01*
X308455Y311457D01*
X306831Y315378D01*
X306831Y319622D01*
X308455Y323543D01*
X311457Y326545D01*
X312711Y327064D01*
X312811Y327126D01*
X312911Y327186D01*
X312915Y327190D01*
X312920Y327194D01*
X312995Y327284D01*
X313071Y327373D01*
X313073Y327378D01*
X313077Y327383D01*
X313119Y327492D01*
X313163Y327601D01*
X313164Y327608D01*
X313165Y327613D01*
X313166Y327631D01*
X313181Y327768D01*
X313181Y332632D01*
X313162Y332747D01*
X313145Y332863D01*
X313143Y332869D01*
X313142Y332875D01*
X313087Y332978D01*
X313034Y333083D01*
X313029Y333087D01*
X313026Y333093D01*
X312942Y333172D01*
X312858Y333255D01*
X312852Y333259D01*
X312848Y333262D01*
X312831Y333270D01*
X312711Y333336D01*
X311457Y333855D01*
X308455Y336857D01*
X306831Y340778D01*
X306831Y345022D01*
X307351Y346277D01*
X307378Y346390D01*
X307406Y346504D01*
X307406Y346510D01*
X307407Y346516D01*
X307396Y346633D01*
X307387Y346749D01*
X307385Y346755D01*
X307384Y346761D01*
X307336Y346869D01*
X307291Y346975D01*
X307286Y346981D01*
X307284Y346986D01*
X307271Y347000D01*
X307186Y347106D01*
X303234Y351058D01*
X303160Y351111D01*
X303091Y351171D01*
X303061Y351183D01*
X303034Y351202D01*
X302947Y351229D01*
X302863Y351263D01*
X302822Y351267D01*
X302799Y351274D01*
X302767Y351273D01*
X302696Y351281D01*
X277759Y351281D01*
X277688Y351270D01*
X277616Y351268D01*
X277568Y351250D01*
X277516Y351242D01*
X277453Y351208D01*
X277385Y351183D01*
X277345Y351151D01*
X277299Y351126D01*
X277249Y351074D01*
X277193Y351030D01*
X277165Y350986D01*
X277129Y350948D01*
X277099Y350883D01*
X277060Y350823D01*
X277048Y350772D01*
X277026Y350725D01*
X277018Y350654D01*
X277000Y350584D01*
X277004Y350532D01*
X276999Y350481D01*
X277014Y350410D01*
X277019Y350339D01*
X277040Y350291D01*
X277051Y350240D01*
X277088Y350179D01*
X277116Y350113D01*
X277161Y350057D01*
X277177Y350029D01*
X277195Y350014D01*
X277221Y349982D01*
X277252Y349951D01*
X279147Y345376D01*
X279147Y340424D01*
X277252Y335849D01*
X273751Y332348D01*
X270262Y330903D01*
X270201Y330865D01*
X270136Y330836D01*
X270098Y330801D01*
X270053Y330774D01*
X270007Y330718D01*
X269955Y330670D01*
X269930Y330624D01*
X269896Y330584D01*
X269871Y330517D01*
X269836Y330454D01*
X269827Y330403D01*
X269808Y330355D01*
X269805Y330283D01*
X269792Y330212D01*
X269800Y330161D01*
X269798Y330109D01*
X269818Y330040D01*
X269828Y329969D01*
X269852Y329923D01*
X269866Y329873D01*
X269907Y329814D01*
X269940Y329750D01*
X269977Y329713D01*
X270007Y329671D01*
X270064Y329628D01*
X270115Y329578D01*
X270178Y329543D01*
X270204Y329524D01*
X270226Y329517D01*
X270262Y329497D01*
X273751Y328052D01*
X277252Y324551D01*
X279147Y319976D01*
X279147Y315024D01*
X277252Y310449D01*
X273751Y306948D01*
X269176Y305053D01*
X264224Y305053D01*
X259649Y306948D01*
X256148Y310449D01*
X255737Y311441D01*
X255676Y311541D01*
X255616Y311641D01*
X255611Y311645D01*
X255608Y311650D01*
X255518Y311725D01*
X255429Y311801D01*
X255423Y311803D01*
X255418Y311807D01*
X255310Y311849D01*
X255201Y311893D01*
X255193Y311894D01*
X255189Y311895D01*
X255170Y311896D01*
X255034Y311911D01*
X251041Y311911D01*
X250926Y311892D01*
X250810Y311875D01*
X250805Y311873D01*
X250799Y311872D01*
X250696Y311817D01*
X250591Y311764D01*
X250587Y311759D01*
X250581Y311756D01*
X250501Y311672D01*
X250419Y311588D01*
X250415Y311582D01*
X250412Y311578D01*
X250404Y311561D01*
X250349Y311461D01*
X247343Y308455D01*
X243422Y306831D01*
X239178Y306831D01*
X235257Y308455D01*
X232255Y311457D01*
X230631Y315378D01*
X230631Y319622D01*
X232255Y323543D01*
X235257Y326545D01*
X239178Y328169D01*
X243422Y328169D01*
X247343Y326545D01*
X250353Y323535D01*
X250400Y323459D01*
X250460Y323359D01*
X250464Y323355D01*
X250468Y323350D01*
X250558Y323275D01*
X250647Y323199D01*
X250652Y323197D01*
X250657Y323193D01*
X250766Y323151D01*
X250875Y323107D01*
X250882Y323106D01*
X250887Y323105D01*
X250905Y323104D01*
X251041Y323089D01*
X255034Y323089D01*
X255149Y323108D01*
X255265Y323125D01*
X255271Y323127D01*
X255277Y323128D01*
X255379Y323183D01*
X255484Y323236D01*
X255489Y323241D01*
X255494Y323244D01*
X255574Y323328D01*
X255656Y323412D01*
X255660Y323418D01*
X255664Y323422D01*
X255671Y323439D01*
X255737Y323559D01*
X256148Y324551D01*
X259649Y328052D01*
X263138Y329497D01*
X263199Y329535D01*
X263264Y329564D01*
X263302Y329599D01*
X263347Y329626D01*
X263392Y329682D01*
X263445Y329730D01*
X263470Y329776D01*
X263504Y329816D01*
X263529Y329883D01*
X263564Y329946D01*
X263573Y329997D01*
X263592Y330045D01*
X263595Y330117D01*
X263608Y330188D01*
X263600Y330239D01*
X263602Y330291D01*
X263582Y330360D01*
X263572Y330431D01*
X263548Y330477D01*
X263534Y330527D01*
X263493Y330586D01*
X263460Y330650D01*
X263423Y330687D01*
X263393Y330729D01*
X263336Y330772D01*
X263285Y330822D01*
X263222Y330857D01*
X263196Y330876D01*
X263174Y330883D01*
X263138Y330903D01*
X259649Y332348D01*
X256148Y335849D01*
X255737Y336841D01*
X255676Y336941D01*
X255616Y337041D01*
X255611Y337045D01*
X255608Y337050D01*
X255518Y337125D01*
X255429Y337201D01*
X255423Y337203D01*
X255418Y337207D01*
X255310Y337249D01*
X255201Y337293D01*
X255193Y337294D01*
X255189Y337295D01*
X255170Y337296D01*
X255034Y337311D01*
X251041Y337311D01*
X250926Y337292D01*
X250810Y337275D01*
X250805Y337273D01*
X250799Y337272D01*
X250696Y337217D01*
X250591Y337164D01*
X250587Y337159D01*
X250581Y337156D01*
X250501Y337072D01*
X250419Y336988D01*
X250415Y336982D01*
X250412Y336978D01*
X250404Y336961D01*
X250349Y336861D01*
X247343Y333855D01*
X243422Y332231D01*
X239178Y332231D01*
X235257Y333855D01*
X232255Y336857D01*
X230631Y340778D01*
X230631Y345022D01*
X232255Y348943D01*
X233294Y349982D01*
X233336Y350040D01*
X233385Y350092D01*
X233407Y350139D01*
X233437Y350181D01*
X233458Y350250D01*
X233489Y350315D01*
X233494Y350367D01*
X233510Y350417D01*
X233508Y350488D01*
X233516Y350559D01*
X233505Y350610D01*
X233503Y350662D01*
X233479Y350730D01*
X233464Y350800D01*
X233437Y350845D01*
X233419Y350893D01*
X233374Y350949D01*
X233337Y351011D01*
X233298Y351045D01*
X233265Y351085D01*
X233205Y351124D01*
X233150Y351171D01*
X233102Y351190D01*
X233058Y351218D01*
X232989Y351236D01*
X232922Y351263D01*
X232851Y351271D01*
X232820Y351279D01*
X232797Y351277D01*
X232756Y351281D01*
X129104Y351281D01*
X129014Y351267D01*
X128923Y351259D01*
X128893Y351247D01*
X128861Y351242D01*
X128781Y351199D01*
X128697Y351163D01*
X128665Y351137D01*
X128644Y351126D01*
X128622Y351103D01*
X128566Y351058D01*
X124614Y347106D01*
X124547Y347012D01*
X124476Y346918D01*
X124474Y346912D01*
X124471Y346907D01*
X124436Y346796D01*
X124400Y346684D01*
X124400Y346678D01*
X124398Y346672D01*
X124401Y346555D01*
X124402Y346438D01*
X124404Y346431D01*
X124405Y346426D01*
X124411Y346408D01*
X124449Y346277D01*
X124969Y345022D01*
X124969Y340778D01*
X123345Y336857D01*
X120343Y333855D01*
X119089Y333336D01*
X118989Y333274D01*
X118889Y333214D01*
X118885Y333209D01*
X118880Y333206D01*
X118805Y333117D01*
X118729Y333027D01*
X118727Y333021D01*
X118723Y333017D01*
X118681Y332909D01*
X118637Y332799D01*
X118636Y332792D01*
X118635Y332787D01*
X118634Y332769D01*
X118619Y332632D01*
X118619Y327768D01*
X118638Y327653D01*
X118655Y327537D01*
X118657Y327531D01*
X118658Y327525D01*
X118713Y327422D01*
X118766Y327317D01*
X118771Y327313D01*
X118774Y327307D01*
X118858Y327228D01*
X118942Y327145D01*
X118948Y327141D01*
X118952Y327138D01*
X118969Y327130D01*
X119089Y327064D01*
X120343Y326545D01*
X123345Y323543D01*
X124969Y319622D01*
X124969Y315378D01*
X123345Y311457D01*
X120343Y308455D01*
X116422Y306831D01*
X112178Y306831D01*
X110923Y307351D01*
X110810Y307378D01*
X110696Y307406D01*
X110690Y307406D01*
X110684Y307407D01*
X110567Y307396D01*
X110451Y307387D01*
X110445Y307385D01*
X110439Y307384D01*
X110331Y307336D01*
X110225Y307291D01*
X110219Y307286D01*
X110214Y307284D01*
X110200Y307271D01*
X110094Y307186D01*
X100626Y297718D01*
X100584Y297660D01*
X100535Y297608D01*
X100513Y297561D01*
X100482Y297519D01*
X100461Y297450D01*
X100431Y297385D01*
X100425Y297333D01*
X100410Y297283D01*
X100412Y297212D01*
X100404Y297141D01*
X100415Y297090D01*
X100416Y297038D01*
X100441Y296970D01*
X100456Y296900D01*
X100483Y296856D01*
X100501Y296807D01*
X100546Y296751D01*
X100582Y296689D01*
X100622Y296655D01*
X100654Y296615D01*
X100715Y296576D01*
X100769Y296529D01*
X100818Y296510D01*
X100861Y296482D01*
X100931Y296464D01*
X100997Y296437D01*
X101069Y296429D01*
X101100Y296421D01*
X101123Y296423D01*
X101164Y296419D01*
X104032Y296419D01*
X104147Y296438D01*
X104263Y296455D01*
X104269Y296457D01*
X104275Y296458D01*
X104378Y296513D01*
X104483Y296566D01*
X104487Y296571D01*
X104493Y296574D01*
X104573Y296658D01*
X104655Y296742D01*
X104659Y296748D01*
X104662Y296752D01*
X104670Y296769D01*
X104736Y296889D01*
X105255Y298143D01*
X108257Y301145D01*
X112178Y302769D01*
X116422Y302769D01*
X120343Y301145D01*
X123345Y298143D01*
X124969Y294222D01*
X124969Y289978D01*
X123345Y286057D01*
X120343Y283055D01*
X116422Y281431D01*
X112178Y281431D01*
X108257Y283055D01*
X105255Y286057D01*
X104736Y287311D01*
X104674Y287411D01*
X104614Y287511D01*
X104610Y287515D01*
X104606Y287520D01*
X104516Y287595D01*
X104427Y287671D01*
X104422Y287673D01*
X104417Y287677D01*
X104308Y287719D01*
X104199Y287763D01*
X104192Y287764D01*
X104187Y287765D01*
X104169Y287766D01*
X104032Y287781D01*
X103704Y287781D01*
X103614Y287767D01*
X103523Y287759D01*
X103493Y287747D01*
X103461Y287742D01*
X103381Y287699D01*
X103297Y287663D01*
X103265Y287637D01*
X103244Y287626D01*
X103222Y287603D01*
X103166Y287558D01*
X93442Y277834D01*
X93389Y277760D01*
X93329Y277691D01*
X93317Y277661D01*
X93298Y277634D01*
X93271Y277547D01*
X93237Y277463D01*
X93233Y277422D01*
X93226Y277399D01*
X93227Y277367D01*
X93219Y277296D01*
X93219Y218004D01*
X93233Y217914D01*
X93241Y217823D01*
X93253Y217793D01*
X93258Y217761D01*
X93301Y217681D01*
X93337Y217597D01*
X93363Y217565D01*
X93374Y217544D01*
X93397Y217522D01*
X93417Y217497D01*
X93420Y217491D01*
X93424Y217488D01*
X93442Y217466D01*
X98220Y212687D01*
X98315Y212619D01*
X98409Y212550D01*
X98415Y212548D01*
X98420Y212544D01*
X98531Y212510D01*
X98643Y212473D01*
X98649Y212473D01*
X98655Y212472D01*
X98772Y212475D01*
X98889Y212476D01*
X98896Y212478D01*
X98901Y212478D01*
X98918Y212484D01*
X99050Y212522D01*
X99693Y212789D01*
X103507Y212789D01*
X107032Y211329D01*
X109729Y208632D01*
X111189Y205107D01*
X111189Y201293D01*
X109729Y197768D01*
X107032Y195071D01*
X103507Y193611D01*
X99693Y193611D01*
X96168Y195071D01*
X93471Y197768D01*
X92011Y201293D01*
X92011Y205107D01*
X92278Y205750D01*
X92304Y205864D01*
X92333Y205977D01*
X92332Y205984D01*
X92334Y205990D01*
X92323Y206106D01*
X92314Y206223D01*
X92311Y206228D01*
X92311Y206235D01*
X92263Y206342D01*
X92217Y206449D01*
X92213Y206455D01*
X92211Y206459D01*
X92198Y206473D01*
X92113Y206580D01*
X84581Y214111D01*
X84581Y281189D01*
X89874Y286482D01*
X89916Y286540D01*
X89965Y286592D01*
X89987Y286639D01*
X90018Y286681D01*
X90039Y286750D01*
X90069Y286815D01*
X90075Y286867D01*
X90090Y286917D01*
X90088Y286988D01*
X90096Y287059D01*
X90085Y287110D01*
X90084Y287162D01*
X90059Y287230D01*
X90044Y287300D01*
X90017Y287345D01*
X89999Y287393D01*
X89954Y287449D01*
X89918Y287511D01*
X89878Y287545D01*
X89846Y287585D01*
X89785Y287624D01*
X89731Y287671D01*
X89682Y287690D01*
X89639Y287718D01*
X89569Y287736D01*
X89503Y287763D01*
X89431Y287771D01*
X89400Y287779D01*
X89377Y287777D01*
X89336Y287781D01*
X40204Y287781D01*
X40114Y287767D01*
X40023Y287759D01*
X39993Y287747D01*
X39961Y287742D01*
X39881Y287699D01*
X39797Y287663D01*
X39765Y287637D01*
X39744Y287626D01*
X39722Y287603D01*
X39666Y287558D01*
X29942Y277834D01*
X29889Y277760D01*
X29829Y277691D01*
X29817Y277661D01*
X29798Y277634D01*
X29771Y277547D01*
X29737Y277463D01*
X29733Y277422D01*
X29726Y277399D01*
X29727Y277367D01*
X29719Y277296D01*
X29719Y192604D01*
X29733Y192514D01*
X29741Y192423D01*
X29753Y192393D01*
X29758Y192361D01*
X29801Y192281D01*
X29837Y192197D01*
X29863Y192165D01*
X29874Y192144D01*
X29897Y192122D01*
X29942Y192066D01*
X141266Y80742D01*
X141340Y80689D01*
X141409Y80629D01*
X141439Y80617D01*
X141466Y80598D01*
X141553Y80571D01*
X141637Y80537D01*
X141678Y80533D01*
X141701Y80526D01*
X141733Y80527D01*
X141804Y80519D01*
X344689Y80519D01*
X359919Y65289D01*
X359919Y59899D01*
X359938Y59784D01*
X359955Y59668D01*
X359957Y59662D01*
X359958Y59656D01*
X360013Y59553D01*
X360066Y59448D01*
X360071Y59444D01*
X360074Y59438D01*
X360158Y59359D01*
X360242Y59276D01*
X360248Y59272D01*
X360252Y59269D01*
X360269Y59261D01*
X360389Y59195D01*
X361032Y58929D01*
X363729Y56232D01*
X365189Y52707D01*
X365189Y48893D01*
X363729Y45368D01*
X361032Y42671D01*
X360389Y42405D01*
X360289Y42343D01*
X360189Y42283D01*
X360185Y42278D01*
X360180Y42275D01*
X360105Y42186D01*
X360029Y42096D01*
X360027Y42090D01*
X360023Y42086D01*
X359981Y41978D01*
X359937Y41868D01*
X359936Y41861D01*
X359935Y41856D01*
X359934Y41838D01*
X359919Y41701D01*
X359919Y29961D01*
X354575Y24617D01*
X354507Y24523D01*
X354437Y24429D01*
X354435Y24423D01*
X354431Y24418D01*
X354397Y24306D01*
X354361Y24195D01*
X354361Y24188D01*
X354359Y24182D01*
X354362Y24066D01*
X354363Y23949D01*
X354365Y23942D01*
X354365Y23937D01*
X354372Y23919D01*
X354410Y23788D01*
X355232Y21802D01*
X355286Y21716D01*
X355334Y21627D01*
X355350Y21612D01*
X355362Y21593D01*
X355440Y21529D01*
X355514Y21460D01*
X355534Y21451D01*
X355551Y21437D01*
X355646Y21400D01*
X355738Y21359D01*
X355760Y21356D01*
X355781Y21348D01*
X355882Y21344D01*
X355983Y21334D01*
X356004Y21339D01*
X356027Y21338D01*
X356124Y21366D01*
X356223Y21389D01*
X356242Y21400D01*
X356263Y21407D01*
X356346Y21464D01*
X356432Y21517D01*
X356447Y21534D01*
X356465Y21547D01*
X356525Y21628D01*
X356590Y21706D01*
X356602Y21731D01*
X356612Y21744D01*
X356622Y21775D01*
X356659Y21859D01*
X357236Y23633D01*
X358089Y25307D01*
X359194Y26828D01*
X360522Y28156D01*
X362043Y29261D01*
X363717Y30114D01*
X365504Y30695D01*
X366777Y30896D01*
X366777Y19812D01*
X366780Y19792D01*
X366778Y19773D01*
X366800Y19671D01*
X366817Y19569D01*
X366826Y19552D01*
X366830Y19532D01*
X366883Y19443D01*
X366932Y19352D01*
X366946Y19338D01*
X366956Y19321D01*
X367035Y19254D01*
X367110Y19183D01*
X367128Y19174D01*
X367143Y19161D01*
X367239Y19123D01*
X367333Y19079D01*
X367353Y19077D01*
X367371Y19069D01*
X367538Y19051D01*
X368301Y19051D01*
X368301Y18288D01*
X368304Y18268D01*
X368302Y18249D01*
X368324Y18147D01*
X368341Y18045D01*
X368350Y18028D01*
X368354Y18008D01*
X368407Y17919D01*
X368456Y17828D01*
X368470Y17814D01*
X368480Y17797D01*
X368559Y17730D01*
X368634Y17659D01*
X368652Y17650D01*
X368667Y17637D01*
X368763Y17598D01*
X368857Y17555D01*
X368877Y17553D01*
X368895Y17545D01*
X369062Y17527D01*
X380146Y17527D01*
X379945Y16254D01*
X379364Y14467D01*
X378511Y12793D01*
X377477Y11369D01*
X377471Y11359D01*
X377463Y11350D01*
X377416Y11249D01*
X377366Y11150D01*
X377365Y11138D01*
X377360Y11127D01*
X377347Y11016D01*
X377332Y10906D01*
X377334Y10894D01*
X377332Y10883D01*
X377356Y10774D01*
X377376Y10664D01*
X377382Y10654D01*
X377385Y10642D01*
X377442Y10547D01*
X377496Y10449D01*
X377505Y10441D01*
X377511Y10431D01*
X377596Y10359D01*
X377678Y10284D01*
X377689Y10279D01*
X377698Y10271D01*
X377801Y10229D01*
X377903Y10185D01*
X377915Y10184D01*
X377926Y10179D01*
X378093Y10161D01*
X689078Y10161D01*
X689098Y10164D01*
X689117Y10162D01*
X689219Y10184D01*
X689321Y10200D01*
X689338Y10210D01*
X689358Y10214D01*
X689447Y10267D01*
X689538Y10316D01*
X689552Y10330D01*
X689569Y10340D01*
X689636Y10419D01*
X689708Y10494D01*
X689716Y10512D01*
X689729Y10527D01*
X689768Y10623D01*
X689811Y10717D01*
X689813Y10737D01*
X689821Y10755D01*
X689839Y10922D01*
X689839Y210198D01*
X689828Y210269D01*
X689826Y210340D01*
X689808Y210389D01*
X689800Y210441D01*
X689766Y210504D01*
X689741Y210571D01*
X689709Y210612D01*
X689684Y210658D01*
X689632Y210707D01*
X689588Y210763D01*
X689544Y210791D01*
X689506Y210827D01*
X689441Y210857D01*
X689381Y210896D01*
X689330Y210909D01*
X689283Y210931D01*
X689212Y210939D01*
X689142Y210956D01*
X689090Y210952D01*
X689039Y210958D01*
X688968Y210943D01*
X688897Y210937D01*
X688849Y210917D01*
X688798Y210906D01*
X688737Y210869D01*
X688671Y210841D01*
X688615Y210796D01*
X688587Y210780D01*
X688572Y210762D01*
X688540Y210736D01*
X677945Y200141D01*
X676266Y198462D01*
X674212Y197611D01*
X657441Y197611D01*
X657326Y197592D01*
X657210Y197575D01*
X657205Y197573D01*
X657199Y197572D01*
X657096Y197517D01*
X656991Y197464D01*
X656987Y197459D01*
X656981Y197456D01*
X656901Y197372D01*
X656819Y197288D01*
X656815Y197282D01*
X656812Y197278D01*
X656804Y197261D01*
X656749Y197161D01*
X653743Y194155D01*
X649822Y192531D01*
X645578Y192531D01*
X641657Y194155D01*
X638655Y197157D01*
X637031Y201078D01*
X637031Y205322D01*
X638655Y209243D01*
X641657Y212245D01*
X645578Y213869D01*
X649822Y213869D01*
X653743Y212245D01*
X656753Y209235D01*
X656800Y209159D01*
X656860Y209059D01*
X656864Y209055D01*
X656868Y209050D01*
X656958Y208975D01*
X657047Y208899D01*
X657052Y208897D01*
X657057Y208893D01*
X657166Y208851D01*
X657275Y208807D01*
X657282Y208806D01*
X657287Y208805D01*
X657305Y208804D01*
X657441Y208789D01*
X670470Y208789D01*
X670560Y208803D01*
X670651Y208811D01*
X670681Y208823D01*
X670712Y208828D01*
X670793Y208871D01*
X670877Y208907D01*
X670909Y208933D01*
X670930Y208944D01*
X670952Y208967D01*
X671008Y209012D01*
X681488Y219492D01*
X681541Y219566D01*
X681601Y219635D01*
X681613Y219666D01*
X681632Y219692D01*
X681659Y219779D01*
X681693Y219864D01*
X681697Y219904D01*
X681704Y219927D01*
X681703Y219959D01*
X681711Y220030D01*
X681711Y306671D01*
X681700Y306742D01*
X681698Y306814D01*
X681680Y306863D01*
X681672Y306914D01*
X681638Y306977D01*
X681613Y307045D01*
X681581Y307085D01*
X681556Y307131D01*
X681505Y307181D01*
X681460Y307237D01*
X681416Y307265D01*
X681378Y307301D01*
X681313Y307331D01*
X681253Y307370D01*
X681202Y307382D01*
X681155Y307404D01*
X681084Y307412D01*
X681014Y307430D01*
X680962Y307426D01*
X680911Y307431D01*
X680840Y307416D01*
X680769Y307411D01*
X680721Y307390D01*
X680670Y307379D01*
X680609Y307342D01*
X680543Y307314D01*
X680487Y307269D01*
X680459Y307253D01*
X680444Y307235D01*
X680412Y307209D01*
X680151Y306948D01*
X675576Y305053D01*
X670624Y305053D01*
X666049Y306948D01*
X662548Y310449D01*
X662137Y311441D01*
X662076Y311541D01*
X662016Y311641D01*
X662011Y311645D01*
X662008Y311650D01*
X661918Y311725D01*
X661829Y311801D01*
X661823Y311803D01*
X661818Y311807D01*
X661710Y311849D01*
X661601Y311893D01*
X661593Y311894D01*
X661589Y311895D01*
X661570Y311896D01*
X661434Y311911D01*
X657441Y311911D01*
X657326Y311892D01*
X657210Y311875D01*
X657205Y311873D01*
X657199Y311872D01*
X657096Y311817D01*
X656991Y311764D01*
X656987Y311759D01*
X656981Y311756D01*
X656901Y311672D01*
X656819Y311588D01*
X656815Y311582D01*
X656812Y311578D01*
X656804Y311561D01*
X656749Y311461D01*
X653743Y308455D01*
X649822Y306831D01*
X645578Y306831D01*
X641657Y308455D01*
X638655Y311457D01*
X637031Y315378D01*
X637031Y319622D01*
X638655Y323543D01*
X641657Y326545D01*
X645578Y328169D01*
X649822Y328169D01*
X653743Y326545D01*
X656753Y323535D01*
X656800Y323459D01*
X656860Y323359D01*
X656864Y323355D01*
X656868Y323350D01*
X656958Y323275D01*
X657047Y323199D01*
X657052Y323197D01*
X657057Y323193D01*
X657166Y323151D01*
X657275Y323107D01*
X657282Y323106D01*
X657287Y323105D01*
X657305Y323104D01*
X657441Y323089D01*
X661434Y323089D01*
X661549Y323107D01*
X661665Y323125D01*
X661671Y323127D01*
X661677Y323128D01*
X661780Y323183D01*
X661884Y323236D01*
X661889Y323241D01*
X661894Y323244D01*
X661975Y323329D01*
X662056Y323412D01*
X662060Y323418D01*
X662064Y323422D01*
X662071Y323439D01*
X662137Y323559D01*
X662548Y324551D01*
X666049Y328052D01*
X669538Y329497D01*
X669599Y329535D01*
X669664Y329564D01*
X669703Y329599D01*
X669747Y329626D01*
X669793Y329682D01*
X669845Y329730D01*
X669870Y329776D01*
X669904Y329816D01*
X669929Y329883D01*
X669964Y329946D01*
X669973Y329997D01*
X669992Y330045D01*
X669995Y330117D01*
X670008Y330188D01*
X670000Y330239D01*
X670002Y330291D01*
X669982Y330360D01*
X669972Y330431D01*
X669948Y330477D01*
X669934Y330527D01*
X669893Y330586D01*
X669860Y330650D01*
X669823Y330687D01*
X669793Y330729D01*
X669736Y330772D01*
X669685Y330822D01*
X669622Y330857D01*
X669596Y330876D01*
X669574Y330883D01*
X669538Y330903D01*
X666049Y332348D01*
X662548Y335849D01*
X662137Y336841D01*
X662076Y336941D01*
X662016Y337041D01*
X662011Y337045D01*
X662008Y337050D01*
X661918Y337125D01*
X661829Y337201D01*
X661823Y337203D01*
X661818Y337207D01*
X661710Y337249D01*
X661601Y337293D01*
X661593Y337294D01*
X661589Y337295D01*
X661570Y337296D01*
X661434Y337311D01*
X657441Y337311D01*
X657326Y337292D01*
X657210Y337275D01*
X657205Y337273D01*
X657199Y337272D01*
X657096Y337217D01*
X656991Y337164D01*
X656987Y337159D01*
X656981Y337156D01*
X656901Y337072D01*
X656819Y336988D01*
X656815Y336982D01*
X656812Y336978D01*
X656804Y336961D01*
X656749Y336861D01*
X653743Y333855D01*
X649822Y332231D01*
X645578Y332231D01*
X641657Y333855D01*
X638655Y336857D01*
X637031Y340778D01*
X637031Y345022D01*
X638655Y348943D01*
X641657Y351945D01*
X645578Y353569D01*
X649822Y353569D01*
X653743Y351945D01*
X656753Y348935D01*
X656800Y348859D01*
X656860Y348759D01*
X656864Y348755D01*
X656868Y348750D01*
X656958Y348675D01*
X657047Y348599D01*
X657052Y348597D01*
X657057Y348593D01*
X657166Y348551D01*
X657275Y348507D01*
X657282Y348506D01*
X657287Y348505D01*
X657305Y348504D01*
X657441Y348489D01*
X661434Y348489D01*
X661549Y348507D01*
X661665Y348525D01*
X661671Y348527D01*
X661677Y348528D01*
X661780Y348583D01*
X661884Y348636D01*
X661889Y348641D01*
X661894Y348644D01*
X661975Y348729D01*
X662056Y348812D01*
X662060Y348818D01*
X662064Y348822D01*
X662071Y348839D01*
X662137Y348959D01*
X662548Y349951D01*
X666049Y353452D01*
X669538Y354897D01*
X669599Y354935D01*
X669664Y354964D01*
X669703Y354999D01*
X669747Y355026D01*
X669793Y355082D01*
X669845Y355130D01*
X669870Y355176D01*
X669904Y355216D01*
X669929Y355283D01*
X669964Y355346D01*
X669973Y355397D01*
X669992Y355445D01*
X669995Y355517D01*
X670008Y355588D01*
X670000Y355639D01*
X670002Y355691D01*
X669982Y355760D01*
X669972Y355831D01*
X669948Y355877D01*
X669934Y355927D01*
X669893Y355986D01*
X669860Y356050D01*
X669823Y356087D01*
X669793Y356129D01*
X669736Y356172D01*
X669685Y356222D01*
X669622Y356257D01*
X669596Y356276D01*
X669574Y356283D01*
X669538Y356303D01*
X666049Y357748D01*
X662548Y361249D01*
X662137Y362241D01*
X662076Y362341D01*
X662016Y362441D01*
X662011Y362445D01*
X662008Y362450D01*
X661918Y362525D01*
X661829Y362601D01*
X661823Y362603D01*
X661818Y362607D01*
X661710Y362649D01*
X661601Y362693D01*
X661593Y362694D01*
X661589Y362695D01*
X661570Y362696D01*
X661434Y362711D01*
X657441Y362711D01*
X657326Y362692D01*
X657210Y362675D01*
X657205Y362673D01*
X657199Y362672D01*
X657096Y362617D01*
X656991Y362564D01*
X656987Y362559D01*
X656981Y362556D01*
X656901Y362472D01*
X656819Y362388D01*
X656815Y362382D01*
X656812Y362378D01*
X656804Y362361D01*
X656749Y362261D01*
X653743Y359255D01*
X649822Y357631D01*
X645578Y357631D01*
X641657Y359255D01*
X638655Y362257D01*
X637031Y366178D01*
X637031Y370422D01*
X638655Y374343D01*
X641657Y377345D01*
X645578Y378969D01*
X649822Y378969D01*
X653743Y377345D01*
X656753Y374335D01*
X656800Y374259D01*
X656860Y374159D01*
X656864Y374155D01*
X656868Y374150D01*
X656958Y374075D01*
X657047Y373999D01*
X657052Y373997D01*
X657057Y373993D01*
X657166Y373951D01*
X657275Y373907D01*
X657282Y373906D01*
X657287Y373905D01*
X657305Y373904D01*
X657441Y373889D01*
X661434Y373889D01*
X661549Y373907D01*
X661665Y373925D01*
X661671Y373927D01*
X661677Y373928D01*
X661780Y373983D01*
X661884Y374036D01*
X661889Y374041D01*
X661894Y374044D01*
X661975Y374129D01*
X662056Y374212D01*
X662060Y374218D01*
X662064Y374222D01*
X662071Y374239D01*
X662137Y374359D01*
X662548Y375351D01*
X666049Y378852D01*
X669538Y380297D01*
X669599Y380335D01*
X669664Y380364D01*
X669702Y380399D01*
X669747Y380426D01*
X669793Y380482D01*
X669845Y380530D01*
X669870Y380576D01*
X669904Y380616D01*
X669929Y380683D01*
X669964Y380746D01*
X669973Y380797D01*
X669992Y380845D01*
X669995Y380917D01*
X670008Y380988D01*
X670000Y381039D01*
X670002Y381091D01*
X669982Y381160D01*
X669972Y381231D01*
X669948Y381277D01*
X669934Y381327D01*
X669893Y381386D01*
X669860Y381450D01*
X669823Y381487D01*
X669793Y381529D01*
X669736Y381572D01*
X669685Y381622D01*
X669622Y381657D01*
X669596Y381676D01*
X669574Y381683D01*
X669538Y381703D01*
X666049Y383148D01*
X662548Y386649D01*
X662137Y387641D01*
X662076Y387741D01*
X662016Y387841D01*
X662011Y387845D01*
X662008Y387850D01*
X661918Y387925D01*
X661829Y388001D01*
X661823Y388003D01*
X661818Y388007D01*
X661710Y388049D01*
X661601Y388093D01*
X661593Y388094D01*
X661589Y388095D01*
X661570Y388096D01*
X661434Y388111D01*
X657441Y388111D01*
X657326Y388092D01*
X657210Y388075D01*
X657205Y388073D01*
X657199Y388072D01*
X657096Y388017D01*
X656991Y387964D01*
X656987Y387959D01*
X656981Y387956D01*
X656901Y387872D01*
X656819Y387788D01*
X656815Y387782D01*
X656812Y387778D01*
X656804Y387761D01*
X656749Y387661D01*
X653743Y384655D01*
X649822Y383031D01*
X645578Y383031D01*
X641657Y384655D01*
X638655Y387657D01*
X637031Y391578D01*
X637031Y395822D01*
X638655Y399743D01*
X641657Y402745D01*
X645578Y404369D01*
X649822Y404369D01*
X653743Y402745D01*
X656753Y399735D01*
X656800Y399659D01*
X656860Y399559D01*
X656864Y399555D01*
X656868Y399550D01*
X656958Y399475D01*
X657047Y399399D01*
X657052Y399397D01*
X657057Y399393D01*
X657166Y399351D01*
X657275Y399307D01*
X657282Y399306D01*
X657287Y399305D01*
X657305Y399304D01*
X657441Y399289D01*
X661434Y399289D01*
X661549Y399308D01*
X661665Y399325D01*
X661671Y399327D01*
X661677Y399328D01*
X661779Y399383D01*
X661884Y399436D01*
X661889Y399441D01*
X661894Y399444D01*
X661974Y399528D01*
X662056Y399612D01*
X662060Y399618D01*
X662064Y399622D01*
X662071Y399639D01*
X662137Y399759D01*
X662548Y400751D01*
X666049Y404252D01*
X670624Y406147D01*
X675576Y406147D01*
X680151Y404252D01*
X680412Y403991D01*
X680470Y403949D01*
X680522Y403899D01*
X680569Y403877D01*
X680611Y403847D01*
X680680Y403826D01*
X680745Y403796D01*
X680797Y403790D01*
X680847Y403775D01*
X680918Y403777D01*
X680989Y403769D01*
X681040Y403780D01*
X681092Y403781D01*
X681160Y403806D01*
X681230Y403821D01*
X681275Y403848D01*
X681323Y403866D01*
X681379Y403910D01*
X681441Y403947D01*
X681475Y403987D01*
X681515Y404019D01*
X681554Y404079D01*
X681601Y404134D01*
X681620Y404182D01*
X681648Y404226D01*
X681666Y404296D01*
X681693Y404362D01*
X681701Y404433D01*
X681709Y404465D01*
X681707Y404488D01*
X681711Y404529D01*
X681711Y429170D01*
X681697Y429260D01*
X681689Y429351D01*
X681677Y429381D01*
X681672Y429412D01*
X681629Y429493D01*
X681593Y429577D01*
X681567Y429609D01*
X681556Y429630D01*
X681533Y429652D01*
X681488Y429708D01*
X672508Y438688D01*
X672434Y438741D01*
X672365Y438801D01*
X672334Y438813D01*
X672308Y438832D01*
X672221Y438859D01*
X672136Y438893D01*
X672096Y438897D01*
X672073Y438904D01*
X672041Y438903D01*
X671970Y438911D01*
X657441Y438911D01*
X657326Y438892D01*
X657210Y438875D01*
X657205Y438873D01*
X657199Y438872D01*
X657096Y438817D01*
X656991Y438764D01*
X656987Y438759D01*
X656981Y438756D01*
X656901Y438672D01*
X656819Y438588D01*
X656815Y438582D01*
X656812Y438578D01*
X656804Y438561D01*
X656749Y438461D01*
X653743Y435455D01*
X649822Y433831D01*
X645578Y433831D01*
X641657Y435455D01*
X638655Y438457D01*
X637031Y442378D01*
X637031Y446634D01*
X637052Y446720D01*
X637080Y446834D01*
X637080Y446840D01*
X637081Y446846D01*
X637070Y446963D01*
X637061Y447079D01*
X637059Y447085D01*
X637058Y447091D01*
X637010Y447199D01*
X636965Y447305D01*
X636960Y447311D01*
X636958Y447316D01*
X636945Y447330D01*
X636860Y447436D01*
X607508Y476788D01*
X607434Y476841D01*
X607365Y476901D01*
X607334Y476913D01*
X607308Y476932D01*
X607221Y476959D01*
X607136Y476993D01*
X607096Y476997D01*
X607073Y477004D01*
X607041Y477003D01*
X606970Y477011D01*
X421730Y477011D01*
X421659Y477000D01*
X421588Y476998D01*
X421539Y476980D01*
X421487Y476972D01*
X421424Y476938D01*
X421357Y476913D01*
X421316Y476881D01*
X421270Y476856D01*
X421221Y476805D01*
X421165Y476760D01*
X421137Y476716D01*
X421101Y476678D01*
X421071Y476613D01*
X421032Y476553D01*
X421019Y476502D01*
X420997Y476455D01*
X420989Y476384D01*
X420972Y476314D01*
X420976Y476262D01*
X420970Y476211D01*
X420985Y476140D01*
X420991Y476069D01*
X421011Y476021D01*
X421022Y475970D01*
X421059Y475909D01*
X421087Y475843D01*
X421132Y475787D01*
X421148Y475759D01*
X421166Y475744D01*
X421192Y475712D01*
X441564Y455340D01*
X441658Y455272D01*
X441752Y455202D01*
X441758Y455200D01*
X441763Y455197D01*
X441874Y455162D01*
X441986Y455126D01*
X441993Y455126D01*
X441998Y455124D01*
X442115Y455127D01*
X442232Y455128D01*
X442239Y455130D01*
X442244Y455131D01*
X442262Y455137D01*
X442371Y455169D01*
X446622Y455169D01*
X450543Y453545D01*
X453545Y450543D01*
X455169Y446622D01*
X455169Y442378D01*
X453545Y438457D01*
X450543Y435455D01*
X446622Y433831D01*
X442378Y433831D01*
X438457Y435455D01*
X435455Y438457D01*
X433831Y442378D01*
X433831Y446634D01*
X433852Y446721D01*
X433880Y446834D01*
X433880Y446840D01*
X433881Y446846D01*
X433870Y446963D01*
X433861Y447079D01*
X433859Y447085D01*
X433858Y447091D01*
X433810Y447199D01*
X433765Y447305D01*
X433760Y447311D01*
X433758Y447316D01*
X433745Y447330D01*
X433660Y447436D01*
X404308Y476788D01*
X404234Y476841D01*
X404165Y476901D01*
X404134Y476913D01*
X404108Y476932D01*
X404021Y476959D01*
X403936Y476993D01*
X403896Y476997D01*
X403873Y477004D01*
X403841Y477003D01*
X403770Y477011D01*
X218530Y477011D01*
X218459Y477000D01*
X218388Y476998D01*
X218339Y476980D01*
X218287Y476972D01*
X218224Y476938D01*
X218157Y476913D01*
X218116Y476881D01*
X218070Y476856D01*
X218021Y476804D01*
X217965Y476760D01*
X217937Y476716D01*
X217901Y476678D01*
X217871Y476613D01*
X217832Y476553D01*
X217819Y476502D01*
X217797Y476455D01*
X217789Y476384D01*
X217772Y476314D01*
X217776Y476262D01*
X217770Y476211D01*
X217785Y476140D01*
X217791Y476069D01*
X217811Y476021D01*
X217822Y475970D01*
X217859Y475909D01*
X217887Y475843D01*
X217932Y475787D01*
X217948Y475759D01*
X217966Y475744D01*
X217992Y475712D01*
X238364Y455340D01*
X238458Y455273D01*
X238552Y455202D01*
X238558Y455200D01*
X238563Y455197D01*
X238674Y455162D01*
X238786Y455126D01*
X238792Y455126D01*
X238798Y455124D01*
X238915Y455127D01*
X239032Y455128D01*
X239039Y455130D01*
X239044Y455131D01*
X239062Y455137D01*
X239171Y455169D01*
X243422Y455169D01*
X247343Y453545D01*
X250345Y450543D01*
X251969Y446622D01*
X251969Y442378D01*
X250345Y438457D01*
X247343Y435455D01*
X243422Y433831D01*
X239178Y433831D01*
X235257Y435455D01*
X232255Y438457D01*
X230631Y442378D01*
X230631Y446634D01*
X230652Y446720D01*
X230680Y446834D01*
X230680Y446840D01*
X230681Y446846D01*
X230670Y446963D01*
X230661Y447079D01*
X230659Y447085D01*
X230658Y447091D01*
X230610Y447199D01*
X230565Y447305D01*
X230560Y447311D01*
X230558Y447316D01*
X230545Y447330D01*
X230460Y447436D01*
X201108Y476788D01*
X201034Y476841D01*
X200965Y476901D01*
X200934Y476913D01*
X200908Y476932D01*
X200821Y476959D01*
X200736Y476993D01*
X200696Y476997D01*
X200673Y477004D01*
X200641Y477003D01*
X200570Y477011D01*
X90260Y477011D01*
X90170Y476997D01*
X90079Y476989D01*
X90049Y476977D01*
X90018Y476972D01*
X89937Y476929D01*
X89853Y476893D01*
X89821Y476867D01*
X89800Y476856D01*
X89778Y476833D01*
X89722Y476788D01*
X75862Y462928D01*
X75836Y462892D01*
X75804Y462863D01*
X75765Y462793D01*
X75718Y462728D01*
X75705Y462686D01*
X75684Y462648D01*
X75669Y462569D01*
X75646Y462493D01*
X75647Y462449D01*
X75639Y462406D01*
X75650Y462327D01*
X75652Y462247D01*
X75667Y462206D01*
X75673Y462163D01*
X75732Y462030D01*
X75736Y462016D01*
X75739Y462014D01*
X75741Y462009D01*
X78493Y457241D01*
X80519Y449683D01*
X80519Y441857D01*
X78493Y434299D01*
X74581Y427522D01*
X69048Y421989D01*
X62271Y418077D01*
X54713Y416051D01*
X46887Y416051D01*
X39329Y418077D01*
X32552Y421989D01*
X27019Y427522D01*
X23107Y434299D01*
X21081Y441857D01*
X21081Y449683D01*
X23107Y457241D01*
X27019Y464018D01*
X32552Y469551D01*
X39329Y473463D01*
X46887Y475489D01*
X54713Y475489D01*
X62271Y473463D01*
X67039Y470711D01*
X67080Y470695D01*
X67117Y470671D01*
X67194Y470652D01*
X67269Y470624D01*
X67313Y470622D01*
X67355Y470611D01*
X67435Y470618D01*
X67515Y470615D01*
X67557Y470627D01*
X67601Y470630D01*
X67674Y470662D01*
X67751Y470684D01*
X67787Y470710D01*
X67827Y470727D01*
X67941Y470818D01*
X67952Y470826D01*
X67954Y470828D01*
X67958Y470832D01*
X82785Y485659D01*
X84464Y487338D01*
X86518Y488189D01*
X610712Y488189D01*
X612766Y487338D01*
X644764Y455340D01*
X644858Y455273D01*
X644952Y455202D01*
X644958Y455200D01*
X644963Y455197D01*
X645074Y455162D01*
X645186Y455126D01*
X645192Y455126D01*
X645198Y455124D01*
X645315Y455127D01*
X645432Y455128D01*
X645439Y455130D01*
X645444Y455131D01*
X645462Y455137D01*
X645571Y455169D01*
X649822Y455169D01*
X653743Y453545D01*
X656753Y450535D01*
X656800Y450459D01*
X656860Y450359D01*
X656864Y450355D01*
X656868Y450350D01*
X656958Y450275D01*
X657047Y450199D01*
X657052Y450197D01*
X657057Y450193D01*
X657166Y450151D01*
X657275Y450107D01*
X657282Y450106D01*
X657287Y450105D01*
X657305Y450104D01*
X657441Y450089D01*
X675712Y450089D01*
X677766Y449238D01*
X688540Y438464D01*
X688598Y438422D01*
X688650Y438373D01*
X688697Y438351D01*
X688739Y438320D01*
X688808Y438299D01*
X688873Y438269D01*
X688925Y438263D01*
X688975Y438248D01*
X689046Y438250D01*
X689117Y438242D01*
X689168Y438253D01*
X689220Y438254D01*
X689288Y438279D01*
X689358Y438294D01*
X689403Y438321D01*
X689451Y438339D01*
X689507Y438384D01*
X689569Y438420D01*
X689603Y438460D01*
X689643Y438493D01*
X689682Y438553D01*
X689729Y438607D01*
X689748Y438656D01*
X689776Y438699D01*
X689794Y438769D01*
X689821Y438835D01*
X689829Y438907D01*
X689837Y438938D01*
X689835Y438961D01*
X689839Y439002D01*
X689839Y489078D01*
X689836Y489098D01*
X689838Y489117D01*
X689816Y489219D01*
X689800Y489321D01*
X689790Y489338D01*
X689786Y489358D01*
X689733Y489447D01*
X689684Y489538D01*
X689670Y489552D01*
X689660Y489569D01*
X689581Y489636D01*
X689506Y489708D01*
X689488Y489716D01*
X689473Y489729D01*
X689377Y489768D01*
X689283Y489811D01*
X689263Y489813D01*
X689245Y489821D01*
X689078Y489839D01*
X10922Y489839D01*
X10902Y489836D01*
X10883Y489838D01*
X10781Y489816D01*
X10679Y489800D01*
X10662Y489790D01*
X10642Y489786D01*
X10553Y489733D01*
X10462Y489684D01*
X10448Y489670D01*
X10431Y489660D01*
X10364Y489581D01*
X10292Y489506D01*
X10284Y489488D01*
X10271Y489473D01*
X10232Y489377D01*
X10189Y489283D01*
X10187Y489263D01*
X10179Y489245D01*
X10161Y489078D01*
X10161Y10922D01*
X10164Y10902D01*
X10162Y10883D01*
X10184Y10781D01*
X10200Y10679D01*
X10210Y10662D01*
X10214Y10642D01*
X10267Y10553D01*
X10316Y10462D01*
X10330Y10448D01*
X10340Y10431D01*
X10419Y10364D01*
X10494Y10292D01*
X10512Y10284D01*
X10527Y10271D01*
X10623Y10232D01*
X10717Y10189D01*
X10737Y10187D01*
X10755Y10179D01*
X10922Y10161D01*
X281549Y10161D01*
X281620Y10172D01*
G37*
%LPC*%
G36*
X518578Y40131D02*
X518578Y40131D01*
X514657Y41755D01*
X511655Y44757D01*
X510031Y48678D01*
X510031Y52922D01*
X510551Y54177D01*
X510578Y54290D01*
X510606Y54404D01*
X510606Y54410D01*
X510607Y54416D01*
X510596Y54533D01*
X510587Y54649D01*
X510585Y54655D01*
X510584Y54661D01*
X510536Y54769D01*
X510491Y54875D01*
X510486Y54881D01*
X510484Y54886D01*
X510471Y54900D01*
X510386Y55006D01*
X473201Y92191D01*
X473201Y190422D01*
X473190Y190492D01*
X473188Y190564D01*
X473170Y190613D01*
X473162Y190664D01*
X473128Y190728D01*
X473103Y190795D01*
X473071Y190836D01*
X473046Y190882D01*
X472994Y190931D01*
X472950Y190987D01*
X472906Y191015D01*
X472868Y191051D01*
X472803Y191081D01*
X472743Y191120D01*
X472692Y191133D01*
X472645Y191155D01*
X472574Y191163D01*
X472504Y191180D01*
X472452Y191176D01*
X472401Y191182D01*
X472330Y191167D01*
X472259Y191161D01*
X472211Y191141D01*
X472160Y191130D01*
X472099Y191093D01*
X472033Y191065D01*
X471977Y191020D01*
X471949Y191003D01*
X471934Y190986D01*
X471902Y190960D01*
X467991Y187050D01*
X460989Y184149D01*
X453411Y184149D01*
X446409Y187050D01*
X441050Y192409D01*
X439587Y195938D01*
X439563Y195977D01*
X439548Y196021D01*
X439499Y196081D01*
X439458Y196147D01*
X439423Y196177D01*
X439394Y196213D01*
X439328Y196255D01*
X439268Y196304D01*
X439226Y196321D01*
X439187Y196346D01*
X439111Y196365D01*
X439039Y196392D01*
X438993Y196394D01*
X438948Y196406D01*
X438871Y196400D01*
X438793Y196403D01*
X438749Y196390D01*
X438703Y196387D01*
X438632Y196356D01*
X438557Y196334D01*
X438519Y196308D01*
X438477Y196290D01*
X438370Y196205D01*
X438355Y196194D01*
X438352Y196190D01*
X438346Y196185D01*
X437232Y195071D01*
X433707Y193611D01*
X429893Y193611D01*
X426368Y195071D01*
X423671Y197768D01*
X422211Y201293D01*
X422211Y205107D01*
X423671Y208632D01*
X426368Y211329D01*
X429893Y212789D01*
X433707Y212789D01*
X437232Y211329D01*
X438346Y210215D01*
X438383Y210188D01*
X438414Y210154D01*
X438483Y210116D01*
X438546Y210071D01*
X438589Y210058D01*
X438630Y210035D01*
X438706Y210022D01*
X438781Y209999D01*
X438827Y210000D01*
X438872Y209992D01*
X438949Y210003D01*
X439027Y210005D01*
X439070Y210021D01*
X439115Y210028D01*
X439184Y210063D01*
X439258Y210090D01*
X439293Y210118D01*
X439334Y210139D01*
X439389Y210195D01*
X439450Y210243D01*
X439474Y210282D01*
X439507Y210315D01*
X439573Y210434D01*
X439583Y210450D01*
X439584Y210455D01*
X439587Y210462D01*
X441050Y213991D01*
X444960Y217902D01*
X445002Y217960D01*
X445051Y218012D01*
X445073Y218059D01*
X445103Y218101D01*
X445125Y218170D01*
X445155Y218235D01*
X445160Y218287D01*
X445176Y218337D01*
X445174Y218408D01*
X445182Y218479D01*
X445171Y218530D01*
X445169Y218582D01*
X445145Y218650D01*
X445130Y218720D01*
X445103Y218765D01*
X445085Y218813D01*
X445040Y218869D01*
X445003Y218931D01*
X444964Y218965D01*
X444931Y219005D01*
X444871Y219044D01*
X444817Y219091D01*
X444768Y219110D01*
X444724Y219138D01*
X444655Y219156D01*
X444588Y219183D01*
X444517Y219191D01*
X444486Y219199D01*
X444463Y219197D01*
X444422Y219201D01*
X263724Y219201D01*
X263634Y219187D01*
X263543Y219179D01*
X263513Y219167D01*
X263481Y219162D01*
X263401Y219119D01*
X263317Y219083D01*
X263285Y219057D01*
X263264Y219046D01*
X263242Y219023D01*
X263186Y218978D01*
X258542Y214334D01*
X258489Y214260D01*
X258429Y214191D01*
X258417Y214161D01*
X258398Y214134D01*
X258371Y214047D01*
X258337Y213963D01*
X258333Y213922D01*
X258326Y213899D01*
X258327Y213867D01*
X258319Y213796D01*
X258319Y212299D01*
X258338Y212184D01*
X258355Y212068D01*
X258357Y212062D01*
X258358Y212056D01*
X258413Y211953D01*
X258466Y211848D01*
X258471Y211844D01*
X258474Y211838D01*
X258558Y211759D01*
X258642Y211676D01*
X258648Y211672D01*
X258652Y211669D01*
X258669Y211661D01*
X258789Y211595D01*
X259432Y211329D01*
X262129Y208632D01*
X263589Y205107D01*
X263589Y201293D01*
X262129Y197768D01*
X259432Y195071D01*
X255907Y193611D01*
X252093Y193611D01*
X248568Y195071D01*
X245871Y197768D01*
X244411Y201293D01*
X244411Y205107D01*
X245871Y208632D01*
X248568Y211329D01*
X249211Y211595D01*
X249311Y211657D01*
X249411Y211717D01*
X249415Y211722D01*
X249420Y211725D01*
X249495Y211814D01*
X249571Y211904D01*
X249573Y211910D01*
X249577Y211914D01*
X249619Y212022D01*
X249663Y212132D01*
X249664Y212139D01*
X249665Y212144D01*
X249666Y212162D01*
X249681Y212299D01*
X249681Y217689D01*
X252434Y220442D01*
X257078Y225086D01*
X258784Y226792D01*
X258826Y226850D01*
X258875Y226902D01*
X258897Y226949D01*
X258928Y226991D01*
X258949Y227060D01*
X258979Y227125D01*
X258985Y227177D01*
X259000Y227227D01*
X258998Y227298D01*
X259006Y227369D01*
X258995Y227420D01*
X258994Y227472D01*
X258969Y227540D01*
X258954Y227610D01*
X258927Y227655D01*
X258909Y227703D01*
X258864Y227759D01*
X258828Y227821D01*
X258788Y227855D01*
X258756Y227895D01*
X258695Y227934D01*
X258641Y227981D01*
X258592Y228000D01*
X258549Y228028D01*
X258479Y228046D01*
X258413Y228073D01*
X258341Y228081D01*
X258310Y228089D01*
X258287Y228087D01*
X258246Y228091D01*
X247214Y228091D01*
X247124Y228077D01*
X247033Y228069D01*
X247003Y228057D01*
X246971Y228052D01*
X246891Y228009D01*
X246807Y227973D01*
X246775Y227947D01*
X246754Y227936D01*
X246732Y227913D01*
X246676Y227868D01*
X233142Y214334D01*
X233089Y214260D01*
X233029Y214191D01*
X233017Y214161D01*
X232998Y214134D01*
X232971Y214047D01*
X232937Y213963D01*
X232933Y213922D01*
X232926Y213899D01*
X232927Y213867D01*
X232919Y213796D01*
X232919Y212299D01*
X232938Y212184D01*
X232955Y212068D01*
X232957Y212062D01*
X232958Y212056D01*
X233013Y211953D01*
X233066Y211848D01*
X233071Y211844D01*
X233074Y211838D01*
X233158Y211759D01*
X233242Y211676D01*
X233248Y211672D01*
X233252Y211669D01*
X233269Y211661D01*
X233389Y211595D01*
X234032Y211329D01*
X236729Y208632D01*
X238189Y205107D01*
X238189Y201293D01*
X236729Y197768D01*
X234032Y195071D01*
X230507Y193611D01*
X226693Y193611D01*
X223168Y195071D01*
X220471Y197768D01*
X219011Y201293D01*
X219011Y205107D01*
X220471Y208632D01*
X223168Y211329D01*
X223811Y211595D01*
X223911Y211657D01*
X224011Y211717D01*
X224015Y211722D01*
X224020Y211725D01*
X224095Y211814D01*
X224171Y211904D01*
X224173Y211910D01*
X224177Y211914D01*
X224219Y212022D01*
X224263Y212132D01*
X224264Y212139D01*
X224265Y212144D01*
X224266Y212162D01*
X224281Y212299D01*
X224281Y217689D01*
X227034Y220442D01*
X242274Y235682D01*
X242316Y235740D01*
X242365Y235792D01*
X242387Y235839D01*
X242418Y235881D01*
X242439Y235950D01*
X242469Y236015D01*
X242475Y236067D01*
X242490Y236117D01*
X242488Y236188D01*
X242496Y236259D01*
X242485Y236310D01*
X242484Y236362D01*
X242459Y236430D01*
X242444Y236500D01*
X242417Y236545D01*
X242399Y236593D01*
X242354Y236649D01*
X242318Y236711D01*
X242278Y236745D01*
X242246Y236785D01*
X242185Y236824D01*
X242131Y236871D01*
X242082Y236890D01*
X242039Y236918D01*
X241969Y236936D01*
X241903Y236963D01*
X241831Y236971D01*
X241800Y236979D01*
X241777Y236977D01*
X241736Y236981D01*
X218004Y236981D01*
X217914Y236967D01*
X217823Y236959D01*
X217793Y236947D01*
X217761Y236942D01*
X217681Y236899D01*
X217597Y236863D01*
X217565Y236837D01*
X217544Y236826D01*
X217522Y236803D01*
X217466Y236758D01*
X207742Y227034D01*
X207689Y226960D01*
X207629Y226891D01*
X207617Y226861D01*
X207598Y226834D01*
X207571Y226747D01*
X207537Y226663D01*
X207533Y226622D01*
X207526Y226599D01*
X207527Y226567D01*
X207519Y226496D01*
X207519Y212299D01*
X207538Y212184D01*
X207555Y212068D01*
X207557Y212062D01*
X207558Y212056D01*
X207613Y211953D01*
X207666Y211848D01*
X207671Y211844D01*
X207674Y211838D01*
X207758Y211759D01*
X207842Y211676D01*
X207848Y211672D01*
X207852Y211669D01*
X207869Y211661D01*
X207989Y211595D01*
X208632Y211329D01*
X211329Y208632D01*
X212789Y205107D01*
X212789Y201293D01*
X211329Y197768D01*
X208632Y195071D01*
X205107Y193611D01*
X201293Y193611D01*
X197768Y195071D01*
X195071Y197768D01*
X193611Y201293D01*
X193611Y205107D01*
X195071Y208632D01*
X197768Y211329D01*
X198411Y211595D01*
X198511Y211657D01*
X198611Y211717D01*
X198615Y211722D01*
X198620Y211725D01*
X198695Y211814D01*
X198771Y211904D01*
X198773Y211910D01*
X198777Y211914D01*
X198819Y212022D01*
X198863Y212132D01*
X198864Y212139D01*
X198865Y212144D01*
X198866Y212162D01*
X198881Y212299D01*
X198881Y230389D01*
X201634Y233142D01*
X210270Y241778D01*
X210312Y241836D01*
X210361Y241888D01*
X210383Y241935D01*
X210414Y241977D01*
X210435Y242046D01*
X210465Y242111D01*
X210471Y242163D01*
X210486Y242213D01*
X210484Y242284D01*
X210492Y242355D01*
X210481Y242406D01*
X210480Y242458D01*
X210455Y242526D01*
X210440Y242596D01*
X210413Y242641D01*
X210395Y242689D01*
X210350Y242745D01*
X210314Y242807D01*
X210274Y242841D01*
X210242Y242881D01*
X210181Y242920D01*
X210127Y242967D01*
X210078Y242986D01*
X210035Y243014D01*
X209965Y243032D01*
X209899Y243059D01*
X209827Y243067D01*
X209796Y243075D01*
X209773Y243073D01*
X209732Y243077D01*
X198700Y243077D01*
X198610Y243063D01*
X198519Y243055D01*
X198489Y243043D01*
X198457Y243038D01*
X198377Y242995D01*
X198293Y242959D01*
X198261Y242933D01*
X198240Y242922D01*
X198218Y242899D01*
X198162Y242854D01*
X182342Y227034D01*
X182289Y226960D01*
X182229Y226891D01*
X182217Y226861D01*
X182198Y226834D01*
X182171Y226747D01*
X182137Y226663D01*
X182133Y226622D01*
X182126Y226599D01*
X182127Y226567D01*
X182119Y226496D01*
X182119Y212299D01*
X182137Y212184D01*
X182155Y212068D01*
X182157Y212062D01*
X182158Y212056D01*
X182213Y211953D01*
X182266Y211848D01*
X182271Y211844D01*
X182274Y211838D01*
X182358Y211758D01*
X182442Y211676D01*
X182448Y211672D01*
X182452Y211669D01*
X182469Y211661D01*
X182589Y211595D01*
X183232Y211329D01*
X185929Y208632D01*
X187389Y205107D01*
X187389Y201293D01*
X185929Y197768D01*
X183232Y195071D01*
X179707Y193611D01*
X175893Y193611D01*
X172368Y195071D01*
X169671Y197768D01*
X168211Y201293D01*
X168211Y205107D01*
X169671Y208632D01*
X172368Y211329D01*
X173011Y211595D01*
X173110Y211657D01*
X173211Y211717D01*
X173215Y211721D01*
X173220Y211725D01*
X173294Y211814D01*
X173371Y211904D01*
X173373Y211910D01*
X173377Y211914D01*
X173419Y212022D01*
X173463Y212132D01*
X173464Y212139D01*
X173465Y212144D01*
X173466Y212162D01*
X173481Y212299D01*
X173481Y230389D01*
X176234Y233142D01*
X191474Y248382D01*
X191516Y248440D01*
X191565Y248492D01*
X191587Y248539D01*
X191618Y248581D01*
X191639Y248650D01*
X191669Y248715D01*
X191675Y248767D01*
X191690Y248817D01*
X191688Y248888D01*
X191696Y248959D01*
X191685Y249010D01*
X191684Y249062D01*
X191659Y249130D01*
X191644Y249200D01*
X191617Y249245D01*
X191599Y249293D01*
X191554Y249349D01*
X191518Y249411D01*
X191478Y249445D01*
X191446Y249485D01*
X191385Y249524D01*
X191331Y249571D01*
X191282Y249590D01*
X191239Y249618D01*
X191169Y249636D01*
X191103Y249663D01*
X191031Y249671D01*
X191000Y249679D01*
X190977Y249677D01*
X190936Y249681D01*
X179904Y249681D01*
X179814Y249667D01*
X179723Y249659D01*
X179693Y249647D01*
X179661Y249642D01*
X179581Y249599D01*
X179497Y249563D01*
X179465Y249537D01*
X179444Y249526D01*
X179422Y249503D01*
X179366Y249458D01*
X156942Y227034D01*
X156889Y226960D01*
X156829Y226891D01*
X156817Y226861D01*
X156798Y226834D01*
X156771Y226747D01*
X156737Y226663D01*
X156733Y226622D01*
X156726Y226599D01*
X156727Y226567D01*
X156719Y226496D01*
X156719Y212299D01*
X156737Y212184D01*
X156755Y212068D01*
X156757Y212062D01*
X156758Y212056D01*
X156813Y211953D01*
X156866Y211848D01*
X156871Y211844D01*
X156874Y211838D01*
X156958Y211758D01*
X157042Y211676D01*
X157048Y211672D01*
X157052Y211669D01*
X157069Y211661D01*
X157189Y211595D01*
X157832Y211329D01*
X160529Y208632D01*
X161989Y205107D01*
X161989Y201293D01*
X160529Y197768D01*
X157832Y195071D01*
X154307Y193611D01*
X150493Y193611D01*
X146968Y195071D01*
X144271Y197768D01*
X142811Y201293D01*
X142811Y205107D01*
X144271Y208632D01*
X146968Y211329D01*
X147611Y211595D01*
X147710Y211657D01*
X147811Y211717D01*
X147815Y211721D01*
X147820Y211725D01*
X147894Y211814D01*
X147971Y211904D01*
X147973Y211910D01*
X147977Y211914D01*
X148019Y212022D01*
X148063Y212132D01*
X148064Y212139D01*
X148065Y212144D01*
X148066Y212162D01*
X148081Y212299D01*
X148081Y230389D01*
X176011Y258319D01*
X233474Y258319D01*
X233545Y258330D01*
X233616Y258332D01*
X233665Y258350D01*
X233717Y258358D01*
X233780Y258392D01*
X233847Y258417D01*
X233888Y258449D01*
X233934Y258474D01*
X233984Y258526D01*
X234039Y258570D01*
X234068Y258614D01*
X234104Y258652D01*
X234134Y258717D01*
X234172Y258777D01*
X234185Y258828D01*
X234207Y258875D01*
X234215Y258946D01*
X234233Y259016D01*
X234228Y259068D01*
X234234Y259119D01*
X234219Y259190D01*
X234213Y259261D01*
X234193Y259309D01*
X234182Y259360D01*
X234145Y259421D01*
X234117Y259487D01*
X234072Y259543D01*
X234056Y259571D01*
X234048Y259578D01*
X234046Y259580D01*
X234035Y259590D01*
X234012Y259618D01*
X233550Y260081D01*
X232610Y261375D01*
X231884Y262800D01*
X231389Y264321D01*
X231254Y265177D01*
X240538Y265177D01*
X240558Y265180D01*
X240577Y265178D01*
X240679Y265200D01*
X240781Y265217D01*
X240798Y265226D01*
X240818Y265230D01*
X240907Y265283D01*
X240998Y265332D01*
X241012Y265346D01*
X241029Y265356D01*
X241096Y265435D01*
X241167Y265510D01*
X241176Y265528D01*
X241189Y265543D01*
X241227Y265639D01*
X241271Y265733D01*
X241273Y265753D01*
X241281Y265771D01*
X241299Y265938D01*
X241299Y266701D01*
X241301Y266701D01*
X241301Y265938D01*
X241304Y265919D01*
X241302Y265901D01*
X241302Y265900D01*
X241302Y265899D01*
X241324Y265797D01*
X241341Y265695D01*
X241350Y265678D01*
X241354Y265658D01*
X241407Y265569D01*
X241456Y265478D01*
X241470Y265464D01*
X241480Y265447D01*
X241559Y265380D01*
X241634Y265309D01*
X241652Y265300D01*
X241667Y265287D01*
X241763Y265248D01*
X241857Y265205D01*
X241877Y265203D01*
X241895Y265195D01*
X242062Y265177D01*
X251346Y265177D01*
X251211Y264321D01*
X250716Y262800D01*
X249990Y261375D01*
X249050Y260081D01*
X248588Y259618D01*
X248546Y259560D01*
X248496Y259508D01*
X248475Y259461D01*
X248444Y259419D01*
X248423Y259350D01*
X248393Y259285D01*
X248387Y259233D01*
X248372Y259183D01*
X248374Y259112D01*
X248366Y259041D01*
X248377Y258990D01*
X248378Y258938D01*
X248403Y258870D01*
X248418Y258800D01*
X248445Y258755D01*
X248463Y258707D01*
X248507Y258651D01*
X248544Y258589D01*
X248584Y258555D01*
X248616Y258515D01*
X248677Y258476D01*
X248731Y258429D01*
X248780Y258410D01*
X248823Y258382D01*
X248893Y258364D01*
X248959Y258337D01*
X249031Y258329D01*
X249062Y258321D01*
X249085Y258323D01*
X249126Y258319D01*
X277296Y258319D01*
X277386Y258333D01*
X277477Y258341D01*
X277507Y258353D01*
X277539Y258358D01*
X277619Y258401D01*
X277703Y258437D01*
X277735Y258463D01*
X277756Y258474D01*
X277764Y258483D01*
X277765Y258483D01*
X277780Y258499D01*
X277834Y258542D01*
X287558Y268266D01*
X287611Y268340D01*
X287671Y268409D01*
X287683Y268439D01*
X287702Y268466D01*
X287729Y268553D01*
X287763Y268637D01*
X287767Y268678D01*
X287774Y268701D01*
X287773Y268733D01*
X287781Y268804D01*
X287781Y281189D01*
X303011Y296419D01*
X307232Y296419D01*
X307347Y296438D01*
X307463Y296455D01*
X307469Y296457D01*
X307475Y296458D01*
X307578Y296513D01*
X307683Y296566D01*
X307687Y296571D01*
X307693Y296574D01*
X307773Y296658D01*
X307855Y296742D01*
X307859Y296748D01*
X307862Y296752D01*
X307870Y296769D01*
X307936Y296889D01*
X308455Y298143D01*
X311457Y301145D01*
X315378Y302769D01*
X319622Y302769D01*
X323543Y301145D01*
X326545Y298143D01*
X328169Y294222D01*
X328169Y289978D01*
X326545Y286057D01*
X323543Y283055D01*
X319622Y281431D01*
X315378Y281431D01*
X311457Y283055D01*
X308455Y286057D01*
X307936Y287311D01*
X307874Y287411D01*
X307814Y287511D01*
X307810Y287515D01*
X307806Y287520D01*
X307716Y287595D01*
X307627Y287671D01*
X307622Y287673D01*
X307617Y287677D01*
X307508Y287719D01*
X307399Y287763D01*
X307392Y287764D01*
X307387Y287765D01*
X307369Y287766D01*
X307232Y287781D01*
X306904Y287781D01*
X306814Y287767D01*
X306723Y287759D01*
X306693Y287747D01*
X306661Y287742D01*
X306581Y287699D01*
X306497Y287663D01*
X306465Y287637D01*
X306444Y287626D01*
X306422Y287603D01*
X306366Y287558D01*
X296642Y277834D01*
X296589Y277760D01*
X296529Y277691D01*
X296517Y277661D01*
X296498Y277634D01*
X296471Y277547D01*
X296437Y277463D01*
X296433Y277422D01*
X296426Y277399D01*
X296427Y277367D01*
X296419Y277296D01*
X296419Y264911D01*
X293666Y262158D01*
X284522Y253014D01*
X284480Y252956D01*
X284431Y252904D01*
X284409Y252857D01*
X284378Y252815D01*
X284357Y252746D01*
X284327Y252681D01*
X284321Y252629D01*
X284306Y252579D01*
X284308Y252508D01*
X284300Y252437D01*
X284311Y252386D01*
X284312Y252334D01*
X284337Y252266D01*
X284352Y252196D01*
X284379Y252152D01*
X284397Y252103D01*
X284442Y252047D01*
X284478Y251985D01*
X284518Y251951D01*
X284550Y251911D01*
X284611Y251872D01*
X284665Y251825D01*
X284714Y251806D01*
X284757Y251778D01*
X284827Y251760D01*
X284893Y251733D01*
X284965Y251725D01*
X284996Y251717D01*
X285019Y251719D01*
X285060Y251715D01*
X296092Y251715D01*
X296182Y251729D01*
X296273Y251737D01*
X296303Y251749D01*
X296335Y251754D01*
X296415Y251797D01*
X296499Y251833D01*
X296531Y251859D01*
X296552Y251870D01*
X296574Y251893D01*
X296630Y251938D01*
X307186Y262494D01*
X307253Y262588D01*
X307324Y262682D01*
X307326Y262688D01*
X307329Y262693D01*
X307364Y262804D01*
X307400Y262916D01*
X307400Y262922D01*
X307402Y262928D01*
X307399Y263045D01*
X307398Y263162D01*
X307396Y263169D01*
X307395Y263174D01*
X307389Y263192D01*
X307351Y263323D01*
X306831Y264578D01*
X306831Y268822D01*
X308455Y272743D01*
X311457Y275745D01*
X315378Y277369D01*
X319622Y277369D01*
X323543Y275745D01*
X326545Y272743D01*
X328169Y268822D01*
X328169Y264578D01*
X326545Y260657D01*
X323543Y257655D01*
X319622Y256031D01*
X315378Y256031D01*
X314123Y256551D01*
X314010Y256578D01*
X313896Y256606D01*
X313890Y256606D01*
X313884Y256607D01*
X313767Y256596D01*
X313651Y256587D01*
X313645Y256585D01*
X313639Y256584D01*
X313531Y256536D01*
X313425Y256491D01*
X313419Y256486D01*
X313414Y256484D01*
X313400Y256471D01*
X313294Y256386D01*
X303826Y246918D01*
X303784Y246860D01*
X303735Y246808D01*
X303713Y246761D01*
X303682Y246719D01*
X303661Y246650D01*
X303631Y246585D01*
X303625Y246533D01*
X303610Y246483D01*
X303612Y246412D01*
X303604Y246341D01*
X303615Y246290D01*
X303616Y246238D01*
X303641Y246170D01*
X303656Y246100D01*
X303683Y246055D01*
X303701Y246007D01*
X303746Y245951D01*
X303782Y245889D01*
X303822Y245855D01*
X303854Y245815D01*
X303915Y245776D01*
X303969Y245729D01*
X304018Y245710D01*
X304061Y245682D01*
X304131Y245664D01*
X304197Y245637D01*
X304269Y245629D01*
X304300Y245621D01*
X304323Y245623D01*
X304364Y245619D01*
X480496Y245619D01*
X480586Y245633D01*
X480677Y245641D01*
X480707Y245653D01*
X480739Y245658D01*
X480819Y245701D01*
X480903Y245737D01*
X480935Y245763D01*
X480956Y245774D01*
X480978Y245797D01*
X481034Y245842D01*
X490758Y255566D01*
X490811Y255640D01*
X490871Y255709D01*
X490883Y255739D01*
X490902Y255766D01*
X490929Y255853D01*
X490963Y255937D01*
X490967Y255978D01*
X490974Y256001D01*
X490973Y256033D01*
X490981Y256104D01*
X490981Y281189D01*
X506211Y296419D01*
X510432Y296419D01*
X510547Y296438D01*
X510663Y296455D01*
X510669Y296457D01*
X510675Y296458D01*
X510778Y296513D01*
X510883Y296566D01*
X510887Y296571D01*
X510893Y296574D01*
X510972Y296658D01*
X511055Y296742D01*
X511059Y296748D01*
X511062Y296752D01*
X511070Y296769D01*
X511136Y296889D01*
X511655Y298143D01*
X514657Y301145D01*
X518578Y302769D01*
X522822Y302769D01*
X526743Y301145D01*
X529745Y298143D01*
X531369Y294222D01*
X531369Y289978D01*
X529745Y286057D01*
X526743Y283055D01*
X522822Y281431D01*
X518578Y281431D01*
X514657Y283055D01*
X511655Y286057D01*
X511136Y287311D01*
X511074Y287411D01*
X511014Y287511D01*
X511009Y287515D01*
X511006Y287520D01*
X510917Y287595D01*
X510827Y287671D01*
X510821Y287673D01*
X510817Y287677D01*
X510709Y287719D01*
X510599Y287763D01*
X510592Y287764D01*
X510587Y287765D01*
X510569Y287766D01*
X510432Y287781D01*
X510104Y287781D01*
X510014Y287767D01*
X509923Y287759D01*
X509893Y287747D01*
X509861Y287742D01*
X509781Y287699D01*
X509697Y287663D01*
X509665Y287637D01*
X509644Y287626D01*
X509622Y287603D01*
X509566Y287558D01*
X499842Y277834D01*
X499789Y277760D01*
X499729Y277691D01*
X499717Y277661D01*
X499698Y277634D01*
X499671Y277547D01*
X499637Y277463D01*
X499633Y277422D01*
X499626Y277399D01*
X499627Y277367D01*
X499619Y277296D01*
X499619Y253564D01*
X499630Y253493D01*
X499632Y253422D01*
X499650Y253373D01*
X499658Y253321D01*
X499692Y253258D01*
X499717Y253191D01*
X499749Y253150D01*
X499774Y253104D01*
X499825Y253055D01*
X499870Y252999D01*
X499914Y252970D01*
X499952Y252935D01*
X500017Y252904D01*
X500077Y252866D01*
X500128Y252853D01*
X500175Y252831D01*
X500246Y252823D01*
X500316Y252806D01*
X500368Y252810D01*
X500419Y252804D01*
X500490Y252819D01*
X500561Y252825D01*
X500609Y252845D01*
X500660Y252856D01*
X500721Y252893D01*
X500787Y252921D01*
X500843Y252966D01*
X500871Y252982D01*
X500886Y253000D01*
X500918Y253026D01*
X510386Y262494D01*
X510453Y262588D01*
X510524Y262682D01*
X510526Y262688D01*
X510529Y262693D01*
X510563Y262803D01*
X510600Y262916D01*
X510600Y262922D01*
X510602Y262928D01*
X510599Y263045D01*
X510598Y263162D01*
X510596Y263169D01*
X510595Y263174D01*
X510589Y263192D01*
X510551Y263323D01*
X510031Y264578D01*
X510031Y268822D01*
X511655Y272743D01*
X514657Y275745D01*
X518578Y277369D01*
X522822Y277369D01*
X526743Y275745D01*
X529745Y272743D01*
X531369Y268822D01*
X531369Y264578D01*
X529745Y260657D01*
X526743Y257655D01*
X522822Y256031D01*
X518578Y256031D01*
X517323Y256551D01*
X517210Y256578D01*
X517096Y256606D01*
X517090Y256606D01*
X517084Y256607D01*
X516967Y256596D01*
X516851Y256587D01*
X516845Y256585D01*
X516839Y256584D01*
X516731Y256536D01*
X516625Y256491D01*
X516619Y256486D01*
X516614Y256484D01*
X516600Y256471D01*
X516494Y256386D01*
X490952Y230844D01*
X488199Y228091D01*
X468991Y228091D01*
X468920Y228080D01*
X468849Y228078D01*
X468800Y228060D01*
X468748Y228052D01*
X468685Y228018D01*
X468618Y227993D01*
X468577Y227961D01*
X468531Y227936D01*
X468482Y227884D01*
X468426Y227840D01*
X468397Y227796D01*
X468362Y227758D01*
X468331Y227693D01*
X468293Y227633D01*
X468280Y227582D01*
X468258Y227535D01*
X468250Y227464D01*
X468232Y227394D01*
X468237Y227342D01*
X468231Y227291D01*
X468246Y227220D01*
X468252Y227149D01*
X468272Y227101D01*
X468283Y227050D01*
X468320Y226989D01*
X468348Y226923D01*
X468393Y226867D01*
X468409Y226839D01*
X468427Y226824D01*
X468453Y226792D01*
X481839Y213406D01*
X481839Y96084D01*
X481853Y95994D01*
X481861Y95903D01*
X481873Y95873D01*
X481878Y95841D01*
X481921Y95761D01*
X481957Y95677D01*
X481983Y95645D01*
X481994Y95624D01*
X482017Y95602D01*
X482062Y95546D01*
X516494Y61114D01*
X516588Y61047D01*
X516682Y60976D01*
X516688Y60974D01*
X516693Y60971D01*
X516804Y60936D01*
X516916Y60900D01*
X516922Y60900D01*
X516928Y60898D01*
X517045Y60901D01*
X517162Y60902D01*
X517169Y60904D01*
X517174Y60905D01*
X517192Y60911D01*
X517323Y60949D01*
X518578Y61469D01*
X522822Y61469D01*
X526743Y59845D01*
X529745Y56843D01*
X531369Y52922D01*
X531369Y48678D01*
X529745Y44757D01*
X526743Y41755D01*
X522822Y40131D01*
X518578Y40131D01*
G37*
%LPD*%
%LPC*%
G36*
X645578Y167131D02*
X645578Y167131D01*
X641657Y168755D01*
X638647Y171765D01*
X638600Y171841D01*
X638540Y171941D01*
X638536Y171945D01*
X638532Y171950D01*
X638442Y172025D01*
X638353Y172101D01*
X638348Y172103D01*
X638343Y172107D01*
X638234Y172149D01*
X638125Y172193D01*
X638118Y172194D01*
X638113Y172195D01*
X638095Y172196D01*
X637959Y172211D01*
X633888Y172211D01*
X631834Y173062D01*
X617562Y187334D01*
X616711Y189388D01*
X616711Y394812D01*
X617562Y396866D01*
X636860Y416164D01*
X636907Y416229D01*
X636917Y416240D01*
X636922Y416250D01*
X636927Y416258D01*
X636998Y416352D01*
X637000Y416358D01*
X637003Y416363D01*
X637038Y416474D01*
X637074Y416586D01*
X637074Y416592D01*
X637076Y416598D01*
X637073Y416715D01*
X637072Y416832D01*
X637070Y416839D01*
X637069Y416844D01*
X637063Y416862D01*
X637031Y416971D01*
X637031Y421234D01*
X637052Y421320D01*
X637080Y421434D01*
X637080Y421440D01*
X637081Y421446D01*
X637070Y421563D01*
X637061Y421679D01*
X637059Y421685D01*
X637058Y421691D01*
X637010Y421799D01*
X636965Y421905D01*
X636960Y421911D01*
X636958Y421916D01*
X636945Y421930D01*
X636860Y422036D01*
X594808Y464088D01*
X594734Y464141D01*
X594665Y464201D01*
X594634Y464213D01*
X594608Y464232D01*
X594521Y464259D01*
X594436Y464293D01*
X594396Y464297D01*
X594373Y464304D01*
X594341Y464303D01*
X594270Y464311D01*
X497930Y464311D01*
X497840Y464297D01*
X497749Y464289D01*
X497719Y464277D01*
X497688Y464272D01*
X497607Y464229D01*
X497523Y464193D01*
X497491Y464167D01*
X497470Y464156D01*
X497448Y464133D01*
X497392Y464088D01*
X455340Y422036D01*
X455272Y421942D01*
X455202Y421848D01*
X455200Y421842D01*
X455197Y421837D01*
X455162Y421726D01*
X455126Y421614D01*
X455126Y421607D01*
X455124Y421602D01*
X455127Y421485D01*
X455128Y421368D01*
X455130Y421361D01*
X455131Y421356D01*
X455137Y421338D01*
X455169Y421229D01*
X455169Y416978D01*
X453545Y413057D01*
X450543Y410055D01*
X446622Y408431D01*
X442378Y408431D01*
X438457Y410055D01*
X435455Y413057D01*
X433831Y416978D01*
X433831Y421234D01*
X433852Y421321D01*
X433880Y421434D01*
X433880Y421440D01*
X433881Y421446D01*
X433870Y421563D01*
X433861Y421679D01*
X433859Y421685D01*
X433858Y421691D01*
X433810Y421799D01*
X433765Y421905D01*
X433760Y421911D01*
X433758Y421916D01*
X433745Y421930D01*
X433660Y422036D01*
X391608Y464088D01*
X391534Y464141D01*
X391465Y464201D01*
X391434Y464213D01*
X391408Y464232D01*
X391321Y464259D01*
X391236Y464293D01*
X391196Y464297D01*
X391173Y464304D01*
X391141Y464303D01*
X391070Y464311D01*
X294730Y464311D01*
X294640Y464297D01*
X294549Y464289D01*
X294519Y464277D01*
X294488Y464272D01*
X294407Y464229D01*
X294323Y464193D01*
X294291Y464167D01*
X294270Y464156D01*
X294248Y464133D01*
X294192Y464088D01*
X252140Y422036D01*
X252072Y421942D01*
X252002Y421848D01*
X252000Y421842D01*
X251997Y421837D01*
X251962Y421726D01*
X251926Y421614D01*
X251926Y421607D01*
X251924Y421602D01*
X251927Y421485D01*
X251928Y421368D01*
X251930Y421361D01*
X251931Y421356D01*
X251937Y421338D01*
X251969Y421229D01*
X251969Y416978D01*
X250345Y413057D01*
X247343Y410055D01*
X243422Y408431D01*
X239166Y408431D01*
X239080Y408452D01*
X238966Y408480D01*
X238960Y408480D01*
X238954Y408481D01*
X238837Y408470D01*
X238721Y408461D01*
X238715Y408459D01*
X238709Y408458D01*
X238601Y408410D01*
X238495Y408365D01*
X238489Y408360D01*
X238484Y408358D01*
X238470Y408345D01*
X238364Y408260D01*
X206366Y376262D01*
X204312Y375411D01*
X124041Y375411D01*
X123996Y375404D01*
X123950Y375406D01*
X123875Y375384D01*
X123799Y375372D01*
X123758Y375350D01*
X123714Y375337D01*
X123650Y375293D01*
X123581Y375256D01*
X123550Y375223D01*
X123512Y375197D01*
X123466Y375134D01*
X123412Y375078D01*
X123393Y375036D01*
X123365Y375000D01*
X123341Y374926D01*
X123308Y374855D01*
X123303Y374809D01*
X123289Y374766D01*
X123290Y374688D01*
X123281Y374611D01*
X123291Y374566D01*
X123291Y374520D01*
X123330Y374388D01*
X123333Y374370D01*
X123336Y374366D01*
X123338Y374359D01*
X124969Y370422D01*
X124969Y366178D01*
X123345Y362257D01*
X120343Y359255D01*
X116422Y357631D01*
X112178Y357631D01*
X108257Y359255D01*
X105255Y362257D01*
X103631Y366178D01*
X103631Y370422D01*
X105262Y374359D01*
X105272Y374403D01*
X105292Y374445D01*
X105300Y374522D01*
X105318Y374598D01*
X105314Y374644D01*
X105319Y374689D01*
X105302Y374766D01*
X105295Y374843D01*
X105276Y374885D01*
X105267Y374930D01*
X105227Y374997D01*
X105195Y375068D01*
X105164Y375102D01*
X105140Y375141D01*
X105081Y375192D01*
X105029Y375249D01*
X104988Y375271D01*
X104953Y375301D01*
X104881Y375330D01*
X104813Y375367D01*
X104768Y375376D01*
X104725Y375393D01*
X104589Y375408D01*
X104571Y375411D01*
X104566Y375410D01*
X104559Y375411D01*
X83820Y375411D01*
X83800Y375408D01*
X83781Y375410D01*
X83679Y375388D01*
X83577Y375372D01*
X83560Y375362D01*
X83540Y375358D01*
X83451Y375305D01*
X83360Y375256D01*
X83346Y375242D01*
X83329Y375232D01*
X83262Y375153D01*
X83190Y375078D01*
X83182Y375060D01*
X83169Y375045D01*
X83130Y374949D01*
X83087Y374855D01*
X83085Y374835D01*
X83077Y374817D01*
X83059Y374650D01*
X83059Y337827D01*
X81273Y336041D01*
X20327Y336041D01*
X18541Y337827D01*
X18541Y398773D01*
X20327Y400559D01*
X81273Y400559D01*
X83059Y398773D01*
X83059Y387350D01*
X83062Y387330D01*
X83060Y387311D01*
X83082Y387209D01*
X83098Y387107D01*
X83108Y387090D01*
X83112Y387070D01*
X83165Y386981D01*
X83214Y386890D01*
X83228Y386876D01*
X83238Y386859D01*
X83317Y386792D01*
X83392Y386720D01*
X83410Y386712D01*
X83425Y386699D01*
X83521Y386660D01*
X83615Y386617D01*
X83635Y386615D01*
X83653Y386607D01*
X83820Y386589D01*
X104559Y386589D01*
X104604Y386596D01*
X104650Y386594D01*
X104725Y386616D01*
X104801Y386628D01*
X104842Y386650D01*
X104886Y386663D01*
X104950Y386707D01*
X105019Y386744D01*
X105050Y386777D01*
X105088Y386803D01*
X105134Y386866D01*
X105188Y386922D01*
X105207Y386964D01*
X105235Y387000D01*
X105259Y387074D01*
X105292Y387145D01*
X105297Y387191D01*
X105311Y387234D01*
X105310Y387312D01*
X105319Y387389D01*
X105309Y387434D01*
X105309Y387480D01*
X105270Y387612D01*
X105267Y387630D01*
X105264Y387634D01*
X105262Y387641D01*
X103631Y391578D01*
X103631Y395822D01*
X105255Y399743D01*
X108257Y402745D01*
X112178Y404369D01*
X116422Y404369D01*
X120343Y402745D01*
X123345Y399743D01*
X124969Y395822D01*
X124969Y391578D01*
X123338Y387641D01*
X123328Y387597D01*
X123308Y387555D01*
X123300Y387478D01*
X123282Y387402D01*
X123286Y387356D01*
X123281Y387311D01*
X123298Y387234D01*
X123305Y387157D01*
X123324Y387115D01*
X123333Y387070D01*
X123373Y387003D01*
X123405Y386932D01*
X123436Y386898D01*
X123460Y386859D01*
X123519Y386808D01*
X123571Y386751D01*
X123612Y386729D01*
X123647Y386699D01*
X123719Y386670D01*
X123787Y386633D01*
X123832Y386624D01*
X123875Y386607D01*
X124011Y386592D01*
X124029Y386589D01*
X124034Y386590D01*
X124041Y386589D01*
X200570Y386589D01*
X200660Y386603D01*
X200751Y386611D01*
X200781Y386623D01*
X200812Y386628D01*
X200893Y386671D01*
X200977Y386707D01*
X201009Y386733D01*
X201030Y386744D01*
X201052Y386767D01*
X201108Y386812D01*
X230460Y416164D01*
X230507Y416229D01*
X230517Y416240D01*
X230522Y416250D01*
X230527Y416258D01*
X230598Y416352D01*
X230600Y416358D01*
X230603Y416363D01*
X230638Y416474D01*
X230674Y416586D01*
X230674Y416592D01*
X230676Y416598D01*
X230673Y416715D01*
X230672Y416832D01*
X230670Y416839D01*
X230669Y416844D01*
X230663Y416862D01*
X230631Y416971D01*
X230631Y421222D01*
X232255Y425143D01*
X235257Y428145D01*
X239178Y429769D01*
X243434Y429769D01*
X243521Y429748D01*
X243634Y429720D01*
X243640Y429720D01*
X243646Y429719D01*
X243763Y429730D01*
X243879Y429739D01*
X243885Y429741D01*
X243891Y429742D01*
X243999Y429790D01*
X244105Y429835D01*
X244111Y429840D01*
X244116Y429842D01*
X244130Y429855D01*
X244236Y429940D01*
X287255Y472959D01*
X288934Y474638D01*
X290988Y475489D01*
X394812Y475489D01*
X396866Y474638D01*
X441564Y429940D01*
X441658Y429872D01*
X441752Y429802D01*
X441758Y429800D01*
X441763Y429797D01*
X441874Y429762D01*
X441986Y429726D01*
X441993Y429726D01*
X441998Y429724D01*
X442115Y429727D01*
X442232Y429728D01*
X442239Y429730D01*
X442244Y429731D01*
X442262Y429737D01*
X442371Y429769D01*
X446634Y429769D01*
X446721Y429748D01*
X446834Y429720D01*
X446840Y429720D01*
X446846Y429719D01*
X446963Y429730D01*
X447079Y429739D01*
X447085Y429741D01*
X447091Y429742D01*
X447199Y429790D01*
X447305Y429835D01*
X447311Y429840D01*
X447316Y429842D01*
X447330Y429855D01*
X447436Y429940D01*
X490455Y472959D01*
X492134Y474638D01*
X494188Y475489D01*
X598012Y475489D01*
X600066Y474638D01*
X644764Y429940D01*
X644858Y429873D01*
X644952Y429802D01*
X644958Y429800D01*
X644963Y429797D01*
X645074Y429762D01*
X645186Y429726D01*
X645192Y429726D01*
X645198Y429724D01*
X645315Y429727D01*
X645432Y429728D01*
X645439Y429730D01*
X645444Y429731D01*
X645462Y429737D01*
X645571Y429769D01*
X649822Y429769D01*
X653743Y428145D01*
X656745Y425143D01*
X658369Y421222D01*
X658369Y416978D01*
X656745Y413057D01*
X653743Y410055D01*
X649822Y408431D01*
X645566Y408431D01*
X645480Y408452D01*
X645366Y408480D01*
X645360Y408480D01*
X645354Y408481D01*
X645237Y408470D01*
X645121Y408461D01*
X645115Y408459D01*
X645109Y408458D01*
X645001Y408410D01*
X644895Y408365D01*
X644889Y408360D01*
X644884Y408358D01*
X644870Y408345D01*
X644764Y408260D01*
X628112Y391608D01*
X628059Y391534D01*
X627999Y391465D01*
X627987Y391434D01*
X627968Y391408D01*
X627941Y391321D01*
X627907Y391236D01*
X627903Y391196D01*
X627896Y391173D01*
X627897Y391141D01*
X627889Y391070D01*
X627889Y193130D01*
X627903Y193040D01*
X627911Y192949D01*
X627923Y192919D01*
X627928Y192888D01*
X627971Y192807D01*
X628007Y192723D01*
X628033Y192691D01*
X628044Y192670D01*
X628067Y192648D01*
X628112Y192592D01*
X637092Y183612D01*
X637166Y183559D01*
X637235Y183499D01*
X637266Y183487D01*
X637292Y183468D01*
X637379Y183441D01*
X637464Y183407D01*
X637504Y183403D01*
X637527Y183396D01*
X637559Y183397D01*
X637630Y183389D01*
X637959Y183389D01*
X638074Y183408D01*
X638190Y183425D01*
X638195Y183427D01*
X638201Y183428D01*
X638304Y183483D01*
X638409Y183536D01*
X638413Y183541D01*
X638419Y183544D01*
X638499Y183628D01*
X638581Y183712D01*
X638585Y183718D01*
X638588Y183722D01*
X638596Y183739D01*
X638651Y183839D01*
X641657Y186845D01*
X645578Y188469D01*
X649822Y188469D01*
X653743Y186845D01*
X656745Y183843D01*
X658369Y179922D01*
X658369Y175678D01*
X656745Y171757D01*
X653743Y168755D01*
X649822Y167131D01*
X645578Y167131D01*
G37*
%LPD*%
%LPC*%
G36*
X670624Y63753D02*
X670624Y63753D01*
X666049Y65648D01*
X662548Y69149D01*
X662137Y70141D01*
X662076Y70241D01*
X662016Y70341D01*
X662011Y70345D01*
X662008Y70350D01*
X661918Y70425D01*
X661829Y70501D01*
X661823Y70503D01*
X661818Y70507D01*
X661710Y70549D01*
X661601Y70593D01*
X661593Y70594D01*
X661589Y70595D01*
X661570Y70596D01*
X661434Y70611D01*
X657441Y70611D01*
X657326Y70592D01*
X657210Y70575D01*
X657205Y70573D01*
X657199Y70572D01*
X657096Y70517D01*
X656991Y70464D01*
X656987Y70459D01*
X656981Y70456D01*
X656901Y70372D01*
X656819Y70288D01*
X656815Y70282D01*
X656812Y70278D01*
X656804Y70261D01*
X656749Y70161D01*
X653743Y67155D01*
X649822Y65531D01*
X645578Y65531D01*
X641657Y67155D01*
X638655Y70157D01*
X637031Y74078D01*
X637031Y78322D01*
X638655Y82243D01*
X641657Y85245D01*
X645578Y86869D01*
X649822Y86869D01*
X653743Y85245D01*
X656753Y82235D01*
X656800Y82159D01*
X656860Y82059D01*
X656864Y82055D01*
X656868Y82050D01*
X656958Y81975D01*
X657047Y81899D01*
X657052Y81897D01*
X657057Y81893D01*
X657166Y81851D01*
X657275Y81807D01*
X657282Y81806D01*
X657287Y81805D01*
X657305Y81804D01*
X657441Y81789D01*
X661434Y81789D01*
X661549Y81807D01*
X661665Y81825D01*
X661671Y81827D01*
X661677Y81828D01*
X661780Y81883D01*
X661884Y81936D01*
X661889Y81941D01*
X661894Y81944D01*
X661975Y82029D01*
X662056Y82112D01*
X662060Y82118D01*
X662064Y82122D01*
X662071Y82139D01*
X662137Y82259D01*
X662548Y83251D01*
X666049Y86752D01*
X669538Y88197D01*
X669599Y88235D01*
X669664Y88264D01*
X669703Y88299D01*
X669747Y88326D01*
X669793Y88382D01*
X669845Y88430D01*
X669870Y88476D01*
X669904Y88516D01*
X669929Y88583D01*
X669964Y88646D01*
X669973Y88697D01*
X669992Y88745D01*
X669995Y88817D01*
X670008Y88888D01*
X670000Y88939D01*
X670002Y88991D01*
X669982Y89060D01*
X669972Y89131D01*
X669948Y89177D01*
X669934Y89227D01*
X669893Y89286D01*
X669860Y89350D01*
X669823Y89387D01*
X669793Y89429D01*
X669736Y89472D01*
X669685Y89522D01*
X669622Y89557D01*
X669596Y89576D01*
X669574Y89583D01*
X669538Y89603D01*
X666049Y91048D01*
X662548Y94549D01*
X662137Y95541D01*
X662076Y95641D01*
X662016Y95741D01*
X662011Y95745D01*
X662008Y95750D01*
X661918Y95825D01*
X661829Y95901D01*
X661823Y95903D01*
X661818Y95907D01*
X661710Y95949D01*
X661601Y95993D01*
X661593Y95994D01*
X661589Y95995D01*
X661570Y95996D01*
X661434Y96011D01*
X657441Y96011D01*
X657326Y95992D01*
X657210Y95975D01*
X657205Y95973D01*
X657199Y95972D01*
X657096Y95917D01*
X656991Y95864D01*
X656987Y95859D01*
X656981Y95856D01*
X656901Y95772D01*
X656819Y95688D01*
X656815Y95682D01*
X656812Y95678D01*
X656804Y95661D01*
X656749Y95561D01*
X653743Y92555D01*
X649822Y90931D01*
X645578Y90931D01*
X641657Y92555D01*
X638655Y95557D01*
X637031Y99478D01*
X637031Y103722D01*
X638655Y107643D01*
X641657Y110645D01*
X645578Y112269D01*
X649822Y112269D01*
X653743Y110645D01*
X656753Y107635D01*
X656800Y107559D01*
X656860Y107459D01*
X656864Y107455D01*
X656868Y107450D01*
X656958Y107375D01*
X657047Y107299D01*
X657052Y107297D01*
X657057Y107293D01*
X657166Y107251D01*
X657275Y107207D01*
X657282Y107206D01*
X657287Y107205D01*
X657305Y107204D01*
X657441Y107189D01*
X661434Y107189D01*
X661549Y107207D01*
X661665Y107225D01*
X661671Y107227D01*
X661677Y107228D01*
X661780Y107283D01*
X661884Y107336D01*
X661889Y107341D01*
X661894Y107344D01*
X661975Y107429D01*
X662056Y107512D01*
X662060Y107518D01*
X662064Y107522D01*
X662071Y107539D01*
X662137Y107659D01*
X662548Y108651D01*
X666049Y112152D01*
X669538Y113597D01*
X669599Y113635D01*
X669664Y113664D01*
X669703Y113699D01*
X669747Y113726D01*
X669793Y113782D01*
X669845Y113830D01*
X669870Y113876D01*
X669904Y113916D01*
X669929Y113983D01*
X669964Y114046D01*
X669973Y114097D01*
X669992Y114145D01*
X669995Y114217D01*
X670008Y114288D01*
X670000Y114339D01*
X670002Y114391D01*
X669982Y114460D01*
X669972Y114531D01*
X669948Y114577D01*
X669934Y114627D01*
X669893Y114686D01*
X669860Y114750D01*
X669823Y114787D01*
X669793Y114829D01*
X669736Y114872D01*
X669685Y114922D01*
X669622Y114957D01*
X669596Y114976D01*
X669574Y114983D01*
X669538Y115003D01*
X666049Y116448D01*
X662548Y119949D01*
X662137Y120941D01*
X662076Y121041D01*
X662016Y121141D01*
X662011Y121145D01*
X662008Y121150D01*
X661918Y121225D01*
X661829Y121301D01*
X661823Y121303D01*
X661818Y121307D01*
X661710Y121349D01*
X661601Y121393D01*
X661593Y121394D01*
X661589Y121395D01*
X661570Y121396D01*
X661434Y121411D01*
X657441Y121411D01*
X657326Y121392D01*
X657210Y121375D01*
X657205Y121373D01*
X657199Y121372D01*
X657096Y121317D01*
X656991Y121264D01*
X656987Y121259D01*
X656981Y121256D01*
X656901Y121172D01*
X656819Y121088D01*
X656815Y121082D01*
X656812Y121078D01*
X656804Y121061D01*
X656749Y120961D01*
X653743Y117955D01*
X649822Y116331D01*
X645578Y116331D01*
X641657Y117955D01*
X638655Y120957D01*
X637031Y124878D01*
X637031Y129122D01*
X638655Y133043D01*
X641657Y136045D01*
X645578Y137669D01*
X649822Y137669D01*
X653743Y136045D01*
X656753Y133035D01*
X656800Y132959D01*
X656860Y132859D01*
X656864Y132855D01*
X656868Y132850D01*
X656958Y132775D01*
X657047Y132699D01*
X657052Y132697D01*
X657057Y132693D01*
X657166Y132651D01*
X657275Y132607D01*
X657282Y132606D01*
X657287Y132605D01*
X657305Y132604D01*
X657441Y132589D01*
X661434Y132589D01*
X661549Y132607D01*
X661665Y132625D01*
X661671Y132627D01*
X661677Y132628D01*
X661780Y132683D01*
X661884Y132736D01*
X661889Y132741D01*
X661894Y132744D01*
X661975Y132829D01*
X662056Y132912D01*
X662060Y132918D01*
X662064Y132922D01*
X662071Y132939D01*
X662137Y133059D01*
X662548Y134051D01*
X666049Y137552D01*
X669538Y138997D01*
X669599Y139035D01*
X669664Y139064D01*
X669703Y139099D01*
X669747Y139126D01*
X669793Y139182D01*
X669845Y139230D01*
X669870Y139276D01*
X669904Y139316D01*
X669929Y139383D01*
X669964Y139446D01*
X669973Y139497D01*
X669992Y139545D01*
X669995Y139617D01*
X670008Y139688D01*
X670000Y139739D01*
X670002Y139791D01*
X669982Y139860D01*
X669972Y139931D01*
X669948Y139977D01*
X669934Y140027D01*
X669893Y140086D01*
X669860Y140150D01*
X669823Y140187D01*
X669793Y140229D01*
X669736Y140272D01*
X669685Y140322D01*
X669622Y140357D01*
X669596Y140376D01*
X669574Y140383D01*
X669538Y140403D01*
X666049Y141848D01*
X662548Y145349D01*
X662137Y146341D01*
X662076Y146441D01*
X662016Y146541D01*
X662011Y146545D01*
X662008Y146550D01*
X661918Y146625D01*
X661829Y146701D01*
X661823Y146703D01*
X661818Y146707D01*
X661710Y146749D01*
X661601Y146793D01*
X661593Y146794D01*
X661589Y146795D01*
X661570Y146796D01*
X661434Y146811D01*
X657441Y146811D01*
X657326Y146792D01*
X657210Y146775D01*
X657205Y146773D01*
X657199Y146772D01*
X657096Y146717D01*
X656991Y146664D01*
X656987Y146659D01*
X656981Y146656D01*
X656901Y146572D01*
X656819Y146488D01*
X656815Y146482D01*
X656812Y146478D01*
X656804Y146461D01*
X656749Y146361D01*
X653743Y143355D01*
X649822Y141731D01*
X645578Y141731D01*
X641657Y143355D01*
X638655Y146357D01*
X637031Y150278D01*
X637031Y154522D01*
X638655Y158443D01*
X641657Y161445D01*
X645578Y163069D01*
X649822Y163069D01*
X653743Y161445D01*
X656753Y158435D01*
X656800Y158359D01*
X656860Y158259D01*
X656864Y158255D01*
X656868Y158250D01*
X656958Y158175D01*
X657047Y158099D01*
X657052Y158097D01*
X657057Y158093D01*
X657166Y158051D01*
X657275Y158007D01*
X657282Y158006D01*
X657287Y158005D01*
X657305Y158004D01*
X657441Y157989D01*
X661434Y157989D01*
X661549Y158007D01*
X661665Y158025D01*
X661671Y158027D01*
X661677Y158028D01*
X661780Y158083D01*
X661884Y158136D01*
X661889Y158141D01*
X661894Y158144D01*
X661975Y158229D01*
X662056Y158312D01*
X662060Y158318D01*
X662064Y158322D01*
X662071Y158339D01*
X662137Y158459D01*
X662548Y159451D01*
X666049Y162952D01*
X670624Y164847D01*
X675576Y164847D01*
X680151Y162952D01*
X683652Y159451D01*
X685547Y154876D01*
X685547Y149924D01*
X683652Y145349D01*
X680151Y141848D01*
X676662Y140403D01*
X676601Y140365D01*
X676536Y140336D01*
X676498Y140301D01*
X676453Y140274D01*
X676407Y140218D01*
X676355Y140170D01*
X676330Y140124D01*
X676296Y140084D01*
X676271Y140017D01*
X676236Y139954D01*
X676227Y139903D01*
X676208Y139855D01*
X676205Y139783D01*
X676192Y139712D01*
X676200Y139661D01*
X676198Y139609D01*
X676218Y139540D01*
X676228Y139469D01*
X676252Y139423D01*
X676266Y139373D01*
X676307Y139314D01*
X676340Y139250D01*
X676377Y139213D01*
X676407Y139171D01*
X676464Y139128D01*
X676515Y139078D01*
X676578Y139043D01*
X676604Y139024D01*
X676626Y139017D01*
X676662Y138997D01*
X680151Y137552D01*
X683652Y134051D01*
X685547Y129476D01*
X685547Y124524D01*
X683652Y119949D01*
X680151Y116448D01*
X676662Y115003D01*
X676601Y114965D01*
X676536Y114936D01*
X676498Y114901D01*
X676453Y114874D01*
X676407Y114818D01*
X676355Y114770D01*
X676330Y114724D01*
X676296Y114684D01*
X676271Y114617D01*
X676236Y114554D01*
X676227Y114503D01*
X676208Y114455D01*
X676205Y114383D01*
X676192Y114312D01*
X676200Y114261D01*
X676198Y114209D01*
X676218Y114140D01*
X676228Y114069D01*
X676252Y114023D01*
X676266Y113973D01*
X676307Y113914D01*
X676340Y113850D01*
X676377Y113813D01*
X676407Y113771D01*
X676464Y113728D01*
X676515Y113678D01*
X676578Y113643D01*
X676604Y113624D01*
X676626Y113617D01*
X676662Y113597D01*
X680151Y112152D01*
X683652Y108651D01*
X685547Y104076D01*
X685547Y99124D01*
X683652Y94549D01*
X680151Y91048D01*
X676662Y89603D01*
X676601Y89565D01*
X676536Y89536D01*
X676498Y89501D01*
X676453Y89474D01*
X676407Y89418D01*
X676355Y89370D01*
X676330Y89324D01*
X676296Y89284D01*
X676271Y89217D01*
X676236Y89154D01*
X676227Y89103D01*
X676208Y89055D01*
X676205Y88983D01*
X676192Y88912D01*
X676200Y88861D01*
X676198Y88809D01*
X676218Y88740D01*
X676228Y88669D01*
X676252Y88623D01*
X676266Y88573D01*
X676307Y88514D01*
X676340Y88450D01*
X676377Y88413D01*
X676407Y88371D01*
X676464Y88328D01*
X676515Y88278D01*
X676578Y88243D01*
X676604Y88224D01*
X676626Y88217D01*
X676662Y88197D01*
X680151Y86752D01*
X683652Y83251D01*
X685547Y78676D01*
X685547Y73724D01*
X683652Y69149D01*
X680151Y65648D01*
X675576Y63753D01*
X670624Y63753D01*
G37*
%LPD*%
%LPC*%
G36*
X518578Y14731D02*
X518578Y14731D01*
X514657Y16355D01*
X511655Y19357D01*
X510031Y23278D01*
X510031Y27522D01*
X510551Y28777D01*
X510578Y28890D01*
X510606Y29004D01*
X510606Y29010D01*
X510607Y29016D01*
X510596Y29133D01*
X510587Y29249D01*
X510585Y29255D01*
X510584Y29261D01*
X510536Y29369D01*
X510491Y29475D01*
X510486Y29481D01*
X510484Y29486D01*
X510471Y29500D01*
X510386Y29606D01*
X442934Y97058D01*
X442860Y97111D01*
X442791Y97171D01*
X442761Y97183D01*
X442734Y97202D01*
X442647Y97229D01*
X442563Y97263D01*
X442522Y97267D01*
X442499Y97274D01*
X442467Y97273D01*
X442396Y97281D01*
X315711Y97281D01*
X275081Y137911D01*
X275081Y194101D01*
X275062Y194216D01*
X275045Y194332D01*
X275043Y194338D01*
X275042Y194344D01*
X274987Y194447D01*
X274934Y194552D01*
X274929Y194556D01*
X274926Y194562D01*
X274842Y194641D01*
X274758Y194724D01*
X274752Y194728D01*
X274748Y194731D01*
X274731Y194739D01*
X274611Y194805D01*
X273968Y195071D01*
X271271Y197768D01*
X269811Y201293D01*
X269811Y205107D01*
X271271Y208632D01*
X273968Y211329D01*
X277493Y212789D01*
X281307Y212789D01*
X284832Y211329D01*
X287529Y208632D01*
X288989Y205107D01*
X288989Y201293D01*
X287529Y197768D01*
X284832Y195071D01*
X284189Y194805D01*
X284089Y194743D01*
X283989Y194683D01*
X283985Y194678D01*
X283980Y194675D01*
X283905Y194586D01*
X283829Y194496D01*
X283827Y194490D01*
X283823Y194486D01*
X283781Y194378D01*
X283737Y194268D01*
X283736Y194261D01*
X283735Y194256D01*
X283734Y194238D01*
X283719Y194101D01*
X283719Y141804D01*
X283733Y141714D01*
X283741Y141623D01*
X283753Y141593D01*
X283758Y141561D01*
X283801Y141481D01*
X283837Y141397D01*
X283863Y141365D01*
X283874Y141344D01*
X283897Y141322D01*
X283942Y141266D01*
X319066Y106142D01*
X319140Y106089D01*
X319209Y106029D01*
X319239Y106017D01*
X319266Y105998D01*
X319353Y105971D01*
X319437Y105937D01*
X319478Y105933D01*
X319501Y105926D01*
X319533Y105927D01*
X319604Y105919D01*
X446289Y105919D01*
X516494Y35714D01*
X516588Y35647D01*
X516682Y35576D01*
X516688Y35574D01*
X516693Y35571D01*
X516804Y35536D01*
X516916Y35500D01*
X516922Y35500D01*
X516928Y35498D01*
X517045Y35501D01*
X517162Y35502D01*
X517169Y35504D01*
X517174Y35505D01*
X517192Y35511D01*
X517323Y35549D01*
X518578Y36069D01*
X522822Y36069D01*
X526743Y34445D01*
X529745Y31443D01*
X531369Y27522D01*
X531369Y23278D01*
X529745Y19357D01*
X526743Y16355D01*
X522822Y14731D01*
X518578Y14731D01*
G37*
%LPD*%
%LPC*%
G36*
X47011Y31749D02*
X47011Y31749D01*
X40009Y34650D01*
X34650Y40009D01*
X31749Y47011D01*
X31749Y54589D01*
X34650Y61591D01*
X40009Y66950D01*
X47011Y69851D01*
X54589Y69851D01*
X61591Y66950D01*
X66950Y61591D01*
X67290Y60771D01*
X67315Y60731D01*
X67330Y60688D01*
X67379Y60628D01*
X67420Y60561D01*
X67455Y60532D01*
X67484Y60496D01*
X67550Y60454D01*
X67610Y60405D01*
X67652Y60388D01*
X67691Y60363D01*
X67767Y60344D01*
X67839Y60316D01*
X67885Y60315D01*
X67930Y60303D01*
X68007Y60309D01*
X68085Y60306D01*
X68129Y60319D01*
X68175Y60322D01*
X68246Y60353D01*
X68321Y60375D01*
X68341Y60389D01*
X84003Y60389D01*
X85789Y58603D01*
X85789Y42997D01*
X84003Y41211D01*
X68344Y41211D01*
X68332Y41220D01*
X68288Y41233D01*
X68248Y41256D01*
X68172Y41269D01*
X68097Y41292D01*
X68051Y41291D01*
X68006Y41299D01*
X67929Y41288D01*
X67851Y41286D01*
X67808Y41270D01*
X67763Y41264D01*
X67693Y41228D01*
X67620Y41202D01*
X67585Y41173D01*
X67544Y41152D01*
X67489Y41096D01*
X67428Y41048D01*
X67404Y41009D01*
X67371Y40976D01*
X67305Y40857D01*
X67295Y40841D01*
X67294Y40836D01*
X67290Y40829D01*
X66950Y40009D01*
X61591Y34650D01*
X54589Y31749D01*
X47011Y31749D01*
G37*
%LPD*%
%LPC*%
G36*
X47011Y184149D02*
X47011Y184149D01*
X40009Y187050D01*
X34650Y192409D01*
X31749Y199411D01*
X31749Y206989D01*
X34650Y213991D01*
X40009Y219350D01*
X47011Y222251D01*
X54589Y222251D01*
X61591Y219350D01*
X66950Y213991D01*
X68413Y210462D01*
X68437Y210423D01*
X68452Y210379D01*
X68501Y210319D01*
X68542Y210253D01*
X68577Y210223D01*
X68606Y210187D01*
X68672Y210145D01*
X68732Y210096D01*
X68774Y210079D01*
X68813Y210054D01*
X68889Y210035D01*
X68961Y210008D01*
X69007Y210006D01*
X69052Y209994D01*
X69129Y210000D01*
X69207Y209997D01*
X69251Y210010D01*
X69297Y210013D01*
X69368Y210044D01*
X69443Y210066D01*
X69481Y210092D01*
X69523Y210110D01*
X69630Y210195D01*
X69645Y210206D01*
X69648Y210210D01*
X69654Y210215D01*
X70768Y211329D01*
X74293Y212789D01*
X78107Y212789D01*
X81632Y211329D01*
X84329Y208632D01*
X85789Y205107D01*
X85789Y201293D01*
X84329Y197768D01*
X81632Y195071D01*
X78107Y193611D01*
X74293Y193611D01*
X70768Y195071D01*
X69654Y196185D01*
X69617Y196212D01*
X69586Y196246D01*
X69517Y196284D01*
X69454Y196329D01*
X69411Y196342D01*
X69370Y196365D01*
X69294Y196378D01*
X69219Y196401D01*
X69173Y196400D01*
X69128Y196408D01*
X69051Y196397D01*
X68973Y196395D01*
X68930Y196379D01*
X68885Y196372D01*
X68816Y196337D01*
X68742Y196310D01*
X68707Y196282D01*
X68666Y196261D01*
X68611Y196205D01*
X68550Y196157D01*
X68526Y196118D01*
X68493Y196085D01*
X68427Y195966D01*
X68417Y195950D01*
X68416Y195945D01*
X68413Y195938D01*
X66950Y192409D01*
X61591Y187050D01*
X54589Y184149D01*
X47011Y184149D01*
G37*
%LPD*%
%LPC*%
G36*
X453411Y31749D02*
X453411Y31749D01*
X446409Y34650D01*
X441050Y40009D01*
X439587Y43538D01*
X439563Y43577D01*
X439548Y43621D01*
X439499Y43681D01*
X439458Y43747D01*
X439423Y43777D01*
X439394Y43813D01*
X439328Y43855D01*
X439268Y43904D01*
X439226Y43921D01*
X439187Y43946D01*
X439111Y43965D01*
X439039Y43992D01*
X438993Y43994D01*
X438948Y44006D01*
X438871Y44000D01*
X438793Y44003D01*
X438749Y43990D01*
X438703Y43987D01*
X438632Y43956D01*
X438557Y43934D01*
X438519Y43908D01*
X438477Y43890D01*
X438370Y43805D01*
X438355Y43794D01*
X438352Y43790D01*
X438346Y43785D01*
X437232Y42671D01*
X433707Y41211D01*
X429893Y41211D01*
X426368Y42671D01*
X423671Y45368D01*
X422211Y48893D01*
X422211Y52707D01*
X423671Y56232D01*
X426368Y58929D01*
X429893Y60389D01*
X433707Y60389D01*
X437232Y58929D01*
X438346Y57815D01*
X438383Y57788D01*
X438414Y57754D01*
X438483Y57716D01*
X438546Y57671D01*
X438589Y57658D01*
X438630Y57635D01*
X438706Y57622D01*
X438781Y57599D01*
X438827Y57600D01*
X438872Y57592D01*
X438949Y57603D01*
X439027Y57605D01*
X439070Y57621D01*
X439115Y57628D01*
X439184Y57663D01*
X439258Y57690D01*
X439293Y57718D01*
X439334Y57739D01*
X439389Y57795D01*
X439450Y57843D01*
X439474Y57882D01*
X439507Y57915D01*
X439573Y58034D01*
X439583Y58050D01*
X439584Y58055D01*
X439587Y58062D01*
X441050Y61591D01*
X446409Y66950D01*
X453411Y69851D01*
X460989Y69851D01*
X467991Y66950D01*
X473350Y61591D01*
X476251Y54589D01*
X476251Y47011D01*
X473350Y40009D01*
X467991Y34650D01*
X460989Y31749D01*
X453411Y31749D01*
G37*
%LPD*%
%LPC*%
G36*
X125093Y193611D02*
X125093Y193611D01*
X121568Y195071D01*
X118871Y197768D01*
X117411Y201293D01*
X117411Y205107D01*
X117678Y205750D01*
X117704Y205864D01*
X117733Y205977D01*
X117732Y205984D01*
X117734Y205990D01*
X117723Y206106D01*
X117714Y206223D01*
X117711Y206228D01*
X117711Y206235D01*
X117663Y206342D01*
X117617Y206449D01*
X117613Y206455D01*
X117611Y206459D01*
X117598Y206473D01*
X117513Y206580D01*
X109981Y214111D01*
X109981Y256432D01*
X109963Y256546D01*
X109945Y256663D01*
X109943Y256669D01*
X109942Y256675D01*
X109887Y256778D01*
X109834Y256883D01*
X109829Y256887D01*
X109826Y256893D01*
X109742Y256972D01*
X109658Y257055D01*
X109652Y257059D01*
X109648Y257062D01*
X109631Y257070D01*
X109511Y257136D01*
X108257Y257655D01*
X105255Y260657D01*
X103631Y264578D01*
X103631Y268822D01*
X105255Y272743D01*
X108257Y275745D01*
X112178Y277369D01*
X116422Y277369D01*
X120343Y275745D01*
X123345Y272743D01*
X124969Y268822D01*
X124969Y264578D01*
X123345Y260657D01*
X120343Y257655D01*
X119089Y257136D01*
X118989Y257074D01*
X118889Y257014D01*
X118885Y257009D01*
X118880Y257006D01*
X118805Y256917D01*
X118729Y256827D01*
X118727Y256821D01*
X118723Y256817D01*
X118681Y256709D01*
X118637Y256599D01*
X118636Y256592D01*
X118635Y256587D01*
X118634Y256569D01*
X118619Y256432D01*
X118619Y218004D01*
X118633Y217914D01*
X118641Y217823D01*
X118653Y217793D01*
X118658Y217761D01*
X118701Y217681D01*
X118737Y217597D01*
X118763Y217565D01*
X118774Y217544D01*
X118797Y217522D01*
X118817Y217497D01*
X118820Y217491D01*
X118824Y217488D01*
X118842Y217466D01*
X123620Y212687D01*
X123715Y212619D01*
X123809Y212550D01*
X123815Y212548D01*
X123820Y212544D01*
X123931Y212510D01*
X124043Y212473D01*
X124049Y212473D01*
X124055Y212472D01*
X124172Y212475D01*
X124289Y212476D01*
X124296Y212478D01*
X124301Y212478D01*
X124318Y212484D01*
X124450Y212522D01*
X125093Y212789D01*
X128907Y212789D01*
X132432Y211329D01*
X135129Y208632D01*
X136589Y205107D01*
X136589Y201293D01*
X135129Y197768D01*
X132432Y195071D01*
X128907Y193611D01*
X125093Y193611D01*
G37*
%LPD*%
%LPC*%
G36*
X518578Y433831D02*
X518578Y433831D01*
X514657Y435455D01*
X511655Y438457D01*
X510031Y442378D01*
X510031Y446622D01*
X511655Y450543D01*
X514657Y453545D01*
X518578Y455169D01*
X522822Y455169D01*
X526743Y453545D01*
X529745Y450543D01*
X531369Y446622D01*
X531369Y442378D01*
X529745Y438457D01*
X526743Y435455D01*
X522822Y433831D01*
X518578Y433831D01*
G37*
%LPD*%
%LPC*%
G36*
X315378Y433831D02*
X315378Y433831D01*
X311457Y435455D01*
X308455Y438457D01*
X306831Y442378D01*
X306831Y446622D01*
X308455Y450543D01*
X311457Y453545D01*
X315378Y455169D01*
X319622Y455169D01*
X323543Y453545D01*
X326545Y450543D01*
X328169Y446622D01*
X328169Y442378D01*
X326545Y438457D01*
X323543Y435455D01*
X319622Y433831D01*
X315378Y433831D01*
G37*
%LPD*%
%LPC*%
G36*
X112178Y433831D02*
X112178Y433831D01*
X108257Y435455D01*
X105255Y438457D01*
X103631Y442378D01*
X103631Y446622D01*
X105255Y450543D01*
X108257Y453545D01*
X112178Y455169D01*
X116422Y455169D01*
X120343Y453545D01*
X123345Y450543D01*
X124969Y446622D01*
X124969Y442378D01*
X123345Y438457D01*
X120343Y435455D01*
X116422Y433831D01*
X112178Y433831D01*
G37*
%LPD*%
%LPC*%
G36*
X518578Y408431D02*
X518578Y408431D01*
X514657Y410055D01*
X511655Y413057D01*
X510031Y416978D01*
X510031Y421222D01*
X511655Y425143D01*
X514657Y428145D01*
X518578Y429769D01*
X522822Y429769D01*
X526743Y428145D01*
X529745Y425143D01*
X531369Y421222D01*
X531369Y416978D01*
X529745Y413057D01*
X526743Y410055D01*
X522822Y408431D01*
X518578Y408431D01*
G37*
%LPD*%
%LPC*%
G36*
X315378Y408431D02*
X315378Y408431D01*
X311457Y410055D01*
X308455Y413057D01*
X306831Y416978D01*
X306831Y421222D01*
X308455Y425143D01*
X311457Y428145D01*
X315378Y429769D01*
X319622Y429769D01*
X323543Y428145D01*
X326545Y425143D01*
X328169Y421222D01*
X328169Y416978D01*
X326545Y413057D01*
X323543Y410055D01*
X319622Y408431D01*
X315378Y408431D01*
G37*
%LPD*%
%LPC*%
G36*
X112178Y408431D02*
X112178Y408431D01*
X108257Y410055D01*
X105255Y413057D01*
X103631Y416978D01*
X103631Y421222D01*
X105255Y425143D01*
X108257Y428145D01*
X112178Y429769D01*
X116422Y429769D01*
X120343Y428145D01*
X123345Y425143D01*
X124969Y421222D01*
X124969Y416978D01*
X123345Y413057D01*
X120343Y410055D01*
X116422Y408431D01*
X112178Y408431D01*
G37*
%LPD*%
%LPC*%
G36*
X315378Y383031D02*
X315378Y383031D01*
X311457Y384655D01*
X308455Y387657D01*
X306831Y391578D01*
X306831Y395822D01*
X308455Y399743D01*
X311457Y402745D01*
X315378Y404369D01*
X319622Y404369D01*
X323543Y402745D01*
X326545Y399743D01*
X328169Y395822D01*
X328169Y391578D01*
X326545Y387657D01*
X323543Y384655D01*
X319622Y383031D01*
X315378Y383031D01*
G37*
%LPD*%
%LPC*%
G36*
X518578Y357631D02*
X518578Y357631D01*
X514657Y359255D01*
X511655Y362257D01*
X510031Y366178D01*
X510031Y370422D01*
X511655Y374343D01*
X514657Y377345D01*
X518578Y378969D01*
X522822Y378969D01*
X526743Y377345D01*
X529745Y374343D01*
X531369Y370422D01*
X531369Y366178D01*
X529745Y362257D01*
X526743Y359255D01*
X522822Y357631D01*
X518578Y357631D01*
G37*
%LPD*%
%LPC*%
G36*
X315378Y357631D02*
X315378Y357631D01*
X311457Y359255D01*
X308455Y362257D01*
X306831Y366178D01*
X306831Y370422D01*
X308455Y374343D01*
X311457Y377345D01*
X315378Y378969D01*
X319622Y378969D01*
X323543Y377345D01*
X326545Y374343D01*
X328169Y370422D01*
X328169Y366178D01*
X326545Y362257D01*
X323543Y359255D01*
X319622Y357631D01*
X315378Y357631D01*
G37*
%LPD*%
%LPC*%
G36*
X442378Y281431D02*
X442378Y281431D01*
X438457Y283055D01*
X435455Y286057D01*
X433831Y289978D01*
X433831Y294222D01*
X435455Y298143D01*
X438457Y301145D01*
X442378Y302769D01*
X446622Y302769D01*
X450543Y301145D01*
X453545Y298143D01*
X455169Y294222D01*
X455169Y289978D01*
X453545Y286057D01*
X450543Y283055D01*
X446622Y281431D01*
X442378Y281431D01*
G37*
%LPD*%
%LPC*%
G36*
X645578Y281431D02*
X645578Y281431D01*
X641657Y283055D01*
X638655Y286057D01*
X637031Y289978D01*
X637031Y294222D01*
X638655Y298143D01*
X641657Y301145D01*
X645578Y302769D01*
X649822Y302769D01*
X653743Y301145D01*
X656745Y298143D01*
X658369Y294222D01*
X658369Y289978D01*
X656745Y286057D01*
X653743Y283055D01*
X649822Y281431D01*
X645578Y281431D01*
G37*
%LPD*%
%LPC*%
G36*
X239178Y281431D02*
X239178Y281431D01*
X235257Y283055D01*
X232255Y286057D01*
X230631Y289978D01*
X230631Y294222D01*
X232255Y298143D01*
X235257Y301145D01*
X239178Y302769D01*
X243422Y302769D01*
X247343Y301145D01*
X250345Y298143D01*
X251969Y294222D01*
X251969Y289978D01*
X250345Y286057D01*
X247343Y283055D01*
X243422Y281431D01*
X239178Y281431D01*
G37*
%LPD*%
%LPC*%
G36*
X518578Y383031D02*
X518578Y383031D01*
X514657Y384655D01*
X511655Y387657D01*
X510031Y391578D01*
X510031Y395822D01*
X511655Y399743D01*
X514657Y402745D01*
X518578Y404369D01*
X522822Y404369D01*
X526743Y402745D01*
X529745Y399743D01*
X531369Y395822D01*
X531369Y391578D01*
X529745Y387657D01*
X526743Y384655D01*
X522822Y383031D01*
X518578Y383031D01*
G37*
%LPD*%
%LPC*%
G36*
X518578Y192531D02*
X518578Y192531D01*
X514657Y194155D01*
X511655Y197157D01*
X510031Y201078D01*
X510031Y205322D01*
X511655Y209243D01*
X514657Y212245D01*
X518578Y213869D01*
X522822Y213869D01*
X526743Y212245D01*
X529745Y209243D01*
X531369Y205322D01*
X531369Y201078D01*
X529745Y197157D01*
X526743Y194155D01*
X522822Y192531D01*
X518578Y192531D01*
G37*
%LPD*%
%LPC*%
G36*
X645578Y40131D02*
X645578Y40131D01*
X641657Y41755D01*
X638655Y44757D01*
X637031Y48678D01*
X637031Y52922D01*
X638655Y56843D01*
X641657Y59845D01*
X645578Y61469D01*
X649822Y61469D01*
X653743Y59845D01*
X656745Y56843D01*
X658369Y52922D01*
X658369Y48678D01*
X656745Y44757D01*
X653743Y41755D01*
X649822Y40131D01*
X645578Y40131D01*
G37*
%LPD*%
%LPC*%
G36*
X518578Y116331D02*
X518578Y116331D01*
X514657Y117955D01*
X511655Y120957D01*
X510031Y124878D01*
X510031Y129122D01*
X511655Y133043D01*
X514657Y136045D01*
X518578Y137669D01*
X522822Y137669D01*
X526743Y136045D01*
X529745Y133043D01*
X531369Y129122D01*
X531369Y124878D01*
X529745Y120957D01*
X526743Y117955D01*
X522822Y116331D01*
X518578Y116331D01*
G37*
%LPD*%
%LPC*%
G36*
X518578Y167131D02*
X518578Y167131D01*
X514657Y168755D01*
X511655Y171757D01*
X510031Y175678D01*
X510031Y179922D01*
X511655Y183843D01*
X514657Y186845D01*
X518578Y188469D01*
X522822Y188469D01*
X526743Y186845D01*
X529745Y183843D01*
X531369Y179922D01*
X531369Y175678D01*
X529745Y171757D01*
X526743Y168755D01*
X522822Y167131D01*
X518578Y167131D01*
G37*
%LPD*%
%LPC*%
G36*
X518578Y141731D02*
X518578Y141731D01*
X514657Y143355D01*
X511655Y146357D01*
X510031Y150278D01*
X510031Y154522D01*
X511655Y158443D01*
X514657Y161445D01*
X518578Y163069D01*
X522822Y163069D01*
X526743Y161445D01*
X529745Y158443D01*
X531369Y154522D01*
X531369Y150278D01*
X529745Y146357D01*
X526743Y143355D01*
X522822Y141731D01*
X518578Y141731D01*
G37*
%LPD*%
%LPC*%
G36*
X175893Y41211D02*
X175893Y41211D01*
X172368Y42671D01*
X169671Y45368D01*
X168211Y48893D01*
X168211Y52707D01*
X169671Y56232D01*
X172368Y58929D01*
X175893Y60389D01*
X179707Y60389D01*
X183232Y58929D01*
X185929Y56232D01*
X187389Y52707D01*
X187389Y48893D01*
X185929Y45368D01*
X183232Y42671D01*
X179707Y41211D01*
X175893Y41211D01*
G37*
%LPD*%
%LPC*%
G36*
X201293Y41211D02*
X201293Y41211D01*
X197768Y42671D01*
X195071Y45368D01*
X193611Y48893D01*
X193611Y52707D01*
X195071Y56232D01*
X197768Y58929D01*
X201293Y60389D01*
X205107Y60389D01*
X208632Y58929D01*
X211329Y56232D01*
X212789Y52707D01*
X212789Y48893D01*
X211329Y45368D01*
X208632Y42671D01*
X205107Y41211D01*
X201293Y41211D01*
G37*
%LPD*%
%LPC*%
G36*
X125093Y41211D02*
X125093Y41211D01*
X121568Y42671D01*
X118871Y45368D01*
X117411Y48893D01*
X117411Y52707D01*
X118871Y56232D01*
X121568Y58929D01*
X125093Y60389D01*
X128907Y60389D01*
X132432Y58929D01*
X135129Y56232D01*
X136589Y52707D01*
X136589Y48893D01*
X135129Y45368D01*
X132432Y42671D01*
X128907Y41211D01*
X125093Y41211D01*
G37*
%LPD*%
%LPC*%
G36*
X99693Y41211D02*
X99693Y41211D01*
X96168Y42671D01*
X93471Y45368D01*
X92011Y48893D01*
X92011Y52707D01*
X93471Y56232D01*
X96168Y58929D01*
X99693Y60389D01*
X103507Y60389D01*
X107032Y58929D01*
X109729Y56232D01*
X111189Y52707D01*
X111189Y48893D01*
X109729Y45368D01*
X107032Y42671D01*
X103507Y41211D01*
X99693Y41211D01*
G37*
%LPD*%
%LPC*%
G36*
X379093Y193611D02*
X379093Y193611D01*
X375568Y195071D01*
X372871Y197768D01*
X371411Y201293D01*
X371411Y205107D01*
X372871Y208632D01*
X375568Y211329D01*
X379093Y212789D01*
X382907Y212789D01*
X386432Y211329D01*
X389129Y208632D01*
X390589Y205107D01*
X390589Y201293D01*
X389129Y197768D01*
X386432Y195071D01*
X382907Y193611D01*
X379093Y193611D01*
G37*
%LPD*%
%LPC*%
G36*
X328293Y193611D02*
X328293Y193611D01*
X324768Y195071D01*
X322071Y197768D01*
X320611Y201293D01*
X320611Y205107D01*
X322071Y208632D01*
X324768Y211329D01*
X328293Y212789D01*
X332107Y212789D01*
X335632Y211329D01*
X338329Y208632D01*
X339789Y205107D01*
X339789Y201293D01*
X338329Y197768D01*
X335632Y195071D01*
X332107Y193611D01*
X328293Y193611D01*
G37*
%LPD*%
%LPC*%
G36*
X302893Y193611D02*
X302893Y193611D01*
X299368Y195071D01*
X296671Y197768D01*
X295211Y201293D01*
X295211Y205107D01*
X296671Y208632D01*
X299368Y211329D01*
X302893Y212789D01*
X306707Y212789D01*
X310232Y211329D01*
X312929Y208632D01*
X314389Y205107D01*
X314389Y201293D01*
X312929Y197768D01*
X310232Y195071D01*
X306707Y193611D01*
X302893Y193611D01*
G37*
%LPD*%
%LPC*%
G36*
X404493Y193611D02*
X404493Y193611D01*
X400968Y195071D01*
X398271Y197768D01*
X396811Y201293D01*
X396811Y205107D01*
X398271Y208632D01*
X400968Y211329D01*
X404493Y212789D01*
X408307Y212789D01*
X411832Y211329D01*
X414529Y208632D01*
X415989Y205107D01*
X415989Y201293D01*
X414529Y197768D01*
X411832Y195071D01*
X408307Y193611D01*
X404493Y193611D01*
G37*
%LPD*%
%LPC*%
G36*
X226693Y41211D02*
X226693Y41211D01*
X223168Y42671D01*
X220471Y45368D01*
X219011Y48893D01*
X219011Y52707D01*
X220471Y56232D01*
X223168Y58929D01*
X226693Y60389D01*
X230507Y60389D01*
X234032Y58929D01*
X236729Y56232D01*
X238189Y52707D01*
X238189Y48893D01*
X236729Y45368D01*
X234032Y42671D01*
X230507Y41211D01*
X226693Y41211D01*
G37*
%LPD*%
%LPC*%
G36*
X328293Y41211D02*
X328293Y41211D01*
X324768Y42671D01*
X322071Y45368D01*
X320611Y48893D01*
X320611Y52707D01*
X322071Y56232D01*
X324768Y58929D01*
X328293Y60389D01*
X332107Y60389D01*
X335632Y58929D01*
X338329Y56232D01*
X339789Y52707D01*
X339789Y48893D01*
X338329Y45368D01*
X335632Y42671D01*
X332107Y41211D01*
X328293Y41211D01*
G37*
%LPD*%
%LPC*%
G36*
X379093Y41211D02*
X379093Y41211D01*
X375568Y42671D01*
X372871Y45368D01*
X371411Y48893D01*
X371411Y52707D01*
X372871Y56232D01*
X375568Y58929D01*
X379093Y60389D01*
X382907Y60389D01*
X386432Y58929D01*
X389129Y56232D01*
X390589Y52707D01*
X390589Y48893D01*
X389129Y45368D01*
X386432Y42671D01*
X382907Y41211D01*
X379093Y41211D01*
G37*
%LPD*%
%LPC*%
G36*
X150493Y41211D02*
X150493Y41211D01*
X146968Y42671D01*
X144271Y45368D01*
X142811Y48893D01*
X142811Y52707D01*
X144271Y56232D01*
X146968Y58929D01*
X150493Y60389D01*
X154307Y60389D01*
X157832Y58929D01*
X160529Y56232D01*
X161989Y52707D01*
X161989Y48893D01*
X160529Y45368D01*
X157832Y42671D01*
X154307Y41211D01*
X150493Y41211D01*
G37*
%LPD*%
%LPC*%
G36*
X369823Y20573D02*
X369823Y20573D01*
X369823Y30896D01*
X371096Y30695D01*
X372883Y30114D01*
X374557Y29261D01*
X376078Y28156D01*
X377406Y26828D01*
X378511Y25307D01*
X379364Y23633D01*
X379945Y21846D01*
X380146Y20573D01*
X369823Y20573D01*
G37*
%LPD*%
%LPC*%
G36*
X649223Y268223D02*
X649223Y268223D01*
X649223Y276746D01*
X650079Y276611D01*
X651600Y276116D01*
X653025Y275390D01*
X654319Y274450D01*
X655450Y273319D01*
X656390Y272025D01*
X657116Y270600D01*
X657611Y269079D01*
X657746Y268223D01*
X649223Y268223D01*
G37*
%LPD*%
%LPC*%
G36*
X242823Y268223D02*
X242823Y268223D01*
X242823Y276746D01*
X243679Y276611D01*
X245200Y276116D01*
X246625Y275390D01*
X247919Y274450D01*
X249050Y273319D01*
X249990Y272025D01*
X250716Y270600D01*
X251211Y269079D01*
X251346Y268223D01*
X242823Y268223D01*
G37*
%LPD*%
%LPC*%
G36*
X446023Y268223D02*
X446023Y268223D01*
X446023Y276746D01*
X446879Y276611D01*
X448400Y276116D01*
X449825Y275390D01*
X451119Y274450D01*
X452250Y273319D01*
X453190Y272025D01*
X453916Y270600D01*
X454411Y269079D01*
X454546Y268223D01*
X446023Y268223D01*
G37*
%LPD*%
%LPC*%
G36*
X649223Y26923D02*
X649223Y26923D01*
X649223Y35446D01*
X650079Y35311D01*
X651600Y34816D01*
X653025Y34090D01*
X654319Y33150D01*
X655450Y32019D01*
X656390Y30725D01*
X657116Y29300D01*
X657611Y27779D01*
X657746Y26923D01*
X649223Y26923D01*
G37*
%LPD*%
%LPC*%
G36*
X231254Y268223D02*
X231254Y268223D01*
X231389Y269079D01*
X231884Y270600D01*
X232610Y272025D01*
X233550Y273319D01*
X234681Y274450D01*
X235975Y275390D01*
X237400Y276116D01*
X238921Y276611D01*
X239777Y276746D01*
X239777Y268223D01*
X231254Y268223D01*
G37*
%LPD*%
%LPC*%
G36*
X434454Y268223D02*
X434454Y268223D01*
X434589Y269079D01*
X435084Y270600D01*
X435810Y272025D01*
X436750Y273319D01*
X437881Y274450D01*
X439175Y275390D01*
X440600Y276116D01*
X442121Y276611D01*
X442977Y276746D01*
X442977Y268223D01*
X434454Y268223D01*
G37*
%LPD*%
%LPC*%
G36*
X649223Y265177D02*
X649223Y265177D01*
X657746Y265177D01*
X657611Y264321D01*
X657116Y262800D01*
X656390Y261375D01*
X655450Y260081D01*
X654319Y258950D01*
X653025Y258010D01*
X651600Y257284D01*
X650079Y256789D01*
X649223Y256654D01*
X649223Y265177D01*
G37*
%LPD*%
%LPC*%
G36*
X637654Y268223D02*
X637654Y268223D01*
X637789Y269079D01*
X638284Y270600D01*
X639010Y272025D01*
X639950Y273319D01*
X641081Y274450D01*
X642375Y275390D01*
X643800Y276116D01*
X645321Y276611D01*
X646177Y276746D01*
X646177Y268223D01*
X637654Y268223D01*
G37*
%LPD*%
%LPC*%
G36*
X446023Y265177D02*
X446023Y265177D01*
X454546Y265177D01*
X454411Y264321D01*
X453916Y262800D01*
X453190Y261375D01*
X452250Y260081D01*
X451119Y258950D01*
X449825Y258010D01*
X448400Y257284D01*
X446879Y256789D01*
X446023Y256654D01*
X446023Y265177D01*
G37*
%LPD*%
%LPC*%
G36*
X637654Y26923D02*
X637654Y26923D01*
X637789Y27779D01*
X638284Y29300D01*
X639010Y30725D01*
X639950Y32019D01*
X641081Y33150D01*
X642375Y34090D01*
X643800Y34816D01*
X645321Y35311D01*
X646177Y35446D01*
X646177Y26923D01*
X637654Y26923D01*
G37*
%LPD*%
%LPC*%
G36*
X649223Y23877D02*
X649223Y23877D01*
X657746Y23877D01*
X657611Y23021D01*
X657116Y21500D01*
X656390Y20075D01*
X655450Y18781D01*
X654319Y17650D01*
X653025Y16710D01*
X651600Y15984D01*
X650079Y15489D01*
X649223Y15354D01*
X649223Y23877D01*
G37*
%LPD*%
%LPC*%
G36*
X442121Y256789D02*
X442121Y256789D01*
X440600Y257284D01*
X439175Y258010D01*
X437881Y258950D01*
X436750Y260081D01*
X435810Y261375D01*
X435084Y262800D01*
X434589Y264321D01*
X434454Y265177D01*
X442977Y265177D01*
X442977Y256654D01*
X442121Y256789D01*
G37*
%LPD*%
%LPC*%
G36*
X645321Y256789D02*
X645321Y256789D01*
X643800Y257284D01*
X642375Y258010D01*
X641081Y258950D01*
X639950Y260081D01*
X639010Y261375D01*
X638284Y262800D01*
X637789Y264321D01*
X637654Y265177D01*
X646177Y265177D01*
X646177Y256654D01*
X645321Y256789D01*
G37*
%LPD*%
%LPC*%
G36*
X645321Y15489D02*
X645321Y15489D01*
X643800Y15984D01*
X642375Y16710D01*
X641081Y17650D01*
X639950Y18781D01*
X639010Y20075D01*
X638284Y21500D01*
X637789Y23021D01*
X637654Y23877D01*
X646177Y23877D01*
X646177Y15354D01*
X645321Y15489D01*
G37*
%LPD*%
%LPC*%
G36*
X357123Y204723D02*
X357123Y204723D01*
X357123Y212156D01*
X358249Y211932D01*
X359901Y211247D01*
X361389Y210253D01*
X362653Y208989D01*
X363647Y207501D01*
X364332Y205849D01*
X364556Y204723D01*
X357123Y204723D01*
G37*
%LPD*%
%LPC*%
G36*
X407923Y52323D02*
X407923Y52323D01*
X407923Y59756D01*
X409049Y59532D01*
X410701Y58847D01*
X412189Y57853D01*
X413453Y56589D01*
X414447Y55101D01*
X415132Y53449D01*
X415356Y52323D01*
X407923Y52323D01*
G37*
%LPD*%
%LPC*%
G36*
X346644Y204723D02*
X346644Y204723D01*
X346868Y205849D01*
X347553Y207501D01*
X348547Y208989D01*
X349811Y210253D01*
X351299Y211247D01*
X352951Y211932D01*
X354077Y212156D01*
X354077Y204723D01*
X346644Y204723D01*
G37*
%LPD*%
%LPC*%
G36*
X357123Y201677D02*
X357123Y201677D01*
X364556Y201677D01*
X364332Y200551D01*
X363647Y198899D01*
X362653Y197411D01*
X361389Y196147D01*
X359901Y195153D01*
X358249Y194468D01*
X357123Y194244D01*
X357123Y201677D01*
G37*
%LPD*%
%LPC*%
G36*
X397444Y52323D02*
X397444Y52323D01*
X397668Y53449D01*
X398353Y55101D01*
X399347Y56589D01*
X400611Y57853D01*
X402099Y58847D01*
X403751Y59532D01*
X404877Y59756D01*
X404877Y52323D01*
X397444Y52323D01*
G37*
%LPD*%
%LPC*%
G36*
X407923Y49277D02*
X407923Y49277D01*
X415356Y49277D01*
X415132Y48151D01*
X414447Y46499D01*
X413453Y45011D01*
X412189Y43747D01*
X410701Y42753D01*
X409049Y42068D01*
X407923Y41844D01*
X407923Y49277D01*
G37*
%LPD*%
%LPC*%
G36*
X352951Y194468D02*
X352951Y194468D01*
X351299Y195153D01*
X349811Y196147D01*
X348547Y197411D01*
X347553Y198899D01*
X346868Y200551D01*
X346644Y201677D01*
X354077Y201677D01*
X354077Y194244D01*
X352951Y194468D01*
G37*
%LPD*%
%LPC*%
G36*
X403751Y42068D02*
X403751Y42068D01*
X402099Y42753D01*
X400611Y43747D01*
X399347Y45011D01*
X398353Y46499D01*
X397668Y48151D01*
X397444Y49277D01*
X404877Y49277D01*
X404877Y41844D01*
X403751Y42068D01*
G37*
%LPD*%
%LPC*%
G36*
X444499Y266699D02*
X444499Y266699D01*
X444499Y266701D01*
X444501Y266701D01*
X444501Y266699D01*
X444499Y266699D01*
G37*
%LPD*%
%LPC*%
G36*
X647699Y266699D02*
X647699Y266699D01*
X647699Y266701D01*
X647701Y266701D01*
X647701Y266699D01*
X647699Y266699D01*
G37*
%LPD*%
%LPC*%
G36*
X355599Y203199D02*
X355599Y203199D01*
X355599Y203201D01*
X355601Y203201D01*
X355601Y203199D01*
X355599Y203199D01*
G37*
%LPD*%
%LPC*%
G36*
X647699Y25399D02*
X647699Y25399D01*
X647699Y25401D01*
X647701Y25401D01*
X647701Y25399D01*
X647699Y25399D01*
G37*
%LPD*%
%LPC*%
G36*
X406399Y50799D02*
X406399Y50799D01*
X406399Y50801D01*
X406401Y50801D01*
X406401Y50799D01*
X406399Y50799D01*
G37*
%LPD*%
D10*
X76200Y50800D03*
D11*
X101600Y50800D03*
X127000Y50800D03*
X152400Y50800D03*
X177800Y50800D03*
X203200Y50800D03*
X228600Y50800D03*
X254000Y50800D03*
X279400Y50800D03*
X304800Y50800D03*
X330200Y50800D03*
X355600Y50800D03*
X381000Y50800D03*
X406400Y50800D03*
X431800Y50800D03*
X431800Y203200D03*
X406400Y203200D03*
X381000Y203200D03*
X355600Y203200D03*
X330200Y203200D03*
X304800Y203200D03*
X279400Y203200D03*
X254000Y203200D03*
X228600Y203200D03*
X203200Y203200D03*
X177800Y203200D03*
X152400Y203200D03*
X127000Y203200D03*
X101600Y203200D03*
X76200Y203200D03*
D12*
X50800Y445770D03*
D13*
X50800Y368300D03*
D14*
X114300Y444500D03*
X114300Y419100D03*
X114300Y393700D03*
X114300Y368300D03*
X114300Y342900D03*
X114300Y317500D03*
X114300Y292100D03*
X114300Y266700D03*
X241300Y266700D03*
X241300Y292100D03*
X241300Y317500D03*
X241300Y342900D03*
X241300Y368300D03*
X241300Y393700D03*
X241300Y419100D03*
X241300Y444500D03*
X317500Y444500D03*
X317500Y419100D03*
X317500Y393700D03*
X317500Y368300D03*
X317500Y342900D03*
X317500Y317500D03*
X317500Y292100D03*
X317500Y266700D03*
X444500Y266700D03*
X444500Y292100D03*
X444500Y317500D03*
X444500Y342900D03*
X444500Y368300D03*
X444500Y393700D03*
X444500Y419100D03*
X444500Y444500D03*
X520700Y444500D03*
X520700Y419100D03*
X520700Y393700D03*
X520700Y368300D03*
X520700Y342900D03*
X520700Y317500D03*
X520700Y292100D03*
X520700Y266700D03*
X647700Y266700D03*
X647700Y292100D03*
X647700Y317500D03*
X647700Y342900D03*
X647700Y368300D03*
X647700Y393700D03*
X647700Y419100D03*
X647700Y444500D03*
X520700Y203200D03*
X520700Y177800D03*
X520700Y152400D03*
X520700Y127000D03*
X520700Y101600D03*
X520700Y76200D03*
X520700Y50800D03*
X520700Y25400D03*
X647700Y25400D03*
X647700Y50800D03*
X647700Y76200D03*
X647700Y101600D03*
X647700Y127000D03*
X647700Y152400D03*
X647700Y177800D03*
X647700Y203200D03*
D15*
X368300Y19050D03*
X342900Y19050D03*
X317500Y19050D03*
X292100Y19050D03*
X266700Y393700D03*
X266700Y368300D03*
X266700Y342900D03*
X266700Y317500D03*
X469900Y393700D03*
X469900Y368300D03*
X469900Y342900D03*
X469900Y317500D03*
X673100Y393700D03*
X673100Y368300D03*
X673100Y342900D03*
X673100Y317500D03*
X673100Y152400D03*
X673100Y127000D03*
X673100Y101600D03*
X673100Y76200D03*
D16*
X292100Y469900D02*
X241300Y419100D01*
X292100Y469900D02*
X393700Y469900D01*
X444500Y419100D01*
X495300Y469900D01*
X596900Y469900D01*
X647700Y419100D01*
X622300Y393700D01*
X622300Y190500D01*
X635000Y177800D01*
X647700Y177800D01*
X241300Y419100D02*
X203200Y381000D01*
X63500Y381000D01*
X50800Y368300D01*
D17*
X279400Y50800D02*
X285750Y50800D01*
X317500Y19050D01*
X292100Y19050D02*
X260350Y19050D01*
X254000Y25400D01*
X254000Y50800D01*
X114300Y317500D02*
X114300Y342900D01*
X317500Y342900D02*
X317500Y317500D01*
X520700Y317500D02*
X520700Y342900D01*
X520700Y101600D02*
X520700Y76200D01*
X317500Y342900D02*
X330200Y355600D01*
X508000Y355600D01*
X520700Y342900D01*
X127000Y355600D02*
X114300Y342900D01*
X127000Y355600D02*
X304800Y355600D01*
X317500Y342900D01*
X520700Y342900D02*
X533400Y355600D01*
X546100Y355600D01*
X558800Y342900D01*
X558800Y127000D01*
X546100Y114300D01*
X533400Y114300D01*
X520700Y101600D01*
X114300Y317500D02*
X88900Y292100D01*
X38100Y292100D02*
X25400Y279400D01*
X25400Y190500D01*
X139700Y76200D01*
X342900Y76200D02*
X355600Y63500D01*
X355600Y50800D01*
X88900Y292100D02*
X38100Y292100D01*
X139700Y76200D02*
X342900Y76200D01*
X355600Y50800D02*
X355600Y31750D01*
X342900Y19050D01*
D16*
X50800Y445770D02*
X87630Y482600D01*
X203200Y482600D01*
X241300Y444500D01*
X203200Y482600D02*
X406400Y482600D01*
X444500Y444500D01*
X406400Y482600D02*
X609600Y482600D01*
X647700Y444500D01*
X674600Y444500D01*
X687300Y431800D01*
X687300Y217400D01*
X673100Y203200D01*
X647700Y203200D01*
D17*
X374650Y25400D02*
X368300Y19050D01*
X374650Y25400D02*
X393700Y25400D01*
X406400Y38100D01*
X406400Y50800D01*
X635000Y254000D02*
X647700Y266700D01*
X635000Y254000D02*
X635000Y201172D01*
X645672Y190500D01*
X678410Y190500D02*
X688570Y180340D01*
X688570Y35790D01*
X678180Y25400D01*
X647700Y25400D01*
X645672Y190500D02*
X678410Y190500D01*
X647700Y25400D02*
X635000Y12700D01*
X431800Y12700D01*
X406400Y38100D01*
X241300Y266700D02*
X165100Y266700D01*
X139700Y241300D01*
X139700Y139700D01*
X190500Y88900D01*
X368300Y88900D01*
X406400Y50800D01*
X609600Y38100D02*
X635000Y38100D01*
X647700Y25400D01*
X444500Y266700D02*
X482600Y304800D01*
X533400Y304800D01*
X546100Y292100D01*
X546100Y241300D01*
X533400Y228600D01*
X508000Y228600D01*
X495300Y215900D01*
X495300Y86872D02*
X518672Y63500D01*
X584200Y63500D01*
X495300Y86872D02*
X495300Y215900D01*
X584200Y63500D02*
X609600Y38100D01*
X101600Y203200D02*
X88900Y215900D01*
X88900Y279400D01*
X101600Y292100D01*
X114300Y292100D01*
X114300Y215900D02*
X127000Y203200D01*
X114300Y215900D02*
X114300Y266700D01*
X152400Y228600D02*
X152400Y203200D01*
X152400Y228600D02*
X177800Y254000D01*
X279400Y254000D01*
X292100Y266700D01*
X292100Y279400D01*
X304800Y292100D01*
X317500Y292100D01*
X508000Y292100D02*
X520700Y292100D01*
X508000Y292100D02*
X495300Y279400D01*
X495300Y254000D01*
X482600Y241300D01*
X215900Y241300D01*
X203200Y228600D01*
X203200Y203200D01*
D16*
X241300Y393700D02*
X266700Y393700D01*
X266700Y342900D02*
X241300Y342900D01*
X241300Y368300D02*
X266700Y368300D01*
X266700Y317500D02*
X241300Y317500D01*
X444500Y393700D02*
X469900Y393700D01*
X469900Y368300D02*
X444500Y368300D01*
X444500Y342900D02*
X469900Y342900D01*
X469900Y317500D02*
X444500Y317500D01*
X647700Y393700D02*
X673100Y393700D01*
X673100Y368300D02*
X647700Y368300D01*
X647700Y342900D02*
X673100Y342900D01*
X673100Y317500D02*
X647700Y317500D01*
X647700Y152400D02*
X673100Y152400D01*
X673100Y127000D02*
X647700Y127000D01*
X647700Y101600D02*
X673100Y101600D01*
X673100Y76200D02*
X647700Y76200D01*
D17*
X520700Y25400D02*
X444500Y101600D01*
X317500Y101600D02*
X279400Y139700D01*
X279400Y203200D01*
X317500Y101600D02*
X444500Y101600D01*
X298196Y247396D02*
X317500Y266700D01*
X196596Y247396D02*
X177800Y228600D01*
X177800Y203200D01*
X196596Y247396D02*
X298196Y247396D01*
X486410Y232410D02*
X520700Y266700D01*
X486410Y232410D02*
X245110Y232410D01*
X228600Y215900D01*
X228600Y203200D01*
X254000Y215900D02*
X261620Y223520D01*
X254000Y215900D02*
X254000Y203200D01*
X477520Y211617D02*
X477520Y93980D01*
X465617Y223520D02*
X261620Y223520D01*
X477520Y93980D02*
X520700Y50800D01*
X477520Y211617D02*
X465617Y223520D01*
M02*
