G04 EAGLE Gerber RS-274X export*
G75*
%MOMM*%
%FSLAX34Y34*%
%LPD*%
%INSoldermask Bottom*%
%IPPOS*%
%AMOC8*
5,1,8,0,0,1.08239X$1,22.5*%
G01*
%ADD10C,1.981200*%
%ADD11R,1.511200X1.511200*%
%ADD12C,1.511200*%
%ADD13C,5.537200*%
%ADD14R,6.045200X6.045200*%
%ADD15C,1.727200*%
%ADD16C,2.082800*%


D10*
X50800Y50800D03*
D11*
X76200Y50800D03*
D12*
X101600Y50800D03*
X127000Y50800D03*
X152400Y50800D03*
X177800Y50800D03*
X203200Y50800D03*
X228600Y50800D03*
X254000Y50800D03*
X279400Y50800D03*
X304800Y50800D03*
X330200Y50800D03*
X355600Y50800D03*
X381000Y50800D03*
X406400Y50800D03*
X431800Y50800D03*
X431800Y203200D03*
X406400Y203200D03*
X381000Y203200D03*
X355600Y203200D03*
X330200Y203200D03*
X304800Y203200D03*
X279400Y203200D03*
X254000Y203200D03*
X228600Y203200D03*
X203200Y203200D03*
X177800Y203200D03*
X152400Y203200D03*
X127000Y203200D03*
X101600Y203200D03*
X76200Y203200D03*
D10*
X50800Y203200D03*
X457200Y203200D03*
X457200Y50800D03*
D13*
X50800Y445770D03*
D14*
X50800Y368300D03*
D15*
X114300Y444500D03*
X114300Y419100D03*
X114300Y393700D03*
X114300Y368300D03*
X114300Y342900D03*
X114300Y317500D03*
X114300Y292100D03*
X114300Y266700D03*
X241300Y266700D03*
X241300Y292100D03*
X241300Y317500D03*
X241300Y342900D03*
X241300Y368300D03*
X241300Y393700D03*
X241300Y419100D03*
X241300Y444500D03*
X317500Y444500D03*
X317500Y419100D03*
X317500Y393700D03*
X317500Y368300D03*
X317500Y342900D03*
X317500Y317500D03*
X317500Y292100D03*
X317500Y266700D03*
X444500Y266700D03*
X444500Y292100D03*
X444500Y317500D03*
X444500Y342900D03*
X444500Y368300D03*
X444500Y393700D03*
X444500Y419100D03*
X444500Y444500D03*
X520700Y444500D03*
X520700Y419100D03*
X520700Y393700D03*
X520700Y368300D03*
X520700Y342900D03*
X520700Y317500D03*
X520700Y292100D03*
X520700Y266700D03*
X647700Y266700D03*
X647700Y292100D03*
X647700Y317500D03*
X647700Y342900D03*
X647700Y368300D03*
X647700Y393700D03*
X647700Y419100D03*
X647700Y444500D03*
X520700Y203200D03*
X520700Y177800D03*
X520700Y152400D03*
X520700Y127000D03*
X520700Y101600D03*
X520700Y76200D03*
X520700Y50800D03*
X520700Y25400D03*
X647700Y25400D03*
X647700Y50800D03*
X647700Y76200D03*
X647700Y101600D03*
X647700Y127000D03*
X647700Y152400D03*
X647700Y177800D03*
X647700Y203200D03*
D16*
X368300Y19050D03*
X342900Y19050D03*
X317500Y19050D03*
X292100Y19050D03*
X266700Y393700D03*
X266700Y368300D03*
X266700Y342900D03*
X266700Y317500D03*
X469900Y393700D03*
X469900Y368300D03*
X469900Y342900D03*
X469900Y317500D03*
X673100Y393700D03*
X673100Y368300D03*
X673100Y342900D03*
X673100Y317500D03*
X673100Y152400D03*
X673100Y127000D03*
X673100Y101600D03*
X673100Y76200D03*
M02*
