M48
;GenerationSoftware,Autodesk,EAGLE,9.6.1*%
;CreationDate,2020-07-28T23:21:21Z*%
FMAT,2
ICI,OFF
METRIC,TZ,000.000
T4C0.800
T3C1.016
T2C1.778
T1C2.800
%
G90
M71
T1
X5080Y44577
X5080Y36830
T2
X5080Y5080
X5080Y20320
X45720Y20320
X45720Y5080
T3
X52070Y5080
X52070Y2540
X64770Y2540
X64770Y5080
X64770Y7620
X64770Y10160
X64770Y12700
X64770Y15240
X64770Y17780
X64770Y20320
X36830Y1905
X44450Y26670
X34290Y1905
X31750Y1905
X29210Y1905
X26670Y36830
X26670Y34290
X26670Y31750
X46990Y39370
X46990Y36830
X46990Y34290
X46990Y31750
X67310Y39370
X67310Y36830
X67310Y34290
X67310Y31750
X67310Y15240
X67310Y12700
X67310Y10160
X67310Y7620
X11430Y44450
X11430Y41910
X11430Y39370
X11430Y36830
X11430Y34290
X11430Y31750
X11430Y29210
X11430Y26670
X24130Y26670
X24130Y29210
X24130Y31750
X24130Y34290
X24130Y36830
X24130Y39370
X24130Y41910
X24130Y44450
X31750Y44450
X31750Y41910
X31750Y39370
X31750Y36830
X31750Y34290
X31750Y31750
X31750Y29210
X31750Y26670
X26670Y39370
X44450Y29210
X44450Y31750
X44450Y34290
X44450Y36830
X44450Y39370
X44450Y41910
X44450Y44450
X52070Y44450
X52070Y41910
X52070Y39370
X52070Y36830
X52070Y34290
X52070Y31750
X52070Y29210
X52070Y26670
X64770Y26670
X64770Y29210
X64770Y31750
X64770Y34290
X64770Y36830
X64770Y39370
X64770Y41910
X64770Y44450
X52070Y20320
X52070Y17780
X52070Y15240
X52070Y12700
X52070Y10160
X52070Y7620
T4
X7620Y5080
X10160Y5080
X12700Y5080
X15240Y5080
X17780Y5080
X20320Y5080
X22860Y5080
X25400Y5080
X27940Y5080
X30480Y5080
X33020Y5080
X38100Y5080
X40640Y5080
X43180Y5080
X43180Y20320
X40640Y20320
X38100Y20320
X35560Y20320
X33020Y20320
X30480Y20320
X27940Y20320
X25400Y20320
X22860Y20320
X20320Y20320
X17780Y20320
X15240Y20320
X12700Y20320
X10160Y20320
X7620Y20320
X35560Y5080
M30